<svg width="119" height="24" viewBox="0 0 119 24" fill="none" xmlns="http://www.w3.org/2000/svg">
<mask id="mask0_74_151914" style="mask-type:alpha" maskUnits="userSpaceOnUse" x="0" y="0" width="24" height="24">
<circle cx="12" cy="12" r="12" fill="#E7E7E7"/>
</mask>
<g mask="url(#mask0_74_151914)">
<circle cx="24" cy="36" r="24" fill="#00C955"/>
<circle cx="24.5" cy="36.5" r="19.5" fill="#92E018"/>
<circle cy="36" r="24" fill="#92E018"/>
<circle cx="0.5" cy="36.5" r="19.5" fill="#00C955"/>
</g>
<path d="M19.2227 2.26855L17.4375 6.61035L21.748 4.81152L24 10.2871L19.6895 12.0859L17.9512 12.7461C17.9815 12.5015 18 12.2528 18 12C18 8.68629 15.3137 6 12 6C8.68629 6 6 8.68629 6 12C6 12.251 6.01694 12.4983 6.04688 12.7412L4.31055 12.0859L0 10.2871L2.25195 4.81152L6.56348 6.61035L4.77734 2.26855L10.2148 0L12 4.3418L13.7861 0L19.2227 2.26855Z" fill="#FDC018"/>
<path d="M14.1213 13.151C15.2929 12.0191 15.2929 10.1838 14.1213 9.05188L11.9998 7L9.87868 9.05188C8.70711 10.1838 8.70711 12.0191 9.87868 13.151C11.0503 14.283 12.9497 14.283 14.1213 13.151Z" fill="#007AFF" fill-opacity="0.5"/>
<path d="M32.621 8.5345H35.159L37.481 13.516H37.535L40.046 8.5345H42.4355V16H40.451V11.302L38.2775 16H36.6845L34.5515 11.302V16H32.621V8.5345ZM47.9477 10.303L46.7597 13.1785H49.3922L48.2582 10.303H47.9477ZM46.6787 8.5345H49.5677L52.7402 16H50.6342L50.1617 14.9065H46.0307L45.5717 16H43.4387L46.6787 8.5345ZM61.1966 9.547L60.2381 11.005C59.4371 10.42 58.4606 10.1275 57.3086 10.1275C56.2736 10.1275 55.7561 10.33 55.7561 10.735C55.7561 10.879 55.8146 10.978 55.9316 11.032C56.0576 11.077 56.2556 11.1175 56.5256 11.1535L58.6991 11.3965C60.4721 11.6125 61.3586 12.382 61.3586 13.705C61.3586 14.524 60.9941 15.145 60.2651 15.568C59.5451 15.982 58.5956 16.189 57.4166 16.189C56.6246 16.189 55.9181 16.0945 55.2971 15.9055C54.6851 15.7075 54.0776 15.379 53.4746 14.92L54.4061 13.381C55.4231 14.101 56.4851 14.461 57.5921 14.461C58.1321 14.461 58.5731 14.4025 58.9151 14.2855C59.2571 14.1595 59.4281 13.975 59.4281 13.732C59.4281 13.588 59.3921 13.4845 59.3201 13.4215C59.2571 13.3585 59.1131 13.318 58.8881 13.3L56.3231 13.003C55.4951 12.904 54.8651 12.679 54.4331 12.328C54.0101 11.968 53.7986 11.4415 53.7986 10.7485C53.7986 9.9655 54.1271 9.3715 54.7841 8.9665C55.4411 8.5615 56.2826 8.359 57.3086 8.359C58.8746 8.359 60.1706 8.755 61.1966 9.547ZM65.0732 10.6675C64.6592 11.0725 64.4522 11.608 64.4522 12.274C64.4522 12.94 64.6592 13.48 65.0732 13.894C65.4962 14.299 66.0272 14.5015 66.6662 14.5015C67.2962 14.5015 67.8182 14.299 68.2322 13.894C68.6552 13.48 68.8667 12.94 68.8667 12.274C68.8667 11.608 68.6552 11.0725 68.2322 10.6675C67.8182 10.2535 67.2962 10.0465 66.6662 10.0465C66.0272 10.0465 65.4962 10.2535 65.0732 10.6675ZM69.6227 9.466C70.4507 10.204 70.8647 11.14 70.8647 12.274C70.8647 13.408 70.4507 14.344 69.6227 15.082C68.7947 15.82 67.8092 16.189 66.6662 16.189C65.5232 16.189 64.5377 15.82 63.7097 15.082C62.8817 14.344 62.4677 13.408 62.4677 12.274C62.4677 11.14 62.8817 10.204 63.7097 9.466C64.5377 8.728 65.5232 8.359 66.6662 8.359C67.8092 8.359 68.7947 8.728 69.6227 9.466ZM72.0666 16V8.5345H79.0191V10.33H74.0511V11.4775H78.4251V13.273H74.0511V16H72.0666ZM83.728 10.303L82.54 13.1785H85.1725L84.0385 10.303H83.728ZM82.459 8.5345H85.348L88.5205 16H86.4145L85.942 14.9065H81.811L81.352 16H79.219L82.459 8.5345ZM92.9836 8.5345H95.2651L97.4386 12.274H97.4926L99.5716 8.5345H101.853L98.3836 14.137V16H96.4261V14.137L92.9836 8.5345ZM102.89 8.5345H109.761V10.33H104.874V11.3155H109.262V13.111H104.874V14.164H109.937V16H102.89V8.5345ZM111.13 8.5345H115.544C116.453 8.5345 117.2 8.8135 117.785 9.3715C118.37 9.9205 118.663 10.6315 118.663 11.5045C118.663 12.6025 118.213 13.4215 117.313 13.9615L118.447 16H116.287L115.436 14.407H113.114V16H111.13V8.5345ZM113.114 10.3435V12.598H115.463C115.823 12.598 116.111 12.5035 116.327 12.3145C116.552 12.1255 116.665 11.8555 116.665 11.5045C116.665 11.1535 116.552 10.8745 116.327 10.6675C116.111 10.4515 115.823 10.3435 115.463 10.3435H113.114Z" fill="#14151A"/>
</svg>

