<svg width="1456" height="546" viewBox="0 0 1456 546" fill="none" xmlns="http://www.w3.org/2000/svg">
<path d="M1342.62 45.3054C1343.17 46.1323 1343.58 47.0202 1343.82 47.9602C1345.09 53.6093 1345.01 59.2584 1344.45 64.9945C1344.22 82.6816 1344.09 100.395 1344.26 118.091C1344.32 123.13 1344.15 127.918 1344.59 132.879C1345.24 139.207 1344.99 145.657 1345.12 152.037C1344.96 161.943 1346.59 172.118 1347.66 181.884C1347.78 185.897 1348.01 189.84 1348.46 193.826C1349.12 199.78 1349.1 205.682 1350.19 211.574C1350.1 218.259 1351.52 224.674 1352.24 231.281C1352.98 236.643 1353.32 242.039 1354.22 247.384C1356.67 240.551 1354.62 233.762 1356.26 226.65C1356.92 232.9 1355.63 238.949 1355.79 245.182C1355.81 249.386 1355.12 253.337 1355.4 257.533C1356.25 267.882 1358.37 277.64 1360.06 287.824C1360.81 292.045 1361.38 296.258 1362.38 300.428C1362.98 304.997 1363.51 309.515 1363.15 314.137C1360.03 312.135 1359.13 309.088 1357.34 306.077C1354.56 310.211 1353.47 314.816 1349.67 318.297C1349.54 315.39 1348.99 312.561 1348.19 309.776C1343.85 294.073 1340.06 278.258 1337.43 262.172C1336.3 255.923 1335.63 249.621 1334.4 243.423C1333.63 239.324 1331.91 235.555 1331.22 231.429L1333.19 232.212C1332.89 225.736 1331.71 219.382 1331.09 212.932C1330.2 204.489 1329.75 195.994 1328.84 187.551C1328.39 183.103 1328.64 178.637 1328.16 174.19C1327.45 167.966 1327.93 161.742 1327.29 155.519C1326.8 150.322 1326.99 145.178 1326.94 139.851C1326.98 134.559 1326.78 129.45 1327.3 124.175C1328.26 110.204 1329.26 96.2863 1331.19 82.403C1332.43 73.0198 1333.74 63.4799 1336.16 54.3144C1336.95 51.5899 1337.83 48.2823 1339.73 46.0975C1340.54 44.9834 1341.41 45.2358 1342.62 45.3054Z" fill="#CDCB63"/>
<path d="M1305.68 103.024C1308.41 108.508 1308.35 113.896 1309.23 119.797C1311.58 138.659 1314.81 157.365 1318.4 176.035C1318.08 177.942 1317.69 179.839 1317.28 181.737C1315.9 177.35 1315.02 172.858 1313.76 168.436C1312.74 169.516 1311.8 170.848 1310.55 171.683C1309.33 171.744 1308.08 171.553 1306.86 171.431C1307.17 170.378 1307.48 169.316 1307.79 168.254C1306.75 168.08 1305.71 167.906 1304.67 167.749C1303.94 171.57 1305.04 175.182 1304.61 179.003C1304.33 181.623 1303.88 184.2 1303.8 186.837C1301.73 173.842 1300.12 160.812 1299.1 147.694C1298.86 138.407 1298.75 129.111 1299 119.832C1299.31 113.861 1300.01 108.142 1302.78 102.771C1303.75 102.841 1304.72 102.919 1305.68 103.024Z" fill="#7B8A3F"/>
<path d="M1362.96 120.763C1366.11 124.314 1367.06 128.536 1367.96 133.053C1368.15 135.073 1368.21 137.118 1368.27 139.137C1367.72 138.293 1367.17 137.449 1366.63 136.604C1366.62 138.511 1366.73 140.53 1366.34 142.41C1365.07 143.829 1363.02 144.656 1361.5 145.831C1360.67 145.857 1359.84 145.875 1359.01 145.883C1358.67 138.467 1359.74 131.243 1360.22 123.879C1360.87 122.695 1362 121.685 1362.96 120.763Z" fill="#7F8F3B"/>
<path d="M1360.22 123.879C1359.74 131.243 1358.66 138.467 1359.01 145.883C1359.09 146.963 1359.19 148.033 1359.33 149.095L1359.61 150.94C1360.9 150.444 1362.17 149.922 1363.45 149.426C1365.16 153.386 1363.12 156.677 1361.57 160.263C1360.73 162.256 1359.1 163.214 1357.38 164.371C1357.22 159.183 1358.41 154.152 1358.12 148.973C1357.96 143.533 1357.95 138.093 1358.39 132.662C1358.68 129.572 1358.8 126.708 1360.22 123.879Z" fill="#C9C989"/>
<path d="M1367.96 133.053C1368.78 137.849 1369.45 142.706 1370.15 147.52C1370.23 150.793 1369.72 153.987 1369.08 157.181C1367.34 154.457 1365.59 151.741 1363.79 149.043C1362.31 149.06 1360.82 149.078 1359.33 149.095C1359.19 148.033 1359.09 146.963 1359.01 145.883C1359.84 145.875 1360.67 145.857 1361.5 145.831C1363.02 144.656 1365.06 143.829 1366.34 142.41C1366.72 140.53 1366.62 138.511 1366.63 136.605C1367.17 137.449 1367.72 138.293 1368.27 139.137C1368.21 137.118 1368.15 135.073 1367.96 133.053Z" fill="#708133"/>
<path d="M1370.15 147.52C1371.9 162.073 1372.8 176.6 1373.74 191.206C1373.83 203.392 1373.93 215.578 1373.9 227.764C1373.93 234.179 1373.4 240.525 1373.96 246.94C1374.27 245.651 1374.56 244.363 1374.85 243.075C1375.86 248.628 1372.34 252.371 1372.07 257.707C1371.8 262.703 1371.01 267.665 1370.98 272.669C1374.16 268.613 1373.93 263.321 1377.44 259.308C1375.73 266.402 1372.67 273 1370.69 280.025C1369.16 284.89 1368.74 289.939 1367.13 294.77C1366.39 297.25 1365.27 299.87 1365.11 302.456C1365.11 305.032 1365.82 307.652 1366.24 310.194C1365.58 310.167 1364.92 310.15 1364.25 310.133C1364.23 306.668 1364 303.552 1362.38 300.427C1361.38 296.258 1360.81 292.045 1360.07 287.824C1358.37 277.64 1356.26 267.882 1355.41 257.533C1355.12 253.337 1355.81 249.386 1355.79 245.181C1355.63 238.949 1356.92 232.9 1356.27 226.65L1356.28 226.11C1356.76 211.87 1356.47 197.604 1356.61 183.364C1357.11 177.036 1357.29 170.725 1357.39 164.371C1359.11 163.213 1360.74 162.256 1361.58 160.263C1363.13 156.676 1365.16 153.386 1363.46 149.426C1362.17 149.922 1360.9 150.444 1359.61 150.94L1359.34 149.095C1360.82 149.078 1362.31 149.06 1363.8 149.043C1365.59 151.741 1367.34 154.457 1369.08 157.181C1369.73 153.987 1370.23 150.792 1370.15 147.52Z" fill="#879545"/>
<path d="M1358.12 148.974C1358.41 154.153 1357.22 159.184 1357.39 164.371C1357.29 170.726 1357.11 177.036 1356.61 183.364C1356.46 197.604 1356.76 211.871 1356.27 226.111C1356.25 222.594 1356.14 219.095 1356.2 215.579C1356.22 208.859 1356.98 202.644 1354.64 196.159C1354.31 197.892 1353.99 199.624 1353.68 201.356C1352.92 200.973 1352.14 200.581 1351.37 200.198C1351.04 197.961 1350.71 195.724 1350.32 193.496C1349.76 199.537 1350.64 205.525 1350.19 211.574C1349.1 205.682 1349.12 199.78 1348.46 193.826C1348.01 189.84 1347.78 185.897 1347.66 181.884C1348.45 182.032 1349.24 182.18 1350.02 182.328C1351.24 175.713 1351.65 169.115 1352.3 162.465C1352.9 157.66 1354.65 152.473 1358.12 148.974Z" fill="#F8F0CC"/>
<path d="M1405.25 165.929C1405.36 172.614 1405.04 179.343 1404.43 186.01C1404.07 190.136 1404.6 194.462 1403.83 198.518C1403.48 200.564 1401.96 201.573 1400.63 203.001C1400.27 200.05 1399.45 197.239 1398.48 194.453C1397.23 190.815 1396.51 187.176 1396.01 183.373C1392.85 186.558 1389.92 189.953 1388.49 194.288C1387.57 197.073 1386.63 199.85 1385.53 202.574C1386.13 198.666 1387.18 194.915 1388.3 191.137C1390.33 183.146 1392.1 175.095 1394.06 167.087C1394.67 164.954 1395.27 162.274 1396.81 160.611C1400.04 159.105 1405.62 162.117 1405.25 165.929Z" fill="#E5CE87"/>
<path d="M1304.67 167.749C1305.71 167.906 1306.75 168.08 1307.79 168.254C1307.48 169.316 1307.17 170.378 1306.86 171.431C1308.08 171.553 1309.33 171.744 1310.55 171.683C1311.8 170.848 1312.74 169.516 1313.76 168.436C1315.02 172.858 1315.9 177.35 1317.28 181.737C1317.69 179.839 1318.08 177.942 1318.4 176.035C1322.32 194.575 1327.19 212.915 1331.22 231.429C1331.91 235.555 1333.63 239.324 1334.4 243.423C1335.63 249.621 1336.3 255.923 1337.43 262.172C1340.06 278.258 1343.85 294.073 1348.19 309.776C1348.99 312.561 1349.54 315.39 1349.67 318.297L1348.13 320.004C1346.4 314.685 1345.21 309.236 1343.36 303.962C1336.89 285.291 1330.26 266.124 1321.43 248.428C1318.51 242.779 1316.02 236.93 1313.19 231.246C1310.83 223.865 1309.44 216.127 1307.63 208.589C1305.85 201.408 1305.01 194.131 1303.8 186.837C1303.88 184.2 1304.33 181.623 1304.61 179.003C1305.04 175.182 1303.94 171.57 1304.67 167.749Z" fill="#849343"/>
<path d="M1396.01 183.373C1396.51 187.176 1397.23 190.815 1398.48 194.453C1399.56 200.842 1399.55 207.136 1396.76 213.116C1393.34 219.705 1390.99 226.729 1387.71 233.37C1383.7 241.814 1380.3 250.413 1377.44 259.309C1373.93 263.322 1374.16 268.614 1370.98 272.67C1371.01 267.665 1371.8 262.704 1372.07 257.707C1372.34 252.372 1375.85 248.629 1374.85 243.076C1377.87 229.419 1381.77 216.031 1385.53 202.574C1386.63 199.85 1387.57 197.073 1388.49 194.288C1389.92 189.953 1392.85 186.558 1396.01 183.373Z" fill="#81913F"/>
<path d="M1424.76 195.394C1424.3 195.959 1423.83 196.525 1423.39 197.1C1425.43 200.329 1427.23 203.593 1428.07 207.362C1426.5 206.283 1425.03 205.107 1423.57 203.889C1421.7 205.099 1420.01 206.135 1417.71 206.196C1417.21 206.692 1416.73 207.214 1416.23 207.719C1416.95 208.215 1417.63 208.746 1418.3 209.303L1418.7 209.834C1418.03 209.869 1417.38 209.912 1416.73 209.947C1412.53 217.206 1408.92 224.779 1404.92 232.143L1404.87 232.213C1403.51 234.049 1402.16 235.851 1400.71 237.609C1399.71 238.053 1398.71 238.471 1397.7 238.889C1398.19 236.913 1398.6 234.806 1399.49 232.97C1400.18 231.83 1401.57 231.081 1402.63 230.289C1402.43 229.358 1402.24 228.418 1402.05 227.486C1401.06 227.686 1400.07 227.887 1399.08 228.087C1398.52 227.678 1397.96 227.277 1397.4 226.868C1399.37 224.997 1401.41 223.456 1403.89 222.325C1403.77 220.383 1403.48 218.773 1402.64 217.015C1401.67 218.059 1400.71 219.121 1399.75 220.175C1399.31 218.033 1398.95 215.866 1398.42 213.733C1397.87 213.525 1397.31 213.316 1396.76 213.116C1399.55 207.136 1399.56 200.842 1398.48 194.453C1399.45 197.239 1400.27 200.05 1400.64 203.001C1400.72 204.376 1400.8 205.752 1400.86 207.127C1402.33 204.089 1403.69 201.112 1405.9 198.518C1408.04 195.951 1409.9 193.2 1413.21 192.051C1417.47 190.702 1421.75 192.225 1424.76 195.394Z" fill="#8E9E4A"/>
<path d="M1350.32 193.496C1350.7 195.724 1351.03 197.961 1351.37 200.198C1352.14 200.581 1352.91 200.973 1353.68 201.356C1353.99 199.624 1354.3 197.892 1354.63 196.16C1356.97 202.644 1356.22 208.859 1356.2 215.579C1356.14 219.095 1356.25 222.594 1356.27 226.111L1356.26 226.651C1354.62 233.762 1356.67 240.551 1354.22 247.384C1353.32 242.04 1352.97 236.643 1352.23 231.281C1351.51 224.675 1350.1 218.26 1350.18 211.575C1350.63 205.525 1349.76 199.537 1350.32 193.496Z" fill="#FEFEFE"/>
<path d="M1424.76 195.394C1430.29 200.79 1431.71 207.78 1433.75 214.917C1437.6 228.391 1438.75 242.458 1445.18 255.096C1447.63 259.918 1451.02 263.583 1455.58 266.473C1455.5 267.099 1455.42 267.717 1455.34 268.335C1449.15 267.918 1444.42 264.279 1440.78 259.509C1435.59 252.607 1431.95 244.251 1429.31 236.069C1426.25 226.851 1424.06 218.094 1418.7 209.834L1418.3 209.303C1417.63 208.746 1416.95 208.215 1416.23 207.719C1416.73 207.214 1417.21 206.692 1417.71 206.196C1420.01 206.135 1421.7 205.099 1423.57 203.889C1425.03 205.107 1426.5 206.283 1428.07 207.362C1427.23 203.593 1425.43 200.329 1423.39 197.1C1423.83 196.525 1424.3 195.959 1424.76 195.394Z" fill="#849143"/>
<path d="M1286.44 199.719C1290.61 199.954 1293.75 202.6 1296.47 205.525C1302.71 212.567 1306.55 221.375 1311.54 228.809C1311.14 230.184 1310.75 231.568 1310.35 232.943C1307.82 227.573 1305.39 222.342 1301.26 217.955C1301.89 221.306 1302.8 224.431 1302.23 227.878C1301.36 225.258 1301.22 224.344 1298.61 223.099C1298.41 223.656 1298.21 224.213 1298.01 224.77C1296.71 224.561 1295.4 224.701 1294.1 224.483C1295.05 227.338 1296.19 229.653 1297.88 232.134C1300.38 231.507 1302.84 230.759 1305.25 229.801C1305.81 230.837 1306.59 231.925 1306.81 233.091C1307.44 237.226 1307.31 241.186 1307.21 245.303C1307.09 248.611 1308.36 252.093 1309.04 255.34C1308.51 255.888 1307.99 256.436 1307.46 256.993C1301.46 245.068 1295.61 233.326 1288.89 221.776C1288.05 220.131 1287.14 220.348 1285.54 220.131C1283.26 229.192 1280.65 238.166 1278.65 247.297C1276.53 255.94 1274.85 265.628 1270.12 273.244C1267.45 277.44 1264.74 281.287 1259.59 282.497C1260.55 280.382 1261.64 278.327 1262.72 276.282C1265.53 271.016 1266.64 264.54 1267.49 258.673C1269.16 246.331 1269.48 233.387 1271.91 220.862C1273.01 215.674 1274.75 210.452 1277.5 205.899C1279.63 202.6 1282.26 199.876 1286.44 199.719Z" fill="#CBC75E"/>
<path d="M1398.42 213.733C1398.95 215.866 1399.31 218.033 1399.75 220.174C1400.71 219.121 1401.67 218.059 1402.63 217.015C1403.48 218.773 1403.77 220.383 1403.89 222.324C1401.41 223.456 1399.36 224.997 1397.4 226.868C1397.96 227.277 1398.52 227.677 1399.08 228.087C1400.07 227.886 1401.06 227.686 1402.05 227.486C1402.24 228.417 1402.42 229.357 1402.62 230.289C1401.57 231.081 1400.18 231.829 1399.49 232.97C1398.6 234.806 1398.19 236.913 1397.69 238.889C1398.7 238.471 1399.7 238.053 1400.7 237.609C1393.9 245.808 1389.03 255.078 1385.3 265.027C1381.12 273.758 1378.44 282.941 1375.8 292.228C1373.56 299.096 1372.08 306.155 1370.8 313.258C1370.51 314.938 1370.42 316.609 1370.37 318.315C1370.28 319.516 1370.18 320.717 1370.09 321.91C1369.46 321.936 1368.84 321.953 1368.21 321.979C1367.15 320.03 1365.75 318.341 1364.36 316.626C1363.94 316.052 1363.52 315.486 1363.1 314.912C1363.11 314.651 1363.13 314.398 1363.15 314.137C1363.51 309.515 1362.98 304.997 1362.38 300.428C1364 303.552 1364.23 306.669 1364.24 310.133C1364.91 310.15 1365.57 310.168 1366.24 310.194C1365.82 307.652 1365.11 305.032 1365.11 302.456C1365.27 299.871 1366.38 297.251 1367.12 294.77C1368.73 289.939 1369.16 284.891 1370.69 280.025C1372.66 273.001 1375.73 266.403 1377.43 259.309C1380.3 250.413 1383.7 241.813 1387.71 233.37C1390.99 226.729 1393.34 219.704 1396.76 213.115C1397.31 213.315 1397.87 213.524 1398.42 213.733Z" fill="#96A54F"/>
<path d="M1301.26 217.955C1305.39 222.342 1307.81 227.573 1310.34 232.944C1310.74 231.569 1311.14 230.185 1311.54 228.809C1312.09 229.61 1312.66 230.419 1313.19 231.246C1316.02 236.93 1318.51 242.779 1321.43 248.428C1330.26 266.124 1336.89 285.291 1343.36 303.962C1345.21 309.236 1346.4 314.685 1348.13 320.004C1347.49 320.709 1346.84 321.414 1346.19 322.119C1344.79 319.02 1343.88 315.678 1342.31 312.675C1340.83 310.02 1338.44 308.95 1335.87 307.635C1336.47 312.527 1337.05 317.105 1335.38 321.875C1335.61 317.819 1335.92 313.58 1335.26 309.55C1334.38 306.356 1331.92 303.527 1330.31 300.637C1324.6 290.801 1318.93 280.957 1314.16 270.755C1312 266.125 1309.79 261.537 1307.46 256.994C1307.99 256.437 1308.51 255.888 1309.04 255.34C1308.36 252.093 1307.08 248.612 1307.21 245.304C1307.31 241.187 1307.44 237.226 1306.81 233.092C1306.59 231.925 1305.81 230.837 1305.25 229.802C1302.84 230.759 1300.38 231.508 1297.88 232.134C1296.19 229.654 1295.05 227.338 1294.1 224.483C1295.4 224.701 1296.71 224.562 1298.01 224.771C1298.21 224.213 1298.41 223.656 1298.61 223.099C1301.21 224.344 1301.36 225.258 1302.23 227.878C1302.8 224.431 1301.88 221.306 1301.26 217.955Z" fill="#CDCC65"/>
<path d="M1404.87 232.212L1404.92 232.143C1409.47 233.352 1413.57 233.544 1416.43 237.783C1420.34 243.832 1420.1 253.033 1420.08 259.97C1420.28 272.409 1417.86 283.855 1419.27 296.397C1419.87 299.688 1420.78 302.908 1421.36 306.207C1419.33 304.249 1417.58 302.134 1416.51 299.487C1411.69 288.363 1411.42 275.351 1410.77 263.443C1410.15 258.76 1410.36 252.833 1407.76 248.776C1401.61 256.488 1398.1 265.288 1393.21 273.758C1388.18 282.601 1384.71 292.246 1379.34 300.854C1377.08 305.467 1373.44 308.932 1370.8 313.258C1372.08 306.155 1373.56 299.096 1375.8 292.228C1378.44 282.941 1381.12 273.758 1385.3 265.027C1389.03 255.078 1393.9 245.808 1400.7 237.609C1402.16 235.851 1403.51 234.049 1404.87 232.212Z" fill="#CDCC62"/>
<path d="M1379.34 300.854C1377.98 303.387 1378.16 305.937 1378.14 308.705C1378.18 317.183 1376.83 325.774 1383.18 332.52C1381.86 332.659 1380.55 332.799 1379.24 332.947C1388.56 344.393 1401.02 350.886 1411.15 361.427C1420.59 371.541 1427.48 383.745 1429.86 397.48C1431.43 407.542 1431.33 418.196 1428.24 427.971C1425.56 438.094 1419.68 447.382 1412.23 454.667C1406.51 459.559 1400.23 464.268 1393.24 467.158C1396.77 463.319 1400.9 460.273 1404.03 456.042C1412.57 445.467 1417.06 432.654 1418.64 419.249C1420.22 409.623 1417.96 400.213 1415.64 390.856C1411.27 376.39 1403.02 363.037 1392.53 352.2C1388.51 348.083 1384.58 343.897 1380.87 339.501C1377.87 335.932 1374.53 331.963 1372.91 327.541C1371.65 324.112 1373.35 320.708 1370.37 318.315C1370.42 316.609 1370.51 314.938 1370.8 313.258C1373.44 308.932 1377.08 305.467 1379.34 300.854Z" fill="#CD9B52"/>
<path d="M1357.34 306.077C1359.13 309.088 1360.03 312.135 1363.15 314.137C1363.13 314.398 1363.11 314.651 1363.1 314.912C1362.09 316.618 1360.97 317.862 1361.46 319.986C1363.08 328.76 1365.71 337.029 1368.17 345.559C1367.34 344.306 1366.44 343.105 1365.56 341.903C1365.1 346.473 1366.46 350.216 1368.02 354.394C1365.61 352.584 1363.87 350.242 1361.98 347.935C1360.27 345.864 1358.07 344.671 1355.79 343.366C1353.49 341.973 1351.17 340.572 1348.76 339.388C1347.85 341.294 1346.99 343.209 1346.1 345.124C1345.48 343.609 1344.84 342.095 1344.14 340.615C1340.11 341.207 1336.19 342.217 1332.26 343.27C1332.15 342.365 1332.04 341.451 1331.93 340.546C1328.01 342.269 1324.92 344.854 1321.76 347.666C1321 348.214 1320.25 348.762 1319.48 349.319C1313.61 352.079 1310.09 356.831 1305.41 361.096C1306.59 359.051 1307.76 357.014 1309.08 355.056C1307.33 356.413 1305.52 357.606 1303.57 358.659C1304 357.188 1303.88 355.465 1305.15 354.455C1307.82 351.905 1311.34 350.172 1314.06 347.683C1315.37 346.551 1315.59 345.011 1316.13 343.444C1320.56 340.224 1325.53 337.351 1329.46 333.53C1332.79 330.283 1334.16 326.245 1335.38 321.875C1337.05 317.105 1336.47 312.527 1335.87 307.635C1338.44 308.95 1340.83 310.02 1342.31 312.675C1343.88 315.678 1344.79 319.02 1346.19 322.119C1346.84 321.414 1347.49 320.709 1348.13 320.004L1349.67 318.297C1353.47 314.816 1354.56 310.211 1357.34 306.077Z" fill="#C9984F"/>
<path d="M1363.1 314.912C1363.52 315.486 1363.94 316.052 1364.36 316.626C1364.35 318.942 1364.24 321.205 1364.74 323.494C1367.45 335.489 1371.22 347.17 1375.56 358.659C1380.67 374.214 1383.05 390.029 1384.28 406.315C1384.98 417.7 1384.15 429.016 1382.43 440.271C1381.36 447.321 1379.41 454.319 1376.77 460.943C1374.85 465.8 1371.76 469.439 1368.91 473.721C1377.21 473.643 1385.49 469.969 1391.82 464.721C1397.66 460.203 1402.41 454.189 1406.26 447.93C1410.37 440.575 1414.12 432.515 1415.49 424.15C1417.48 412.53 1416.41 400.344 1412.88 389.124C1409.51 379.123 1404.37 369.905 1398.12 361.427C1393.56 355.578 1387.76 350.93 1382.99 345.176C1379.36 340.798 1375.11 336.507 1372.22 331.624C1370.37 328.56 1369.44 325.296 1368.21 321.979C1368.84 321.953 1369.46 321.936 1370.09 321.91C1370.18 320.717 1370.28 319.516 1370.37 318.315C1373.35 320.709 1371.65 324.112 1372.9 327.542C1374.53 331.963 1377.87 335.932 1380.87 339.501C1384.58 343.897 1388.5 348.084 1392.53 352.201C1403.02 363.038 1411.27 376.39 1415.64 390.856C1417.95 400.213 1420.22 409.623 1418.64 419.25C1417.06 432.654 1412.57 445.467 1404.03 456.043C1400.9 460.273 1396.77 463.319 1393.23 467.158C1400.22 464.268 1406.51 459.559 1412.22 454.667C1419.68 447.382 1425.55 438.094 1428.24 427.971C1431.33 418.196 1431.43 407.542 1429.86 397.48C1427.47 383.745 1420.59 371.542 1411.15 361.427C1401.02 350.886 1388.56 344.393 1379.24 332.947C1380.55 332.799 1381.86 332.66 1383.17 332.52C1385.35 334.844 1387.82 336.829 1390.47 338.587C1399.43 344.584 1408.33 349.729 1416.21 357.214C1429.82 369.644 1439.44 385.93 1441.5 404.452C1441.96 412.077 1441.87 419.624 1439.86 427.049C1436 441.132 1427.75 454.049 1415.98 462.788C1406.04 470.466 1394.32 474.739 1381.99 476.646C1380.63 476.002 1379.12 475.401 1377.61 475.262C1369.1 474.757 1360.97 476.384 1352.5 475.714C1345.45 475.558 1338.38 475.296 1331.34 475.558C1319.08 473.956 1306.6 469.639 1296.78 461.97C1285.29 453.336 1277.07 440.41 1273.78 426.439C1272.25 420.616 1272.66 413.966 1272.63 407.943C1272.48 399.134 1275.31 390.108 1278.9 382.135C1287.16 365.309 1300.88 353.733 1316.13 343.444C1315.59 345.011 1315.37 346.551 1314.06 347.683C1311.34 350.172 1307.82 351.905 1305.15 354.455C1303.88 355.465 1304 357.188 1303.57 358.659C1305.52 357.606 1307.33 356.413 1309.08 355.056C1307.76 357.014 1306.59 359.051 1305.41 361.096C1304.89 361.897 1304.39 362.698 1303.88 363.499C1300.9 366.789 1297.63 369.348 1295.18 373.152C1288.87 383.397 1283.91 394.007 1283.15 406.211C1282.28 419.972 1285.73 434.561 1293.7 445.92C1297.94 452.178 1303.65 457.662 1309.96 461.787C1315.25 464.999 1320.76 467.802 1325.98 471.145C1328.55 472.833 1331.42 473.521 1334.43 473.956C1330.52 470.701 1325.99 468.655 1322.3 465.173C1315.87 459.254 1311 451.482 1307.3 443.622C1302.91 432.915 1300.56 421.26 1300.48 409.684C1300.69 404 1300.91 397.698 1303.02 392.388C1303.59 394.016 1304.39 395.33 1304.1 397.115C1301.27 411.59 1303.58 427.214 1309.26 440.758C1313.37 451.473 1320.64 462.127 1330.56 468.211C1335.08 471.023 1338.49 474.295 1344.18 474.191C1341.82 470.231 1338.65 467.132 1336.62 462.997C1334.29 458.358 1332.6 453.318 1331.22 448.322C1328.37 437.694 1326.78 426.779 1326.94 415.759C1326.98 413.313 1327.46 410.946 1327.99 408.57C1328.51 409.013 1329.02 409.466 1329.53 409.919C1328.71 423.872 1329.88 437.729 1334.81 450.898C1337.66 459.281 1340.01 468.255 1348.06 473.234C1351.84 474.574 1356.32 474.722 1360.34 474.618C1364.83 474.478 1368.49 469.7 1370.64 466.209C1376.81 456.182 1379 445.476 1380.97 434.047C1383.03 421.417 1383.7 408.091 1381.68 395.426C1379.09 378.348 1374.69 361.566 1368.17 345.559C1365.71 337.029 1363.08 328.76 1361.46 319.986C1360.97 317.862 1362.09 316.618 1363.1 314.912Z" fill="#C38F47"/>
<path d="M1364.36 316.626C1365.75 318.341 1367.15 320.03 1368.21 321.98C1369.45 325.296 1370.38 328.56 1372.22 331.624C1375.11 336.507 1379.37 340.798 1382.99 345.176C1387.76 350.93 1393.57 355.578 1398.12 361.427C1404.37 369.905 1409.51 379.123 1412.89 389.124C1416.42 400.344 1417.48 412.53 1415.49 424.15C1414.12 432.515 1410.37 440.575 1406.26 447.93C1402.41 454.189 1397.66 460.203 1391.83 464.721C1385.5 469.97 1377.21 473.643 1368.91 473.721C1371.76 469.439 1374.85 465.8 1376.78 460.943C1379.41 454.319 1381.36 447.321 1382.43 440.271C1384.15 429.016 1384.98 417.7 1384.28 406.315C1383.05 390.03 1380.67 374.214 1375.56 358.659C1371.22 347.17 1367.45 335.489 1364.74 323.494C1364.25 321.205 1364.35 318.942 1364.36 316.626Z" fill="#CE9C51"/>
<path d="M1348.76 339.388C1351.17 340.572 1353.49 341.973 1355.79 343.366C1361.03 349.041 1366.31 354.394 1368.76 361.932C1370.85 368.913 1372.43 376.059 1370.45 383.275C1368.58 391.231 1363.41 398.046 1356.55 402.39C1348.28 407.882 1339.76 409.91 1329.86 408.857C1329.86 398.873 1332.28 388.628 1333.73 378.784C1332.77 380.446 1331.82 382.013 1331.29 383.893C1329.18 392.153 1328.6 400.51 1327.15 408.848C1319.77 407.83 1312.82 404.226 1307.71 398.812C1306.21 397.08 1304.36 394.913 1304.97 392.449C1305.74 388.707 1307.19 385.251 1307.26 381.351C1305.38 384.529 1304.46 387.967 1302.94 391.309C1300.14 387.201 1299.3 382.379 1299.35 377.478C1299.62 372.682 1301.94 367.842 1303.88 363.499C1304.39 362.698 1304.89 361.897 1305.41 361.096C1310.09 356.831 1313.61 352.079 1319.48 349.319C1316.99 351.948 1313.53 353.924 1312.76 357.58C1311.97 360.426 1309.91 362.481 1308.9 365.188C1308.08 367.808 1308.21 370.828 1308.09 373.552C1312.02 369.566 1313.85 364.691 1317.02 360.165C1320.32 355.012 1324.52 350.573 1327.64 345.324C1325.65 346.03 1323.67 346.769 1321.76 347.666C1324.92 344.854 1328.01 342.269 1331.93 340.546C1332.04 341.451 1332.15 342.365 1332.26 343.27C1336.19 342.217 1340.11 341.207 1344.14 340.615C1344.84 342.095 1345.48 343.609 1346.1 345.124C1346.99 343.209 1347.85 341.294 1348.76 339.388Z" fill="#D6AB60"/>
<path d="M1365.56 341.903C1366.44 343.105 1367.34 344.306 1368.17 345.559C1374.69 361.566 1379.09 378.348 1381.68 395.426C1383.7 408.091 1383.04 421.417 1380.97 434.047C1379 445.475 1376.81 456.182 1370.64 466.209C1368.49 469.699 1364.83 474.478 1360.34 474.617C1356.32 474.722 1351.85 474.574 1348.06 473.233C1340.01 468.254 1337.66 459.28 1334.81 450.898C1329.88 437.729 1328.71 423.871 1329.53 409.918C1329.02 409.466 1328.51 409.013 1328 408.569C1327.46 410.946 1326.98 413.313 1326.94 415.759C1326.78 426.779 1328.37 437.694 1331.22 448.322C1332.6 453.318 1334.29 458.358 1336.62 462.997C1338.65 467.132 1341.82 470.23 1344.18 474.191C1338.49 474.295 1335.08 471.022 1330.56 468.211C1320.64 462.127 1313.37 451.473 1309.26 440.758C1303.58 427.214 1301.27 411.59 1304.1 397.115C1304.39 395.33 1303.59 394.016 1303.02 392.388C1300.91 397.698 1300.69 404 1300.48 409.683C1300.56 421.26 1302.91 432.915 1307.3 443.621C1311.01 451.481 1315.87 459.254 1322.3 465.173C1326 468.655 1330.52 470.7 1334.43 473.956C1331.42 473.521 1328.55 472.833 1325.98 471.144C1320.76 467.802 1315.25 464.999 1309.96 461.787C1303.65 457.661 1297.94 452.178 1293.7 445.919C1285.73 434.56 1282.29 419.972 1283.15 406.21C1283.91 394.007 1288.87 383.397 1295.18 373.152C1297.63 369.348 1300.9 366.789 1303.88 363.499C1301.94 367.842 1299.62 372.682 1299.35 377.478C1299.3 382.379 1300.14 387.201 1302.94 391.309C1304.46 387.967 1305.38 384.529 1307.26 381.351C1307.19 385.251 1305.74 388.707 1304.97 392.449C1304.36 394.913 1306.21 397.08 1307.71 398.812C1312.82 404.226 1319.77 407.83 1327.15 408.848C1328.6 400.51 1329.18 392.153 1331.29 383.893C1331.82 382.013 1332.77 380.446 1333.73 378.784C1332.28 388.628 1329.86 398.873 1329.86 408.857C1339.76 409.91 1348.28 407.882 1356.55 402.39C1363.41 398.046 1368.58 391.231 1370.45 383.275C1372.43 376.059 1370.85 368.913 1368.76 361.932C1366.31 354.394 1361.03 349.041 1355.79 343.366C1358.07 344.671 1360.27 345.864 1361.98 347.935C1363.87 350.242 1365.61 352.584 1368.02 354.394C1366.46 350.216 1365.1 346.473 1365.56 341.903Z" fill="#CD9A51"/>
<path d="M1335.96 343.244C1338.21 342.922 1340.6 343.131 1342.87 343.244C1343.29 343.897 1343.67 344.567 1344.03 345.237C1341.22 352.227 1338.72 359.329 1336.66 366.58C1335.59 370.027 1334.64 373.822 1332.77 376.938C1331.99 378.392 1330.51 378.357 1329.06 378.609C1322.95 379.132 1316.7 378.592 1310.68 377.495C1312.36 371.489 1315.25 366.162 1318.52 360.905C1321.92 355.7 1325.53 350.529 1330.24 346.421C1331.89 345.011 1333.76 343.592 1335.96 343.244Z" fill="#E0C081"/>
<path d="M1327.64 345.324C1324.52 350.573 1320.32 355.012 1317.02 360.165C1313.85 364.691 1312.02 369.566 1308.09 373.552C1308.21 370.828 1308.09 367.807 1308.9 365.187C1309.91 362.48 1311.97 360.426 1312.76 357.58C1313.53 353.924 1316.99 351.948 1319.48 349.319C1320.25 348.762 1321.01 348.214 1321.76 347.666C1323.68 346.769 1325.65 346.029 1327.64 345.324Z" fill="#DEBA7B"/>
<path d="M1345.52 345.934C1350.86 351.748 1353.06 360.322 1349.69 367.677C1346.79 373.448 1341.43 376.094 1335.46 377.704C1335.72 375.032 1336.26 372.638 1337.14 370.097C1339.57 362.855 1341.52 355.413 1344.14 348.249C1344.6 347.466 1345.05 346.7 1345.52 345.934Z" fill="#E1C181"/>
<path d="M1331.34 475.558C1338.38 475.297 1345.46 475.558 1352.5 475.714C1360.97 476.385 1369.11 474.757 1377.61 475.262C1379.12 475.401 1380.63 476.002 1381.99 476.646C1384.11 478.065 1385.98 479.692 1387.76 481.538C1385.02 481.633 1382.67 481.25 1380.06 480.45C1378.91 479.805 1377.75 479.17 1376.58 478.543C1375.22 480.537 1375.56 481.572 1376.08 483.757C1375.89 484.079 1375.7 484.401 1375.51 484.732C1374.91 484.262 1374.31 483.792 1373.71 483.331C1371.83 482.956 1369.95 482.547 1368.07 482.164C1368.38 486.125 1371.92 485.716 1374.61 487.596C1372.16 487.605 1370.14 486.647 1367.89 485.829C1366.85 486.647 1366.1 487.883 1365.27 488.91C1366.86 490.503 1368.38 492.105 1370.33 493.28C1369.58 493.602 1368.84 493.933 1368.1 494.281C1366.82 493.245 1365.47 492.392 1363.93 491.809L1361.65 491.669C1361.64 491.286 1361.61 490.912 1361.59 490.538C1360.02 488.78 1358.62 486.9 1357.18 485.046L1355.83 484.723C1355.68 487.465 1355.69 490.233 1355.71 492.975L1354.45 492.383C1353.94 488.031 1353.98 483.705 1353.05 479.396C1350.99 479.884 1350.4 479.544 1349.69 481.807C1349.56 483.191 1349.48 484.593 1349.34 485.977C1345.27 484.027 1342.66 481.364 1339.85 477.934C1338.39 478.465 1336.99 479.092 1335.56 479.701C1334.26 480.249 1333.01 480.85 1331.74 481.442C1329.2 481.494 1326.75 481.903 1324.27 482.434C1325.68 479.1 1328.43 477.438 1331.34 475.558Z" fill="#AA8761"/>
<path d="M1339.85 477.934C1342.66 481.363 1345.27 484.027 1349.34 485.976L1349 486.385C1342.84 487.204 1337.41 489.815 1332.03 492.792C1328.88 494.628 1326.38 497.718 1323.99 500.434C1324.12 499.311 1324.25 498.188 1324.38 497.066C1323.55 496.674 1322.71 496.274 1321.87 495.882C1326.68 493.427 1331.22 490.511 1336.01 488.013C1338.73 486.255 1341.61 485.593 1342.1 481.929C1340.46 482.573 1338.82 483.269 1337.2 483.966C1337.29 484.862 1337.39 485.75 1337.49 486.647C1333.95 486.56 1330.82 486.908 1327.39 487.7L1327.94 485.263C1329.16 483.8 1331.78 484.253 1333.53 483.705C1334.54 482.921 1335.29 481.763 1336.09 480.78C1337.01 480.536 1337.93 480.301 1338.84 480.057C1337.75 479.927 1336.66 479.814 1335.56 479.701C1336.99 479.091 1338.39 478.465 1339.85 477.934Z" fill="#B39C81"/>
<path d="M1353.05 479.396C1353.98 483.705 1353.94 488.031 1354.45 492.383L1355.71 492.975C1357.72 493.81 1359.77 494.515 1361.84 495.194C1361.78 494.019 1361.72 492.844 1361.66 491.669L1363.93 491.808C1364.13 496.909 1366.8 499.964 1369.86 503.785C1366.8 503.576 1365.2 501.514 1363.15 499.625C1361.91 499.599 1360.66 499.616 1359.42 499.607C1359.27 498.78 1359.13 497.953 1358.99 497.127C1357.73 496.744 1356.48 496.361 1355.23 495.986C1354.9 501.74 1358.46 505.065 1362.58 508.364C1365.92 510.975 1369.94 512.498 1372.32 516.102C1374.74 519.305 1373.96 523.953 1372.99 527.557C1372.38 527.705 1371.77 527.853 1371.16 528.001C1371.54 524.902 1372.6 521.124 1371.02 518.26C1369.23 514.883 1366.27 513.177 1363 511.497C1364.02 514.875 1364.48 517.86 1364.31 521.403C1363.71 521.533 1363.12 521.664 1362.53 521.794C1362.32 518.191 1362.06 514.788 1360.59 511.436C1359.58 509.078 1357.4 507.128 1355.65 505.265C1355.78 509.156 1354.75 512.394 1353.39 515.945C1351.77 519.488 1354.67 522.395 1355.95 525.52C1358.47 530.438 1357.86 535.843 1355.53 540.691C1354.92 540.77 1354.3 540.848 1353.69 540.935C1354.56 537.897 1356 534.329 1355.61 531.143C1354.99 527.618 1352.51 524.188 1350.65 521.185C1349.14 522.7 1347.12 524.319 1346.28 526.329C1345.56 528.828 1346.34 531.874 1346.7 534.416C1345.93 533.554 1345.12 532.71 1344.44 531.778C1343.64 528.592 1343.8 525.18 1346.37 522.83C1352 517.408 1353.6 509.582 1353.72 502.044C1350.92 503.559 1350.9 505.892 1350.14 508.642C1349.54 508.59 1348.94 508.529 1348.34 508.468C1348.52 505.213 1349.54 502.41 1350.87 499.477C1352.43 496.038 1352.9 492.409 1353.03 488.666C1349.71 491.06 1345.68 493.923 1343.78 497.64C1341.7 501.94 1341.34 507.676 1338.81 511.932C1338.28 512.716 1336.99 512.925 1336.19 513.36C1337.67 508.277 1339.8 503.446 1341.07 498.293C1337.46 500.687 1334.28 503.341 1333.04 507.676C1331.67 513.073 1331.25 518.879 1330.91 524.423C1330.02 522.795 1328.7 521.359 1328.7 519.427C1328.62 515.658 1329.88 511.776 1330.5 508.059C1328.89 509.138 1326.98 510.244 1325.78 511.793C1324.41 513.943 1323.65 516.502 1322.63 518.844C1322.55 516.607 1322 513.639 1323.06 511.576C1325.48 507.441 1330.3 506.814 1332.67 502.985C1334.33 500.521 1335.85 498.276 1338.66 496.996C1342.23 495.412 1344.54 493.053 1346.83 489.954C1347.87 488.64 1348.91 487.317 1349.94 485.994C1350.67 485.881 1351.4 485.776 1352.13 485.672C1352.14 484.201 1352.15 482.738 1352.17 481.276C1351.34 481.459 1350.52 481.633 1349.69 481.807C1350.4 479.544 1351 479.883 1353.05 479.396Z" fill="#BCAC9A"/>
<path d="M1376.59 478.543C1377.75 479.17 1378.91 479.805 1380.06 480.449C1378.9 480.484 1377.73 480.519 1376.57 480.571C1377.35 481.459 1378.13 482.347 1378.92 483.243C1379.72 482.869 1380.51 482.503 1381.31 482.129C1381.99 482.817 1382.67 483.504 1383.36 484.192C1385.36 484.201 1387.35 484.209 1389.35 484.218C1389.5 485.132 1389.65 486.046 1389.79 486.96C1386.78 486.803 1383.77 486.708 1380.75 486.69C1383.61 489.902 1387.01 491.852 1388.25 495.96C1385.87 494.228 1383.59 492.348 1381.28 490.494C1379.29 488.614 1377.59 486.542 1375.51 484.732C1375.7 484.401 1375.89 484.079 1376.08 483.757C1375.56 481.572 1375.22 480.536 1376.59 478.543Z" fill="#B9A48B"/>
<path d="M1362.28 481.163C1363.95 483.339 1364.82 485.332 1365.44 488.031L1362.79 487.421C1361.27 486.507 1360.95 483.861 1360.59 482.242C1361.1 481.79 1361.66 481.459 1362.28 481.163Z" fill="#E4DDD6"/>
<path d="M1368.07 482.164C1369.95 482.547 1371.83 482.956 1373.72 483.33C1374.32 483.792 1374.92 484.262 1375.51 484.732C1377.59 486.542 1379.29 488.614 1381.28 490.494C1377.83 488.84 1376.07 488.701 1372.46 490.024C1370.87 489.04 1369.29 488.057 1367.68 487.108C1368.38 489.502 1369.28 491.695 1370.86 493.654L1370.33 493.279C1368.38 492.104 1366.86 490.503 1365.27 488.91C1366.1 487.883 1366.86 486.647 1367.89 485.829C1370.14 486.647 1372.16 487.604 1374.61 487.596C1371.93 485.715 1368.38 486.125 1368.07 482.164Z" fill="#DCD3C7"/>
<path d="M1314.38 484.662C1315.75 484.358 1317.13 484.114 1318.53 483.931C1317.97 485.759 1318.13 487.117 1315.96 487.587C1313.97 487.021 1314.51 486.368 1314.38 484.662Z" fill="#C5B8A7"/>
<path d="M1320.62 484.088C1322.35 484.097 1324.06 484.114 1325.77 484.123C1325.16 486.769 1322.91 487.1 1320.76 488.022C1320.71 486.708 1320.67 485.394 1320.62 484.088Z" fill="#BBAC97"/>
<path d="M1355.83 484.723L1357.17 485.045C1358.62 486.899 1360.02 488.779 1361.59 490.538C1361.61 490.912 1361.63 491.286 1361.65 491.669C1361.71 492.844 1361.77 494.019 1361.83 495.194C1359.77 494.515 1357.71 493.81 1355.7 492.975C1355.69 490.233 1355.68 487.465 1355.83 484.723Z" fill="#FEFDFE"/>
<path d="M1343.55 490.416C1344.64 490.242 1345.73 490.094 1346.83 489.955C1344.54 493.053 1342.23 495.412 1338.66 496.996C1338.8 495.995 1338.95 494.994 1339.1 493.993C1340.58 492.775 1342 491.548 1343.55 490.416Z" fill="#C6BBB6"/>
<path d="M1370.33 493.28L1370.86 493.654C1373.47 495.246 1375.92 497.031 1378.67 498.389C1381.37 499.799 1383.84 501.104 1385.38 503.872C1387.55 507.972 1388.72 513.247 1386.35 517.538C1385.51 514.396 1385.37 511.114 1384.61 507.972C1383.41 504.064 1380.45 502.201 1377.28 500.008C1377.19 503.272 1377.05 506.553 1377.2 509.817C1377.33 512.934 1378.46 516.163 1379.29 519.174C1378.64 519.122 1377.98 519.061 1377.33 519.009C1376.22 516.058 1374.91 512.986 1374.69 509.817C1374.45 506.379 1374.57 502.889 1374.57 499.442C1372.35 497.788 1370.21 496.065 1368.1 494.281C1368.84 493.933 1369.58 493.602 1370.33 493.28Z" fill="#BEAC9A"/>
<path d="M26.6498 354.124C27.954 355.621 28.6844 357.327 29.0757 359.26C30.1626 364.36 30.5365 369.67 31.1104 374.849C31.7625 384.72 33.2667 394.677 34.8232 404.443C36.11 414.758 38.0404 424.977 39.5185 435.265C41.7706 429.172 43.6574 423.14 46.3007 417.291C50.5613 407.507 55.5523 398.02 60.2216 388.401C63.3083 382.378 66.6125 375.841 71.2209 370.862C72.16 370.941 73.099 371.01 74.0381 371.089C73.6816 379.07 70.447 387.009 67.5516 394.381C62.604 406.271 57.6304 418.048 51.5004 429.39C48.3701 435.091 45.2312 440.758 42.4488 446.65C41.3532 448.922 40.8837 451.316 40.6924 453.814C38.2056 454.206 35.7362 454.606 33.2059 454.65C33.2407 449.088 28.8757 443.526 26.2585 438.808C17.1547 423.61 8.39005 408.265 1.52091 391.883C0.0427433 388.663 -0.122464 385.425 0.0601333 381.934C1.3557 382.213 2.58172 382.1 3.59035 383.048C7.82487 386.713 10.6943 392.484 13.6767 397.201C17.6938 404.147 22.0848 410.954 25.5977 418.161C26.1194 418.118 26.6498 418.074 27.1715 418.031C25.1803 410.867 24.7021 403.173 23.7543 395.765C23.1717 386.234 23.0674 376.581 23.3108 367.024C23.5456 362.602 23.563 357.658 26.6498 354.124Z" fill="#96A24B"/>
<path d="M40.6896 453.814C40.6114 454.798 40.5244 455.782 40.4461 456.765C43.9242 460.395 48.7326 462.719 51.1237 466.932C52.3584 469.073 53.4279 471.554 52.7845 474.061C51.6107 479.283 47.2706 486.688 44.5676 486.943C41.8647 487.198 40.3493 487.341 37.6463 487.596C37.6463 487.596 36.8116 487.352 36.3942 487.23C35.8551 487.091 35.316 486.96 34.7682 486.847C34.3683 486.778 33.577 486.708 33.577 486.708L31.5938 486.658L30.0924 486.158L28.3339 485.289C28.3339 485.289 20.8474 479.065 21.1082 473.199C22.256 465.783 27.9513 462.197 33.0379 457.531C33.1075 456.574 33.1596 455.616 33.2031 454.65C35.7334 454.607 38.2028 454.206 40.6896 453.814Z" fill="#E9DDC2"/>
<path d="M36.3916 487.23C36.809 487.352 37.2263 487.473 37.6437 487.595C37.6002 488.944 37.4959 490.294 37.3307 491.643C37.1829 492.661 36.9133 493.662 36.722 494.672C36.3568 493.801 36.0177 492.931 35.6873 492.043C35.3656 490.311 35.07 488.579 34.7656 486.847C35.3134 486.96 35.8525 487.09 36.3916 487.23Z" fill="#A18B7B"/>
<path d="M37.3341 491.643C38.6384 493.915 40.0209 495.778 42.2208 497.257C41.2643 498.554 40.3687 499.886 39.4644 501.226C39.1514 500.626 38.8297 500.025 38.508 499.425C38.3949 498.11 38.2645 496.787 38.1167 495.464C35.6038 498.197 38.1254 501.279 37.082 504.578C36.4472 506.397 35.4212 508.155 34.5343 509.87C37.0559 512.629 40.3948 515.728 41.5686 519.357C42.3164 521.342 41.1165 522.7 40.6122 524.632C39.421 519.21 37.2733 515.745 33.5865 511.715C32.8649 512.263 32.1432 512.803 31.4215 513.352C31.3084 514.483 31.1867 515.623 31.065 516.755C28.4216 513.021 25.6218 508.921 27.1696 504.116C28.439 501.261 32.2388 499.494 34.7691 497.867C35.0995 495.934 35.4299 493.993 35.6908 492.043C36.0212 492.931 36.3603 493.802 36.7255 494.672C36.9168 493.662 37.1863 492.661 37.3341 491.643Z" fill="#C1B5AC"/>
<path d="M42.2173 497.257C43.1216 497.954 44.0172 498.606 44.765 499.477C45.0345 502.515 43.9215 505.84 43.1216 508.738C41.9043 506.231 40.7652 503.69 39.4609 501.226C40.3652 499.886 41.2608 498.554 42.2173 497.257Z" fill="#E1DEDC"/>
<path d="M34.8926 500.025C34.8839 502.21 35.4926 504.16 34.2057 506.057C32.7536 508.364 32.1624 509.931 31.9363 512.681C30.919 512.803 29.8929 512.925 28.8669 513.038C28.4496 510.645 27.6757 507.885 28.0844 505.457C29.3539 502.985 32.6319 501.444 34.8926 500.025Z" fill="white"/>
<path d="M601.39 116.985C602.668 118.743 602.86 121.181 603.129 123.278C603.608 129.711 603.181 136.047 602.738 142.454C602.495 156.398 602.503 170.342 602.608 184.286C602.59 188.064 603.216 191.79 603.321 195.559C603.477 200.476 603.329 205.525 603.807 210.399C604.668 217.624 604.016 224.874 604.981 232.108C605.121 240.899 606.564 249.542 607.06 258.308C608.146 269.91 609.798 281.487 611.085 293.064C611.468 299.209 612.581 305.25 613.155 311.369C612.485 313.205 611.842 315.051 611.19 316.896C610.729 312.492 610.998 308.523 609.955 304.371C609.329 301.916 609.051 299.435 608.92 296.911C607.894 297.642 606.868 298.373 605.842 299.096C606.251 300.462 606.738 301.855 606.946 303.274C606.016 305.154 604.294 305.52 602.364 305.084C600.008 301.542 599.877 297.085 597.017 293.664C597.104 297.886 597.582 302.064 597.756 306.268C596.86 304.989 595.965 303.709 595.104 302.403C593.278 297.581 592.808 292.611 592.121 287.545C589.939 271.86 588.913 255.722 587.843 239.95C587.348 224.866 587.522 209.781 587.565 194.688C587.643 187.76 587.504 180.726 588.322 173.833C589.339 157.965 590.66 141.653 594.521 126.186C595.347 123.313 596.208 119.884 598.164 117.56C598.964 116.419 600.225 116.532 601.39 116.985Z" fill="#98A64B"/>
<path d="M669.487 160.402C670.261 160.28 671.035 160.211 671.826 160.176C674.696 165.503 673.67 170.63 674.374 176.383C675.104 182.581 673.896 188.499 673.93 194.688C673.948 198.788 673.235 202.783 672.922 206.865C671.426 224.126 668.383 241.082 665.444 258.134C663.653 268.161 661.131 277.988 658.818 287.902C656.132 298.8 653.236 309.637 649.715 320.299C647.236 328.725 644.793 337.134 641.645 345.342C640.993 344.628 640.315 343.94 639.628 343.261C639.793 339.214 642.628 336.594 641.054 332.346C640.263 332.686 639.472 333.025 638.68 333.365C636.898 332.642 635.098 332.059 633.255 331.528C632.75 330.954 632.246 330.379 631.733 329.796C627.898 334.261 627.968 339.449 625.551 344.567C626.012 340.345 626.699 336.246 628.255 332.277C629.664 328.612 630.664 325.061 630.777 321.109C630.82 318.445 632.394 316.748 633.368 314.146C634.811 310.211 635.628 306.024 636.785 301.994C643.932 276.352 651.219 250.5 656.314 224.361C658.436 214.221 660.479 204.054 662.14 193.826C663.183 185.775 664.931 177.872 666.261 169.864C666.922 166.774 667.513 162.952 669.487 160.402Z" fill="#98A64C"/>
<path d="M565.102 170.403C568.267 175.208 568.301 182.076 569.31 187.69C571.875 207.179 575.057 226.555 578.953 245.817C582.518 261.746 586.378 277.605 590.674 293.351C591.613 296.624 592.882 299.348 592.952 302.734C592.552 303.718 592.126 304.693 591.691 305.668C588.709 299.749 588.23 293.56 586.057 287.302C584.109 281.661 583.413 275.777 581.813 270.05C579.083 260.292 577.796 249.064 573.892 239.646C573.605 242.231 573.371 244.807 573.162 247.401C571.101 248.072 569.049 248.75 566.997 249.438C567.11 251.832 567.197 254.225 567.284 256.619C566.554 256.959 565.832 257.298 565.11 257.638C562.867 245.382 560.858 233.248 559.945 220.801C559.537 208.624 559.545 196.42 559.667 184.243C559.798 180.518 559.789 175.835 561.728 172.545C562.493 171.187 563.728 170.899 565.102 170.403Z" fill="#7A893B"/>
<path d="M621.266 189.884C621.944 190.249 622.605 190.632 623.249 191.041C625.318 194.715 626.075 198.579 626.857 202.67C628.935 214.578 629.7 226.755 630.77 238.784C631.474 244.381 631.161 250.013 631.935 255.61C632.474 271.904 632.3 288.068 632.057 304.362C631.952 307.87 631.848 311.361 632.152 314.86L633.37 314.146C632.396 316.749 630.822 318.446 630.779 321.109C630.666 325.061 629.666 328.612 628.257 332.277C626.701 336.246 626.014 340.346 625.553 344.567C623.501 349.503 622.762 354.699 620.284 359.46C618.962 349.79 617.484 340.154 616.336 330.466C615.11 324.765 614.319 319.551 614.606 313.685C614.736 306.808 614.867 299.932 614.954 293.047C615.919 281.801 615.467 270.398 615.797 259.1C615.971 255.853 616.432 252.642 616.423 249.377C616.475 238.114 616.527 226.833 616.675 215.579C617.423 208.415 617.04 201.53 618.562 194.523C618.91 192.626 620.023 191.276 621.266 189.884Z" fill="#7E8C40"/>
<path d="M573.892 239.646C577.796 249.064 579.083 260.292 581.813 270.05C583.413 275.777 584.109 281.661 586.057 287.302C588.23 293.56 588.709 299.749 591.691 305.668C592.126 304.693 592.552 303.718 592.952 302.734C593.169 303.013 593.386 303.292 593.595 303.579C595.281 311.021 596.064 318.611 597.864 326.027C599.42 333.495 600.585 341.042 602.351 348.475C603.542 354.003 605.455 359.321 606.698 364.839C607.794 370.045 608.759 372.491 609.828 377.826H608.881C607.472 375.624 606.316 373.309 605.098 371.002C604.063 370.898 603.02 370.802 601.977 370.706C597.577 363.456 594.36 355.717 590.986 347.971C585.934 335.715 581.778 323.155 577.9 310.481C572.726 293.142 568.18 275.481 565.11 257.638C565.832 257.298 566.554 256.959 567.284 256.619C567.197 254.225 567.11 251.832 566.997 249.438C569.049 248.75 571.101 248.072 573.162 247.401C573.371 244.807 573.605 242.231 573.892 239.646Z" fill="#808E41"/>
<path d="M597.015 293.665C599.876 297.085 600.006 301.542 602.362 305.085C604.293 305.52 606.014 305.154 606.945 303.274C606.736 301.855 606.249 300.463 605.84 299.096C606.866 298.374 607.892 297.642 608.918 296.911C609.049 299.435 609.327 301.916 609.953 304.371C610.997 308.523 610.727 312.492 611.188 316.896C611.84 315.051 612.483 313.206 613.153 311.369L613.553 310.298C613.927 311.421 614.275 312.553 614.606 313.685C614.319 319.551 615.11 324.765 616.336 330.466C617.484 340.154 618.962 349.79 620.284 359.46C622.762 354.699 623.501 349.503 625.553 344.567C627.97 339.449 627.9 334.261 631.734 329.796C632.247 330.379 632.752 330.954 633.256 331.528C635.099 332.059 636.899 332.642 638.682 333.365C639.473 333.025 640.264 332.686 641.056 332.346C642.629 336.594 639.795 339.214 639.63 343.261C640.316 343.94 640.995 344.628 641.647 345.342C638.838 352.897 636.221 360.844 632.56 368.016C631.274 369.783 629.561 371.533 628.726 373.552C627.917 375.502 627.135 377.452 626.03 379.262C623.996 376.503 622.039 373.7 619.987 370.958C619.37 370.924 618.753 370.898 618.144 370.871C615.44 373.9 613.231 377.286 610.71 380.472C610.214 379.671 609.605 378.792 608.884 377.826H609.831C608.762 372.49 607.797 370.045 606.701 364.839C605.458 359.321 603.545 354.003 602.354 348.475C600.589 341.042 599.423 333.495 597.867 326.027C596.067 318.611 595.285 311.021 593.598 303.579L594.372 305.058C594.624 304.171 594.867 303.291 595.102 302.404C595.963 303.709 596.858 304.989 597.754 306.268C597.58 302.064 597.102 297.886 597.015 293.665Z" fill="#9BAA50"/>
<path d="M632.56 368.016C631.717 373.596 631.752 380.203 634.282 385.364C637.386 390.813 643.22 394.26 648.385 397.402C653.889 401.223 659.524 405.41 663.845 410.58C668.923 416.621 671.871 423.968 673.175 431.706C674.879 439.801 673.132 448.374 670.227 455.991C666.471 465.557 658.68 472.624 649.855 477.516C645.916 479.736 641.916 479.997 638.777 483.522L638.525 483.453C637.699 482.539 636.882 481.616 636.064 480.685C632.786 480.571 629.5 480.641 626.222 480.719C617.335 481.024 608.397 480.101 599.545 480.728C598.484 481.503 597.467 482.33 596.397 483.078C596.528 482.373 596.65 481.66 596.78 480.946C591.902 479.013 586.92 477.403 582.511 474.618C576.938 471.11 571.747 466.619 568.356 460.9C564.234 453.963 561.921 445.598 561.773 437.538C562.026 426.709 566.617 416.325 573.807 408.317C579.407 401.902 586.05 397.437 593.076 392.772C596.058 390.717 599.484 388.463 600.962 385.016C602.832 380.559 603.075 375.389 601.98 370.706C603.023 370.802 604.066 370.898 605.101 371.002C606.319 373.309 607.475 375.624 608.884 377.826C609.605 378.792 610.214 379.671 610.71 380.472C613.231 377.286 615.44 373.9 618.144 370.871C618.753 370.898 619.37 370.924 619.987 370.958C622.039 373.7 623.996 376.503 626.03 379.262C627.135 377.452 627.917 375.502 628.726 373.552C629.561 371.533 631.274 369.783 632.56 368.016Z" fill="#E1D4C2"/>
<path d="M599.545 480.728C608.397 480.101 617.335 481.024 626.222 480.719C628.543 481.381 630.64 482.469 632.761 483.583C628.248 484.575 624.353 486.029 619.658 485.063C620.588 487.9 621.414 489.223 623.849 490.947C624.979 491.835 626.196 492.644 627.388 493.436C625.336 493.523 623.823 493.288 621.927 492.531C621.423 491.826 620.918 491.121 620.414 490.407C620.084 489.841 619.753 489.258 619.432 488.675L618.736 487.334C617.771 487.744 616.806 488.153 615.84 488.553C615.475 486.951 614.98 485.428 614.328 483.914C613.371 484.479 612.415 485.036 611.467 485.611C608.241 484.244 606.415 483.644 603.006 484.958C602.102 484.627 601.198 484.297 600.302 483.966C599.155 484.462 598.015 484.958 596.876 485.454C596.076 485.071 595.277 484.697 594.477 484.314C595.111 483.905 595.754 483.496 596.397 483.078C597.467 482.33 598.484 481.503 599.545 480.728Z" fill="#A7825A"/>
<path d="M626.222 480.719C629.5 480.641 632.786 480.571 636.064 480.685C636.882 481.616 637.699 482.539 638.525 483.453C639.073 484.105 639.62 484.749 640.159 485.411C638.507 484.801 636.855 484.175 635.194 483.592C636.029 485.315 636.907 487.03 637.768 488.745L636.038 488.919C635.212 488.135 634.403 487.334 633.594 486.534C632.725 486.716 631.838 486.925 630.943 487.021C630.038 486.873 629.143 486.708 628.247 486.525C629.525 488.579 630.864 490.581 632.334 492.505C631.551 492.609 630.76 492.714 629.969 492.827C627.664 490.111 625.378 487.865 622.108 486.325C622.647 487.883 623.204 489.432 623.847 490.947C621.413 489.223 620.587 487.9 619.656 485.063C624.352 486.029 628.247 484.575 632.76 483.583C630.638 482.469 628.543 481.381 626.222 480.719Z" fill="#B3967D"/>
<path d="M611.467 485.611C608.667 487.213 606.971 488.666 605.432 491.565C603.302 492.226 601.25 492.792 599.224 493.741C595.955 495.168 593.781 497.684 591.72 500.495C590.259 500.53 588.79 500.556 587.32 500.574C589.964 496.073 594.111 494.019 598.328 491.312C599.546 491.103 600.946 491.103 602.067 490.572C603.632 489.519 604.798 487.709 605.867 486.185C603.05 487.143 600.572 488.666 597.946 490.024C598.667 488.527 599.415 487.038 600.189 485.567C597.754 486.612 595.337 487.447 592.763 488.057C593.103 486.255 592.703 485.211 594.477 484.314C595.277 484.697 596.076 485.071 596.876 485.454C598.015 484.958 599.155 484.462 600.302 483.966C601.198 484.297 602.102 484.627 603.006 484.958C606.415 483.644 608.241 484.244 611.467 485.611Z" fill="#B6A491"/>
<path d="M635.194 483.592C636.855 484.175 638.507 484.801 640.159 485.411C639.62 484.749 639.073 484.105 638.525 483.453L638.777 483.522C641.229 483.94 642.899 484.384 644.83 486.003C645.664 485.315 646.516 484.645 647.395 484.001C649.081 484.436 648.655 485.541 649.081 486.908C645.855 486.629 642.682 486.56 639.447 486.89C641.265 490.712 644.699 493.175 646.569 496.961C642.812 495.098 638.142 492.705 636.038 488.919L637.768 488.745C636.907 487.03 636.029 485.315 635.194 483.592Z" fill="#C2B2A2"/>
<path d="M586.852 484.296C588.208 484.209 589.564 484.131 590.912 484.053C590.304 485.341 590.26 488.057 588.191 487.604C586.339 488.074 587.269 486.264 586.947 485.167L586.852 484.296Z" fill="#C0B7A8"/>
<path d="M614.328 483.914C613.788 486.325 613.467 488.649 612.059 490.747L611.042 490.547H610.989C608.902 491.139 606.546 491.939 604.938 493.436C604.007 494.751 603.459 496.379 602.851 497.867L604.625 497.736C602.572 499.381 600.573 501.096 598.703 502.942C599.981 499.843 601.129 496.701 602.372 493.585C601.32 493.628 600.268 493.68 599.225 493.741C601.251 492.792 603.303 492.227 605.433 491.565C606.972 488.667 608.667 487.213 611.467 485.611C612.415 485.036 613.371 484.479 614.328 483.914Z" fill="#D7CCC1"/>
<path d="M614.324 483.914C614.976 485.428 615.471 486.951 615.837 488.553C616.802 488.153 617.767 487.743 618.732 487.334L619.428 488.675C618.941 488.666 618.454 488.675 617.967 488.684C617.037 492.348 616.932 496.108 617.576 499.834C618.428 503.133 620.306 505.953 623.036 507.998C626.253 510.462 630.218 512.464 632.305 516.119C633.983 519.653 633.296 523.361 631.427 526.66C631.34 523.953 631.584 521.098 631.044 518.435C630.062 516.311 628.236 514.492 626.41 513.064C624.21 511.297 621.819 509.835 619.41 508.373C618.176 506.353 616.95 504.342 615.463 502.497C614.88 505.23 614.637 507.894 614.88 510.688C615.045 512.307 615.28 513.917 615.506 515.527C615.863 520.167 618.793 523.474 619.671 528.001C620.41 530.629 619.697 532.936 619.036 535.486C618.445 535.547 617.863 535.617 617.271 535.687C617.758 533.502 618.628 531.178 617.958 528.967C617.176 526.042 615.811 523.231 614.654 520.437C614.072 520.454 613.48 520.48 612.889 520.498C611.785 522.047 610.498 523.631 609.733 525.389C609.463 527.078 610.054 528.932 610.35 530.612C609.846 530.403 609.341 530.185 608.846 529.977C608.185 527.505 607.098 525.494 608.568 523.048C610.072 519.836 614.289 516.938 613.95 513.247C614.167 510.375 612.846 508.242 612.098 505.613C612.533 503.098 614.019 500.791 614.576 498.293C614.924 496.274 614.776 494.115 614.724 492.069C612.359 493.958 610.385 496.23 608.142 498.241C606.75 499.111 605.376 499.868 604.055 500.852C601.777 502.732 599.446 505.169 598.464 508.016C597.16 512.089 597.351 516.494 596.168 520.637C594.047 516.615 595.012 513.073 595.577 508.808C594.116 509.669 592.673 510.044 591.638 511.454C590.543 512.733 590.421 514.692 590.047 516.311C589.508 516.407 588.969 516.494 588.43 516.589C588.743 514.1 588.499 511.297 590.517 509.461C593.221 507.197 596.342 505.666 598.699 502.941C600.568 501.096 602.568 499.381 604.62 497.736C607.359 495.69 609.889 493.401 612.054 490.746C613.463 488.649 613.785 486.325 614.324 483.914Z" fill="#BBAD9D"/>
<path d="M628.247 486.525C629.143 486.708 630.038 486.873 630.943 487.021C631.838 486.925 632.725 486.716 633.594 486.534C634.403 487.334 635.212 488.135 636.038 488.919C635.299 489.336 634.559 489.745 633.811 490.155C635.098 490.973 636.367 491.8 637.637 492.644C635.107 494.219 632.56 494.176 629.969 492.827C630.76 492.714 631.551 492.609 632.334 492.505C630.864 490.581 629.525 488.579 628.247 486.525Z" fill="#D2C7BD"/>
<path d="M617.968 488.684C618.455 488.675 618.942 488.666 619.429 488.675C619.751 489.258 620.081 489.841 620.412 490.407C619.647 490.607 618.873 490.808 618.116 491.034C617.847 492.409 617.638 493.793 617.421 495.177C619.516 496.004 621.629 496.796 623.751 497.562C622.507 497.814 621.255 498.006 620.003 498.197C619.29 498.311 618.577 498.432 617.873 498.563L617.577 499.834C616.934 496.108 617.038 492.348 617.968 488.684Z" fill="#D0C7C0"/>
<path d="M610.986 490.546H611.038L612.056 490.747C609.891 493.401 607.36 495.691 604.621 497.736L602.848 497.867C603.456 496.378 604.004 494.751 604.935 493.436C606.543 491.939 608.899 491.138 610.986 490.546Z" fill="#F1EEEB"/>
<path d="M618.117 491.034C618.874 490.808 619.648 490.607 620.413 490.407C620.917 491.121 621.422 491.826 621.926 492.531C622.613 494.176 623.178 495.865 623.752 497.562C621.63 496.796 619.517 496.004 617.422 495.177C617.639 493.793 617.848 492.409 618.117 491.034Z" fill="white"/>
<path d="M621.926 492.531C623.821 493.288 625.334 493.523 627.386 493.436C630.377 495.316 633.238 497.353 636.342 499.05C638.638 500.365 641.263 501.67 642.872 503.838C645.463 507.493 645.968 512.185 643.915 516.232C643.255 513.073 643.15 509.548 641.881 506.588C641.003 504.517 639.316 503.542 637.551 502.34C636.194 506.188 636.012 509.226 636.716 513.256C636.22 514.309 635.69 515.336 635.168 516.372C634.612 513.534 633.551 510.618 634.029 507.728C634.238 505.265 635.16 503.254 633.568 501.017C631.273 498.38 627.934 496.491 624.908 494.794C625.186 496.422 625.125 498.31 626.23 499.625C628.229 502.097 630.464 504.308 632.073 507.093C627.716 504.412 624.568 500.521 620.003 498.197C621.255 498.006 622.508 497.815 623.752 497.562C623.178 495.865 622.613 494.176 621.926 492.531Z" fill="#BBAA96"/>
<path d="M608.142 498.241C607.011 505.544 602.855 511.48 602.386 518.896C601.838 518.931 601.299 518.957 600.751 518.984C600.16 511.829 603.829 507.085 605.681 500.322L604.055 500.852C605.376 499.868 606.75 499.111 608.142 498.241Z" fill="#C6BEB0"/>
<path d="M615.465 502.497C616.952 504.342 618.178 506.353 619.413 508.372C617.891 509.13 616.396 509.922 614.883 510.688C614.639 507.894 614.883 505.23 615.465 502.497Z" fill="#F3F5F5"/>
<path d="M619.413 508.372C621.822 509.835 624.213 511.297 626.412 513.064L624.917 512.62C624.813 515.527 626.256 520.437 623.9 522.604L622.726 521.603C622.265 517.181 623.065 513.212 620.656 509.147C619.082 511.402 617.43 513.569 615.509 515.527C615.283 513.917 615.048 512.307 614.883 510.688C616.396 509.922 617.891 509.13 619.413 508.372Z" fill="#D1C9C1"/>
<path d="M636.716 513.256C637.525 515.266 637.872 517.138 637.994 519.297C637.229 519.149 636.464 518.992 635.69 518.844C635.524 518.017 635.351 517.199 635.168 516.372C635.69 515.336 636.22 514.309 636.716 513.256Z" fill="#E3DFDB"/>
<path d="M360.303 278.449C362.163 282.079 361.624 285.63 361.703 289.565C361.589 295.37 361.694 301.228 361.137 307.008C359.624 319.542 357.32 332.007 354.129 344.219C351.947 351.765 350.034 359.39 347.634 366.858C341.208 387.766 332.226 407.368 322.27 426.779C321.096 429.155 319.67 430.992 317.523 432.558C314.81 434.63 314.079 432.14 312.201 430.6C311.558 430.321 310.923 430.043 310.288 429.755C309.827 428.711 309.419 427.64 309.045 426.57C306.976 420.425 303.071 414.68 300.141 408.9C290.672 389.246 282.29 369.243 277.238 347.953C273.969 334.174 270.656 321.231 271.839 306.912C272.386 304.962 272.117 302.534 274.908 303.074C277.264 306.364 278.464 310.768 279.699 314.598C285.064 331.519 290.168 348.379 296.724 364.891C300.332 375.171 304.228 385.329 308.149 395.487C308.61 388.95 308.288 382.309 307.593 375.798C307.236 370.218 307.428 364.595 307.228 358.999C307.845 360.243 308.523 361.453 309.193 362.663C309.436 361.479 309.671 360.287 309.906 359.094C312.288 358.798 314.584 358.476 316.949 358.085C317.592 360.008 318.262 361.923 318.966 363.821C320.279 355.473 318.07 347.335 319.575 339.04C320.844 345.759 320.114 352.462 320.896 359.207C321.601 365.318 321.131 371.393 321.609 377.513C322.444 384.641 322.14 391.727 322.444 398.881C323.827 395.173 324.966 391.413 326.026 387.601C329.591 376.407 333.365 365.274 336.852 354.054C343.53 334.862 348.773 315.068 353.46 295.301C354.72 290.026 355.346 284.142 357.72 279.25C357.929 278.232 359.52 278.632 360.303 278.449Z" fill="#92A048"/>
<path d="M315.705 288.259C317.235 293.229 317.913 298.295 317.887 303.491C317.835 309.036 318.835 314.485 318.696 320.029C318.479 326.418 319.827 332.651 319.575 339.04C318.07 347.335 320.279 355.473 318.966 363.821C318.262 361.923 317.592 360.008 316.949 358.085C314.584 358.476 312.288 358.798 309.906 359.094C309.671 360.287 309.436 361.479 309.193 362.663C308.523 361.453 307.845 360.243 307.228 358.999C306.349 352.166 306.618 345.176 306.749 338.3C307.427 332.503 307.279 326.714 307.566 320.9C308.488 312.135 308.957 303.648 310.749 294.978C311.218 292.768 311.74 290.278 312.975 288.363C313.888 288.285 314.801 288.267 315.705 288.259Z" fill="#899543"/>
<path d="M309.046 426.57C309.42 427.64 309.829 428.711 310.29 429.756C310.924 430.043 311.559 430.321 312.203 430.6C314.081 432.141 314.811 434.63 317.524 432.558C320.898 435.892 321.68 440.514 324.802 444.048C327.741 448.087 332.462 451.69 332.653 457.009C332.932 461.517 333.114 466.592 331.488 470.857C330.062 474.113 328.149 477.29 326.08 480.171C324.263 482.826 321.106 483.461 318.107 483.722C314.202 483.826 310.116 483.034 306.299 482.268C305.925 483.078 305.551 483.887 305.168 484.697C303.577 484.775 302.003 484.627 300.421 484.54C301.116 484.044 301.812 483.557 302.507 483.069C300.968 481.946 299.412 480.85 297.908 479.675C293.943 476.715 291.091 472.067 290.369 467.158C289.387 459.298 292.839 451.786 298.795 446.755C301.708 444.057 306.751 441.585 307.872 437.589C308.638 434.003 308.542 430.217 309.046 426.57Z" fill="#ECE3D3"/>
<path d="M322.267 426.779C322.867 430.278 323.128 433.855 323.859 437.32C324.215 439 325.441 440.192 326.589 441.385C330.719 445.406 335.753 449.41 338.901 454.302C342.249 459.376 343.223 466.209 341.423 471.997C339.127 478.082 329.849 484.858 329.954 484.758C330.059 484.658 330.559 484.658 330.559 485.158C330.559 485.658 331.059 486.158 330.059 486.158C329.059 486.158 330.059 486.158 329.059 486.158C328.059 486.158 328.467 485.533 326.041 484.436C322.659 483.975 319.076 484.923 315.65 484.828C312.129 484.732 308.694 484.288 305.164 484.697C305.547 483.887 305.921 483.078 306.294 482.269C310.112 483.034 314.198 483.827 318.102 483.722C321.102 483.461 324.258 482.826 326.076 480.171C328.145 477.29 330.058 474.113 331.484 470.857C333.11 466.592 332.928 461.518 332.649 457.009C332.458 451.69 327.737 448.087 324.798 444.048C321.676 440.514 320.894 435.892 317.52 432.558C319.667 430.992 321.093 429.155 322.267 426.779Z" fill="#DED2BE"/>
<path d="M300.418 484.54C302.001 484.627 303.575 484.775 305.166 484.697C308.696 484.288 312.131 484.732 315.652 484.828C319.078 484.923 322.66 483.975 326.043 484.436C328.469 485.533 330.608 487.317 332.834 488.779C334.99 490.242 336.946 491.93 338.816 493.732C338.79 494.785 338.764 495.838 338.738 496.892C336.668 494.759 335.242 492.635 331.999 492.418C330.808 491.182 329.651 489.92 328.512 488.649C325.034 487.987 321.669 487.448 318.122 487.918C319.208 488.858 320.061 490.163 321.626 490.137C324.791 490.363 327.886 490.729 330.956 491.573C328.208 493.123 326.051 492.304 323.234 491.756C327.104 496.935 333.077 497.649 336.216 503.167C337.772 505.639 337.755 508.225 337.903 511.036C337.425 511.036 336.946 511.036 336.468 511.036C335.738 506.397 334.19 503.098 330.086 500.591C329.712 502.419 329.164 503.881 329.903 505.692C330.825 508.364 330.903 510.853 330.686 513.647C329.156 510.392 328.53 506.841 327.147 503.542C324.112 500.983 320.913 498.624 317.948 495.952C317.835 494.463 317.713 492.966 317.582 491.478C315.009 494.002 315.33 496.23 315.235 499.546C317.139 502.341 318.73 505.37 321.547 507.354C323.478 508.764 325.399 510.035 326.843 511.994C326.773 512.794 326.712 513.595 326.651 514.396C326.269 513.908 325.886 513.421 325.495 512.934C324.808 512.089 324.086 511.271 323.33 510.479L322.226 510.409C321.652 510.375 321.078 510.322 320.513 510.279C320.061 509.809 319.643 509.304 319.252 508.773C318.061 507.084 316.669 505.518 315.304 503.968C315.487 507.476 314.6 510.74 314.165 514.17C314.774 516.659 316.183 518.992 316.861 521.472C317.452 523.779 316.896 526.225 316.548 528.532C315.852 524.641 315.165 520.933 312.948 517.582C312.209 516.38 311.435 515.197 310.609 514.048C311.339 513.099 312.383 511.976 312.4 510.723C312.6 507.563 312.635 504.438 313.383 501.34C312.409 501.366 311.435 501.392 310.461 501.418C312.409 498.345 313.035 496.483 312.913 492.766C310.357 495.107 307.6 497.37 306.601 500.826C305.201 505.404 304.053 510.026 302.262 514.474C301.496 509.252 303.227 504.891 304.896 500.086C302.383 501.609 300.053 503.394 299.114 506.301C298.601 509.078 298.636 511.976 298.462 514.788C297.984 514.439 297.505 514.091 297.027 513.743C297.027 511.463 297.01 509.191 296.932 506.919C294.271 507.929 294.08 510.74 293.097 513.064C292.636 512.873 292.175 512.681 291.715 512.498C292.045 510.906 292.21 509.112 292.958 507.659C294.636 505.7 296.949 504.282 298.818 502.497C303.531 497.927 308.696 494.559 312.27 488.884C308.626 490.555 305.47 492.888 301.583 494.037C298.445 494.916 297.21 497.457 294.636 499.198C293.593 499.703 292.28 499.694 291.141 499.842C294.68 494.228 300.088 492.339 305.009 488.274C304.679 487.944 304.357 487.613 304.035 487.282C302.392 487.23 300.757 487.213 299.105 487.23C299.279 486.516 299.444 485.811 299.618 485.097L300.418 484.54Z" fill="#BBAB9B"/>
<path d="M320.055 493.645C321.115 494.193 322.176 494.75 323.228 495.325C325.437 496.57 327.559 497.727 329.211 499.721L328.732 501.113L327.446 501.305C325.22 500.104 323.081 498.781 320.733 497.806C320.498 496.422 320.272 495.038 320.055 493.645Z" fill="#EBE9E5"/>
<path d="M319.25 508.773C319.641 509.304 320.059 509.809 320.511 510.279C321.076 510.323 321.65 510.375 322.224 510.41C322.25 512.934 322.25 515.458 322.111 517.983C319.441 515.319 319.772 512.246 319.25 508.773Z" fill="#D1CCC8"/>
<path d="M326.844 511.994C327.461 513.36 328.47 515.084 328.261 516.624C327.913 517.973 326.661 519.123 325.887 520.245C325.627 517.817 325.522 515.38 325.496 512.934C325.887 513.421 326.27 513.909 326.653 514.396C326.713 513.595 326.774 512.794 326.844 511.994Z" fill="#DBD6CF"/>
<path d="M310.612 514.048C311.438 515.197 312.212 516.381 312.951 517.582C312.377 516.92 311.795 516.276 311.204 515.632C309.812 518.635 309.83 521.69 309.691 524.911C308.491 523.361 307.134 522.343 307.265 520.184C306.978 517.26 308.778 515.919 310.612 514.048Z" fill="#CBC1B4"/>
<path d="M945.692 0C948.518 1.81049 948.518 5.42276 948.675 8.41703C948.831 32.2058 948.179 55.9858 948.457 79.792C948.692 88.2265 948.44 96.6174 949.309 105.026C949.301 118.935 950.796 132.949 951.883 146.815C953.3 165.755 955.718 184.565 958.222 203.384C959.474 211.54 959.735 219.696 962.056 227.66C961.352 234.728 963.248 241.021 964.387 247.889C965.874 256.454 966.734 265.062 968.482 273.584C969.213 277.057 969.612 280.782 970.934 284.081C971.534 285.213 972.108 286.814 973.612 286.858C975.064 281.757 975.421 276.421 976.821 271.286C978.768 264.009 980.429 256.602 982.864 249.49C984.49 244.921 985.612 240.29 986.533 235.538C989.177 229.445 988.881 223.238 990.255 216.893L991.811 216.789C992.124 216.78 992.437 216.771 992.759 216.762C992.802 215.37 992.837 213.977 992.881 212.593C993.376 212.001 993.863 211.418 994.359 210.835C1002.58 183.512 1009.48 155.632 1015.37 127.718C1018.63 113.861 1021.2 99.8815 1023.94 85.9198C1025.43 77.6769 1026.85 69.4775 1029.09 61.3912C1029.8 58.8147 1030.98 56.4733 1032.23 54.1231C1033.03 54.0883 1033.83 54.0622 1034.62 54.0274C1035.83 56.4298 1036.98 58.7016 1037.16 61.4434C1037.58 68.4765 1038.46 75.3267 1037.55 82.3772C1036.89 105.626 1033.84 128.91 1029.62 151.776C1026.6 168.088 1023.73 184.348 1019.24 200.346C1014.84 218.164 1009.28 235.703 1003.51 253.251C999.941 263.365 996.011 273.384 991.446 283.098C989.342 285.813 987.055 288.155 985.455 291.254C983.359 295.11 982.412 299.218 981.516 303.466C980.473 302.595 979.412 301.751 978.403 300.837C977.386 298.818 976.438 296.833 975.238 294.918C974.412 294.021 973.586 293.142 972.734 292.272C972.578 295.51 972.517 298.67 973.378 301.829C975.273 309.158 977.142 316.435 979.664 323.581C982.742 332.068 985.116 340.755 987.872 349.355C989.924 356.396 991.446 363.595 993.272 370.706C995.846 384.346 997.506 398.394 996.906 412.295C995.889 424.76 994.124 436.972 990.376 448.931C988.403 454.99 986.211 460.787 982.403 465.957C981.02 467.794 979.829 469.839 979.116 472.024C983.386 471.989 988.316 472.65 992.411 471.31C992.985 471.136 993.568 470.953 994.15 470.77C993.941 471.832 993.733 472.894 993.524 473.956C987.672 471.684 980.412 472.25 974.212 472.311C964.221 472.798 953.24 471.066 943.353 472.729C943.571 471.954 943.788 471.179 943.997 470.396C932.893 465.173 923.372 456.704 917.303 445.989C909.555 433.081 906.547 417.552 905.399 402.72C904.66 392.536 907.834 382.648 909.268 372.891C908.973 375.163 908.738 377.443 908.373 379.706C906.382 389.42 906.277 398.969 906.677 408.84C907.19 417.483 909.451 425.682 912.346 433.786C914.894 440.401 918.537 446.642 922.537 452.474C926.302 458.019 931.493 462.545 937.049 466.218C940.78 468.586 944.918 470.736 949.249 471.71C951.135 472.224 952.405 471.745 954.196 471.162C951.544 468.081 948.796 465.452 946.866 461.814C940.058 448.357 936.936 434.117 935.058 419.259C934.615 412.748 934.432 406.246 934.928 399.735C935.049 399.204 935.171 398.673 935.302 398.142C935.31 404.853 935.128 411.599 935.423 418.292C936.606 427.397 938.04 436.214 941.014 444.91C944.014 454.11 947.814 464.199 954.761 471.179C961.187 471.954 967.795 472.389 974.247 471.928C977.429 471.745 979.786 468.786 981.438 466.349C985.168 460.534 988.037 454.136 989.889 447.478C992.211 439.217 994.698 430.47 995.037 421.879C995.759 415.742 995.941 409.771 995.811 403.591C996.115 392.467 994.854 381.282 992.768 370.358C991.011 362.846 989.237 355.291 986.924 347.927C982.42 334.653 977.916 321.231 974.43 307.661C973.717 304.858 972.96 302.082 972.004 299.357C970.491 295.205 969.604 290.958 967.526 287.023L966.387 288.346C962.222 292.403 960.161 297.677 956.439 302.064C954.474 295.466 952.57 288.842 950.944 282.158C948.44 270.685 945.049 259.413 942.545 247.95C941.188 239.75 939.797 231.568 938.762 223.325C938.154 217.937 935.241 213.411 934.658 208.015L936.606 208.633C935.658 197.761 933.815 186.959 932.893 176.079C931.702 166.33 931.198 156.598 930.406 146.815C929.858 123.905 929.885 100.97 930.189 78.0512C930.189 71.6709 931.163 65.3516 931.571 58.9714C932.458 46.5765 934.223 34.2165 936.388 21.9783C937.588 15.8679 938.858 9.27875 941.666 3.68191C942.501 2.237 943.831 0.0435213 945.692 0Z" fill="#9AAA4F"/>
<path d="M996.729 54.6802C999.476 55.3591 1000.34 57.2479 1001.17 59.7112C1003.35 67.2404 1003.28 74.4389 1004.07 82.4033C1004.36 94.2933 1004.33 106.201 1004.19 118.091C1004.22 122.469 1003.42 126.769 1003.37 131.147C1003.35 137.266 1002.59 143.394 1001.99 149.487C1000.53 165.947 998.572 182.441 995.372 198.657C994.19 204.803 992.468 210.6 991.807 216.788L990.251 216.893C988.877 223.238 989.173 229.444 986.529 235.537C984.521 239.367 984.208 244.19 981.391 247.428C981.547 243.258 982.495 239.202 982.669 235.041C982.904 229.366 984.13 223.882 984.043 218.19C983.956 209.773 984.138 201.338 983.686 192.939C983.26 186.532 984.303 180.213 983.773 173.798C983.512 168.28 982.147 163.501 983.773 158.035C984.625 155.267 984.686 152.769 984.399 149.896C985.764 139.895 987.242 129.902 988.355 119.866C990.26 103.842 992.346 87.9218 993.233 71.8015C994.094 66.0131 993.468 59.7809 996.729 54.6802Z" fill="#78873C"/>
<path d="M903.851 60.9646C907.268 69.7646 907.633 79.9138 909.268 89.2012C909.111 91.1423 908.781 93.0659 908.398 94.9721C907.05 91.2902 906.303 87.4604 905.129 83.7175C903.129 83.7001 901.112 83.6566 899.103 83.7523C898.494 86.7727 898.442 89.4188 896.086 91.6993C896.138 85.3975 896.034 79.052 896.547 72.7676C897.042 69.1814 897.686 64.8989 899.842 61.8959C900.625 60.4249 902.468 61.069 903.851 60.9646Z" fill="#768437"/>
<path d="M899.105 83.7523C901.113 83.6565 903.13 83.7001 905.13 83.7175C906.304 87.4603 907.052 91.2902 908.4 94.9721C908.782 93.0658 909.113 91.1422 909.269 89.2012C913.104 116.698 918.782 143.977 925.242 170.978C928.138 183.373 932.032 195.559 934.658 208.015C935.241 213.411 938.154 217.937 938.762 223.325C939.797 231.568 941.188 239.75 942.545 247.95C945.049 259.413 948.44 270.685 950.944 282.158C952.57 288.842 954.474 295.466 956.439 302.064C955.761 302.143 955.075 302.229 954.397 302.299C951.867 297.364 949.754 291.549 946.128 287.345C945.406 287.284 944.684 287.232 943.954 287.197C943.128 286.205 942.319 285.213 941.728 284.046C930.511 261.258 921.538 237.313 914.556 212.898C909.704 196.586 906.252 180.039 902.965 163.353C898.852 139.503 895.557 115.949 896.087 91.6993C898.444 89.4188 898.496 86.7727 899.105 83.7523Z" fill="#7F8F42"/>
<path d="M973.298 88.531C976.011 93.9016 976.88 100.438 977.915 106.323C980.81 123.017 982.141 139.834 982.758 156.746C983.236 154.448 983.81 152.168 984.401 149.896C984.688 152.769 984.628 155.267 983.776 158.035C982.15 163.501 983.515 168.28 983.776 173.798C984.306 180.213 983.262 186.532 983.689 192.939C984.141 201.338 983.958 209.773 984.045 218.19C984.132 223.882 982.906 229.366 982.671 235.041C982.497 239.202 981.55 243.258 981.393 247.427C984.21 244.189 984.523 239.367 986.532 235.537C985.61 240.29 984.488 244.921 982.862 249.49C980.428 256.602 978.767 264.009 976.819 271.286C975.419 276.421 975.063 281.757 973.611 286.858C972.107 286.814 971.533 285.213 970.933 284.081C969.611 280.782 969.211 277.057 968.481 273.584C966.733 265.062 965.872 256.454 964.385 247.889C963.246 241.021 961.351 234.728 962.055 227.66C962.733 218.999 962.246 210.269 962.751 201.608C963.846 191.816 962.881 181.971 964.02 172.162C964.255 162.848 964.212 153.517 964.316 144.195C965.516 131.078 964.707 117.96 965.29 104.817C965.942 99.6377 965.777 93.2575 968.194 88.5659C969.002 86.442 972.472 86.3637 973.298 88.531Z" fill="#829243"/>
<path d="M991.446 283.098C991.246 285.848 991.071 288.599 990.689 291.341C989.706 298.182 990.41 305.912 994.001 311.961C993.845 313.014 993.697 314.067 993.541 315.121C989.81 310.96 988.454 305.729 985.271 301.263C984.854 303.091 984.515 304.797 985.054 306.66C986.202 311.134 988.95 315.356 991.767 318.977C998.01 326.837 1005.53 333.791 1011.69 341.73C1014.48 345.307 1017.34 348.867 1019.89 352.627C1027.96 364.926 1033.17 379.027 1034.69 393.694C1036.86 411.903 1032.83 431.471 1022.57 446.781C1018.73 452.796 1013.7 457.601 1008.97 462.858C1021.26 458.645 1031.68 448.54 1039.1 438.112C1046.03 427.554 1049.35 415.289 1049.73 402.72C1049.94 394.242 1049.08 385.442 1046.37 377.374C1042.14 365.118 1035.1 353.994 1026.02 344.767C1018.32 337.247 1009.77 330.91 1001.78 323.764C999.645 321.901 997.949 319.812 996.479 317.392C1002.84 321.579 1008.15 327.106 1014.76 331.015C1015.63 330.579 1016.5 330.144 1017.38 329.709C1023.54 333.974 1029.37 338.666 1034.99 343.601C1044.13 351.948 1051.53 362.106 1056.05 373.674C1059.63 382.396 1061.99 391.483 1061.71 400.98C1062 409.553 1060.67 417.84 1057.88 425.943C1053.84 438.208 1045.9 448.601 1035.92 456.661C1026.85 464.364 1015.2 469.352 1003.71 472.146C1001.01 472.833 998.419 473.852 995.862 474.975C995.106 474.574 994.35 474.235 993.524 473.956C993.733 472.894 993.941 471.832 994.15 470.77C993.568 470.953 992.985 471.136 992.411 471.31C996.776 466.801 1002.36 464.085 1006.97 459.881C1013.78 453.632 1019.9 447.182 1024.08 438.834C1029.48 427.536 1032.73 415.315 1032.37 402.72C1032.65 393.424 1031.03 384.459 1028.22 375.624C1025.21 365.327 1019.91 356.231 1013.58 347.648C1006.3 337.447 996.688 328.96 989.15 319.003C985.159 313.258 981.116 307.304 978.403 300.837C979.412 301.751 980.473 302.595 981.516 303.466C982.412 299.218 983.359 295.11 985.455 291.254C987.055 288.155 989.342 285.813 991.446 283.098Z" fill="#CCC76A"/>
<path d="M943.953 287.197C944.683 287.232 945.405 287.284 946.127 287.345C949.752 291.549 951.865 297.364 954.396 302.299C955.074 302.23 955.761 302.143 956.439 302.064C960.161 297.677 962.222 292.403 966.387 288.346C965.804 289.626 965.395 290.949 964.969 292.281C965.647 293.081 966.699 293.395 966.204 294.639C965.152 297.547 963.36 300.132 962.369 303.083C960.23 309.228 958.508 315.512 956.222 321.614C951.309 335.001 946.161 348.188 942.266 362.089C939.605 372.273 938.023 382.526 936.553 392.928C936.179 394.686 935.71 396.401 935.302 398.142C935.171 398.673 935.049 399.204 934.928 399.735L934.701 397.855C933.832 392.676 935.406 387.027 936.11 381.813C937.953 368.617 941.779 355.796 946.205 343.261C948.648 335.863 951.944 328.534 953.457 320.9C951.257 320.43 948.674 319.508 946.422 319.925C944.431 320.9 942.831 322.946 941.388 324.6C933.98 333.452 925.493 342.617 919.998 352.801C917.398 357.354 914.876 361.889 913.103 366.85C911.633 370.671 910.764 374.632 909.564 378.522L908.373 379.706C908.738 377.443 908.973 375.163 909.268 372.891C909.877 367.694 912.363 362.507 914.737 357.893C917.25 353.28 919.641 348.423 922.78 344.28C927.441 338.204 932.293 332.303 937.458 326.636C939.562 324.373 941.292 321.98 942.457 319.09C936.588 322.484 931.049 326.532 925.597 330.545C921.354 333.817 917.563 337.604 913.363 340.929C906.564 346.839 900.26 353.759 895.852 361.662C888.878 373.918 885.27 387.766 884.965 401.85C885.252 414.645 888.869 427.153 895.338 438.173C900.216 445.867 906.39 452.7 913.99 457.775C919.12 461.657 924.798 463.598 930.51 466.375C934.866 468.351 939.023 470.718 943.353 472.729C941.032 473.164 938.675 473.704 936.327 473.939C928.058 471.641 919.12 469.499 911.607 465.426C904.703 461.892 898.382 457.401 892.895 451.908C881.609 441.028 874.401 426.17 872.818 410.563C872.557 400.231 871.905 390.647 875.375 380.716C878.635 368.93 885.061 358.477 893.226 349.459C903.573 338.196 916.007 329.813 928.771 321.536C932.093 319.281 935.727 316.757 938.231 313.58C940.901 310.246 942.388 305.807 943.457 301.716C944.718 296.859 944.266 292.133 943.953 287.197Z" fill="#CCC86A"/>
<path d="M966.383 288.346L967.522 287.023C969.6 290.958 970.487 295.205 972 299.357C972.956 302.082 973.713 304.859 974.426 307.661C977.913 321.231 982.417 334.653 986.921 347.927C989.234 355.291 991.007 362.846 992.764 370.358C994.851 381.282 996.111 392.467 995.807 403.591C995.937 409.771 995.755 415.742 995.033 421.879C994.694 430.47 992.207 439.218 989.886 447.478C988.034 454.137 985.164 460.534 981.434 466.349C979.782 468.786 977.426 471.745 974.243 471.928C967.792 472.39 961.183 471.954 954.758 471.18C947.81 464.199 944.01 454.111 941.01 444.91C938.037 436.215 936.602 427.397 935.42 418.293C935.124 411.599 935.307 404.853 935.298 398.142C935.707 396.401 936.176 394.687 936.55 392.928C936.733 394.913 936.411 398.073 937.828 399.631C945.923 400.048 954.288 398.064 961.557 394.512C966.426 392.18 970.391 388.106 973.765 383.972C978.66 378.096 981.46 370.349 981.225 362.681C981.112 358.285 980.556 353.881 979.486 349.616C978.182 344.054 974.556 338.805 971.469 334.044C967.374 328.29 963.679 322.937 956.218 321.614C958.505 315.513 960.227 309.228 962.366 303.083C963.357 300.132 965.148 297.547 966.2 294.64C966.696 293.395 965.644 293.082 964.966 292.281C965.392 290.949 965.8 289.626 966.383 288.346Z" fill="#D4D174"/>
<path d="M972.734 292.272C973.586 293.142 974.412 294.021 975.238 294.918C976.438 296.833 977.386 298.818 978.403 300.837C981.116 307.304 985.16 313.258 989.151 319.003C996.69 328.96 1006.3 337.447 1013.58 347.649C1019.91 356.231 1025.21 365.327 1028.22 375.624C1031.04 384.459 1032.65 393.424 1032.37 402.72C1032.73 415.316 1029.48 427.536 1024.08 438.834C1019.9 447.182 1013.78 453.632 1006.97 459.881C1002.36 464.086 996.776 466.801 992.411 471.31C988.316 472.65 983.386 471.989 979.116 472.024C979.829 469.839 981.02 467.794 982.403 465.957C986.211 460.787 988.403 454.99 990.376 448.931C994.124 436.972 995.889 424.76 996.906 412.295C997.506 398.394 995.846 384.346 993.272 370.706C991.446 363.595 989.924 356.396 987.872 349.355C985.116 340.755 982.742 332.068 979.664 323.581C977.142 316.435 975.273 309.158 973.378 301.829C972.517 298.67 972.578 295.51 972.734 292.272Z" fill="#D4D175"/>
<path d="M985.269 301.263C988.451 305.728 989.808 310.96 993.538 315.12C993.695 314.067 993.842 313.014 993.999 311.961C999.946 319.394 1009.82 323.964 1017.38 329.709C1016.5 330.144 1015.63 330.579 1014.75 331.014C1008.15 327.106 1002.84 321.579 996.477 317.392C997.947 319.812 999.642 321.901 1001.78 323.764C1009.76 330.91 1018.32 337.247 1026.01 344.767C1035.1 353.994 1042.14 365.118 1046.37 377.373C1049.08 385.442 1049.93 394.242 1049.73 402.72C1049.34 415.289 1046.03 427.553 1039.1 438.112C1031.67 448.539 1021.26 458.645 1008.96 462.858C1013.69 457.601 1018.73 452.796 1022.57 446.781C1032.83 431.47 1036.86 411.903 1034.68 393.694C1033.17 379.027 1027.96 364.926 1019.88 352.627C1017.34 348.867 1014.48 345.307 1011.68 341.729C1005.53 333.791 998.007 326.836 991.764 318.976C988.947 315.355 986.199 311.134 985.052 306.66C984.513 304.797 984.852 303.091 985.269 301.263Z" fill="#D4D175"/>
<path d="M942.457 319.09C941.292 321.98 939.562 324.373 937.458 326.636C932.293 332.303 927.441 338.204 922.78 344.28C919.641 348.423 917.25 353.28 914.737 357.893C912.363 362.507 909.877 367.694 909.268 372.891C907.834 382.648 904.66 392.536 905.399 402.72C906.547 417.552 909.555 433.081 917.303 445.989C923.372 456.704 932.893 465.173 943.997 470.396C943.788 471.179 943.571 471.954 943.353 472.729C939.023 470.718 934.866 468.351 930.51 466.375C924.798 463.598 919.12 461.657 913.99 457.775C906.39 452.7 900.216 445.867 895.338 438.173C888.869 427.153 885.252 414.645 884.965 401.85C885.27 387.766 888.878 373.918 895.852 361.662C900.26 353.759 906.564 346.839 913.363 340.929C917.563 337.604 921.354 333.817 925.597 330.545C931.049 326.532 936.588 322.484 942.457 319.09Z" fill="#D4D174"/>
<path d="M946.422 319.925C948.674 319.508 951.257 320.43 953.457 320.9C951.944 328.534 948.648 335.863 946.205 343.261C941.779 355.796 937.953 368.617 936.11 381.813C935.406 387.027 933.832 392.676 934.701 397.855C933.258 398.272 932.136 398.969 930.605 398.577C926.258 397.637 922.084 395.652 918.284 393.389C915.389 391.631 912.224 389.368 910.485 386.4C909.155 384.206 909.581 380.96 909.564 378.522C910.764 374.632 911.633 370.671 913.103 366.85C914.876 361.889 917.398 357.354 919.998 352.801C925.493 342.617 933.98 333.452 941.388 324.6C942.831 322.946 944.431 320.9 946.422 319.925Z" fill="#DAD981"/>
<path d="M956.223 321.614C963.683 322.937 967.379 328.29 971.474 334.043C974.561 338.805 978.187 344.053 979.491 349.615C980.561 353.88 981.117 358.285 981.23 362.681C981.465 370.349 978.665 378.096 973.77 383.971C970.396 388.106 966.431 392.179 961.562 394.512C954.293 398.063 945.928 400.048 937.833 399.63C936.416 398.072 936.737 394.912 936.555 392.928C938.024 382.526 939.607 372.273 942.267 362.089C946.163 348.188 951.31 335.001 956.223 321.614Z" fill="#DAD980"/>
<path d="M908.371 379.706L909.562 378.522C909.58 380.96 909.153 384.206 910.484 386.4C912.223 389.368 915.388 391.631 918.283 393.389C922.083 395.652 926.257 397.637 930.604 398.577C932.135 398.969 933.256 398.272 934.7 397.855L934.926 399.735C934.43 406.246 934.613 412.748 935.056 419.258C936.934 434.117 940.056 448.357 946.864 461.814C948.795 465.452 951.542 468.081 954.194 471.162C952.403 471.745 951.133 472.224 949.247 471.71C944.916 470.735 940.778 468.586 937.047 466.218C931.491 462.545 926.3 458.019 922.535 452.474C918.535 446.642 914.892 440.401 912.345 433.786C909.449 425.682 907.188 417.483 906.675 408.839C906.275 398.969 906.38 389.42 908.371 379.706Z" fill="#D4D174"/>
<path d="M943.353 472.729C953.24 471.066 964.221 472.798 974.212 472.311C980.412 472.25 987.672 471.684 993.524 473.956C994.35 474.235 995.106 474.574 995.862 474.975C997.758 476.411 999.628 477.881 1001.58 479.239C1001.69 479.814 1001.79 480.388 1001.91 480.963C999.306 480.484 996.733 479.909 994.211 479.117C993.011 478.125 991.881 476.68 990.289 476.41C989.298 476.402 987.759 475.818 987.698 477.281C988.446 478.517 989.463 479.544 990.463 480.571C991.655 481.781 992.915 482.939 994.141 484.105C995.793 484.105 997.446 484.096 999.106 484.087C999.106 484.671 999.115 485.254 999.115 485.837L996.515 485.863C998.654 489.284 1001.66 491.216 1001.85 495.42C1000.54 494.019 999.28 492.574 998.063 491.086C996.376 489.005 994.811 486.934 992.811 485.115C991.62 484.122 990.394 483.174 989.194 482.181L988.072 480.989C987.159 479.988 986.29 478.795 985.168 478.029C983.559 477.559 981.794 477.498 980.116 477.524L979.934 477.585C979.186 478.169 978.464 478.795 977.734 479.405C977.403 478.769 977.064 478.134 976.734 477.498C975.803 478.29 974.786 478.978 973.856 479.779C973.456 479.143 973.056 478.508 972.656 477.873L972.473 478.082C972.021 478.604 971.56 479.135 971.099 479.657C971.891 483.696 974.595 487.256 974.873 491.303C973.812 490.607 972.751 489.885 971.673 489.214C971.456 487.813 971.265 486.394 970.96 485.001C970.056 482.939 968.534 481.032 967.195 479.213C966.708 480.641 966.221 482.059 965.743 483.487C964.926 485.794 964.5 488.161 964.23 490.59C963.961 488.144 963.561 485.724 963.282 483.278C963.561 481.293 963.969 479.335 964.3 477.35C963.03 478.473 961.778 479.622 960.578 480.832C959.648 481.659 958.691 482.477 957.752 483.295C957.074 482.93 956.396 482.564 955.718 482.199C954.718 482.59 953.727 482.991 952.727 483.382C952.483 482.738 952.231 482.085 951.987 481.433C950.953 482.373 949.927 483.313 948.909 484.253C948.144 484.262 947.388 484.262 946.623 484.253C948.701 482.408 950.188 480.214 951.553 477.82C950.648 477.89 949.753 477.968 948.857 478.055C946.892 479.892 944.997 481.772 943.118 483.696C942.545 483.539 941.962 483.391 941.379 483.234L941.979 482.181C943.753 480.197 945.214 478.673 945.37 475.862C942.362 477.577 939.684 479.631 937.328 482.19C937.997 480.493 938.562 478.769 939.145 477.046C936.789 477.638 935.223 478.525 933.432 480.057C932.058 481.276 930.641 481.398 928.867 481.668C930.476 478.151 933.545 476.611 936.327 473.939C938.675 473.704 941.032 473.164 943.353 472.729Z" fill="#A29D61"/>
<path d="M945.37 475.862C945.214 478.673 943.753 480.197 941.979 482.181C940.388 483.6 938.753 484.967 937.109 486.325C936.709 484.654 936.641 483.765 937.328 482.19C939.684 479.631 942.362 477.577 945.37 475.862Z" fill="#E6E5D8"/>
<path d="M990.286 476.411C991.878 476.68 993.008 478.125 994.208 479.118C992.843 478.848 991.469 478.595 990.095 478.36L990.46 480.571C989.46 479.544 988.443 478.517 987.695 477.281C987.756 475.819 989.295 476.402 990.286 476.411Z" fill="#C0BB99"/>
<path d="M979.934 477.585L980.116 477.524C981.794 477.498 983.559 477.559 985.168 478.029C986.29 478.795 987.159 479.988 988.072 480.989C987.107 480.484 986.134 479.988 985.151 479.5C983.699 481.363 982.595 483.252 981.638 485.419L980.673 484.619C979.621 482.939 978.664 481.163 977.734 479.405C978.464 478.795 979.186 478.169 979.934 477.585Z" fill="#AEA77D"/>
<path d="M951.551 477.821C950.186 480.214 948.699 482.408 946.621 484.253C945.439 484.114 944.282 484.01 943.117 483.696C944.995 481.773 946.891 479.892 948.856 478.056C949.752 477.969 950.647 477.89 951.551 477.821Z" fill="#FCFBFB"/>
<path d="M964.296 477.351C963.965 479.335 963.557 481.294 963.279 483.278C961.313 484.88 959.583 487.352 957.183 488.222C956.766 487.613 956.392 486.978 956.07 486.299C958.088 484.697 959.505 483.2 960.574 480.832C961.774 479.622 963.026 478.473 964.296 477.351Z" fill="#EAE7E5"/>
<path d="M972.47 478.082L972.653 477.873C973.053 478.508 973.453 479.144 973.853 479.779C974.783 478.978 975.801 478.291 976.731 477.499C977.061 478.134 977.401 478.769 977.731 479.405C978.661 481.163 979.618 482.939 980.67 484.619C979.157 483.496 977.592 482.425 976.044 481.346C975.244 481.746 974.435 482.147 973.635 482.538C973.749 483.548 973.862 484.566 973.975 485.576C976.418 485.794 978.844 486.029 981.296 486.081L981.635 485.419C982.592 483.252 983.696 481.363 985.148 479.501C986.13 479.988 987.104 480.484 988.069 480.989L989.191 482.181C988.53 482.242 987.869 482.312 987.209 482.408C986.304 483.461 985.47 484.566 984.591 485.663C986.513 486.307 988.443 486.899 990.365 487.526C991.008 487.717 991.643 487.918 992.269 488.135C991.513 488.692 990.739 489.241 989.974 489.798C989.382 489.693 988.8 489.58 988.209 489.458C983.757 488.623 979.27 487.978 974.74 487.778C976.757 489.589 978.87 491.025 981.244 492.313C985.435 494.576 988.574 498.18 992.913 500.251C994.06 500.965 995.217 501.592 996.321 502.358C1000.09 506.501 1001.44 512.942 1000.12 518.304L999.19 517.869C998.025 513.343 998.756 508.773 995.669 504.839C994.069 502.593 991.8 501.801 989.374 500.774C988.052 508.494 988.13 516.398 990.495 523.918C988.339 521.029 987.339 518.017 986.748 514.483C986.791 509.635 987.617 504.891 987.878 500.069L986.948 499.137C984.444 497.162 981.826 495.273 979.044 493.689C978.027 493.21 977.009 492.748 975.975 492.296C976.879 494.951 977.957 497.527 979.061 500.095C979.731 501.783 980.331 503.498 980.939 505.213C980.148 505.021 979.366 504.839 978.574 504.656C977.383 502.053 976.209 499.886 973.81 498.189C970.471 497.544 968.149 495.656 965.14 494.124C965.645 498.511 965.245 502.454 968.575 505.831C973.653 511.819 981.983 513.073 984.844 520.01C986.835 524.153 985.748 527.861 984.104 531.865C983.522 531.987 982.939 532.109 982.357 532.222C983.818 527.696 984.209 522.308 981.426 518.191C979.696 515.58 977.192 514.422 974.488 513.099C974.783 517.277 976.888 521.742 973.157 524.972C972.697 521.116 973.479 516.415 971.879 512.829C970.166 510.322 967.706 508.294 965.671 506.049C965.81 508.294 966.071 510.644 965.827 512.89C965.314 515.754 963.071 518.252 962.541 521.09C963.801 526.364 968.01 529.707 968.514 535.391C968.723 539.212 968.653 543.399 965.167 545.792C965.436 541.91 967.488 537.358 966.027 533.693C964.688 529.933 962.175 526.538 960.297 523.013C959.019 525.137 957.306 527.304 956.619 529.707C956.324 532.222 956.48 534.807 956.367 537.34C955.228 535.8 954.385 534.451 954.48 532.422C953.985 526.477 959.106 522.308 961.506 517.025C964.288 512.403 963.245 507.99 963.445 502.837C962.836 503.063 962.236 503.281 961.628 503.507C961.523 506.022 961.428 508.547 961.358 511.062C960.323 510.235 959.306 509.513 959.184 508.085C958.871 504.012 960.897 501.357 962.184 497.78C962.854 494.333 962.828 490.633 962.706 487.134C959.958 489.223 957.097 491.26 954.602 493.645C952.68 495.395 952.628 497.632 952.011 500.017C950.933 505.483 948.794 510.27 946.889 515.501C946.376 516.772 945.837 518.034 945.289 519.288C945.159 517.538 945.037 515.806 944.994 514.056C947.315 508.799 949.837 504.064 949.515 498.093C947.081 500.252 944.394 502.532 942.916 505.491C941.733 507.92 941.516 510.975 941.22 513.639C940.977 511.637 940.533 509.687 940.159 507.711L939.438 508.016L939.264 508.338C935.847 510.131 933.855 512.411 932.221 515.884C931.551 517.234 930.864 518.565 930.169 519.906C930.082 517.207 930.03 514.718 931.56 512.368C933.995 507.981 938.455 507.163 941.49 503.15C945.655 497.736 950.715 493.471 955.993 489.249C957.054 489.171 957.219 489.641 957.184 488.222C959.584 487.352 961.315 484.88 963.28 483.278C963.558 485.724 963.958 488.144 964.227 490.59C964.497 488.161 964.923 485.794 965.74 483.487C967.384 484.697 969.079 485.829 970.879 486.777L970.957 485.002C971.262 486.394 971.453 487.813 971.67 489.215C969.775 488.057 967.792 487.082 965.74 486.238C965.697 488.109 965.723 489.972 965.749 491.843C968.871 493.14 971.479 494.289 973.166 497.423C974.044 497.475 974.931 497.518 975.809 497.571C975.418 495.49 975.001 493.427 974.87 491.304C974.592 487.256 971.888 483.696 971.097 479.657C971.557 479.135 972.018 478.604 972.47 478.082Z" fill="#B8B495"/>
<path d="M939.146 477.046C938.563 478.769 937.998 480.493 937.329 482.19C936.642 483.766 936.711 484.653 937.111 486.325C938.755 484.967 940.389 483.6 941.981 482.181L941.381 483.235C941.963 483.391 942.546 483.539 943.12 483.696C944.285 484.009 945.441 484.114 946.624 484.253C947.389 484.262 948.145 484.262 948.911 484.253C949.928 483.313 950.954 482.373 951.989 481.433C952.232 482.086 952.484 482.738 952.728 483.383C953.728 482.991 954.719 482.591 955.719 482.199C956.397 482.564 957.075 482.93 957.753 483.296C958.692 482.477 959.649 481.659 960.579 480.832C959.51 483.2 958.093 484.697 956.075 486.299C956.397 486.977 956.771 487.613 957.188 488.222C957.223 489.641 957.058 489.171 955.997 489.249C954.258 488.84 952.597 488.457 950.823 488.945C946.241 490.059 941.12 491.512 937.842 495.116C935.468 497.701 933.39 500.408 930.381 502.323C931.294 500.095 932.346 497.936 933.459 495.804C931.425 496.935 929.381 497.919 927.164 498.615C927.981 497.057 928.851 495.534 929.755 494.028C935.755 493.749 939.433 489.893 944.972 488.187C945.25 487.656 945.519 487.125 945.798 486.594C941.441 486.89 937.129 486.977 932.764 486.856C932.799 486.238 932.833 485.62 932.868 485.002C934.285 483.304 935.659 481.563 936.99 479.788C935.807 479.883 934.616 479.971 933.433 480.058C935.224 478.526 936.79 477.638 939.146 477.046Z" fill="#C8C4AF"/>
<path d="M967.194 479.213C968.533 481.033 970.055 482.939 970.959 485.002L970.881 486.777C969.081 485.829 967.386 484.697 965.742 483.487C966.22 482.06 966.707 480.641 967.194 479.213Z" fill="#DFDCCE"/>
<path d="M976.045 481.346C977.593 482.425 979.158 483.496 980.671 484.619L981.636 485.419L981.297 486.081C978.845 486.029 976.419 485.794 973.976 485.576C973.863 484.566 973.75 483.548 973.637 482.538C974.437 482.146 975.245 481.746 976.045 481.346Z" fill="#FCFCFC"/>
<path d="M987.211 482.408C987.872 482.312 988.533 482.242 989.194 482.181C990.394 483.174 991.62 484.122 992.811 485.115C992.002 485.915 991.185 486.725 990.367 487.526C988.446 486.899 986.515 486.307 984.594 485.663C985.472 484.567 986.307 483.461 987.211 482.408Z" fill="#FCFCFA"/>
<path d="M992.811 485.115C994.811 486.934 996.376 489.005 998.063 491.086C996.837 491.251 995.61 491.417 994.384 491.591C995.402 495.125 995.55 498.78 996.324 502.358C995.219 501.592 994.063 500.965 992.915 500.251C993.202 495.751 990.689 492.862 988.211 489.458C988.802 489.58 989.385 489.693 989.976 489.798C990.741 489.241 991.515 488.692 992.272 488.135C991.646 487.918 991.011 487.718 990.367 487.526C991.185 486.725 992.002 485.915 992.811 485.115Z" fill="#DEDCD4"/>
<path d="M965.742 486.238C967.794 487.082 969.776 488.057 971.672 489.215C972.75 489.885 973.811 490.607 974.872 491.304C975.002 493.428 975.42 495.49 975.811 497.571C974.933 497.518 974.046 497.475 973.168 497.423C971.481 494.289 968.872 493.14 965.751 491.843C965.725 489.972 965.699 488.109 965.742 486.238Z" fill="white"/>
<path d="M974.742 487.778C979.272 487.979 983.759 488.623 988.211 489.458C990.689 492.862 993.202 495.751 992.915 500.251C988.576 498.18 985.437 494.576 981.246 492.313C978.872 491.025 976.759 489.589 974.742 487.778Z" fill="white"/>
<path d="M975.977 492.296C977.011 492.749 978.029 493.21 979.046 493.689C981.828 495.273 984.446 497.162 986.95 499.137C986.75 501.427 986.315 503.551 985.637 505.735C983.646 503.577 981.602 501.601 979.063 500.095C977.959 497.527 976.881 494.951 975.977 492.296Z" fill="white"/>
<path d="M986.952 499.138L987.882 500.069C987.621 504.891 986.795 509.635 986.752 514.483C986.291 512.159 985.899 509.818 985.543 507.476C982.987 506.78 979.691 507.589 978.578 504.656C979.369 504.839 980.152 505.022 980.943 505.213C980.335 503.499 979.735 501.784 979.065 500.095C981.604 501.601 983.647 503.577 985.639 505.736C986.317 503.551 986.752 501.427 986.952 499.138Z" fill="#E0DFDA"/>
<path d="M939.441 508.016L940.163 507.711C940.536 509.687 940.98 511.637 941.224 513.639C940.797 517.747 940.615 521.786 940.771 525.912C940.18 525.946 939.597 525.972 939.015 525.999C938.563 522.874 938.067 519.906 938.571 516.737C939.015 513.943 939.406 511.167 939.267 508.338L939.441 508.016Z" fill="#CAC7B5"/>
<path d="M944.996 514.057C945.039 515.806 945.161 517.538 945.291 519.288C945.839 518.034 946.378 516.772 946.891 515.502C946.856 518.235 946.961 520.985 947.039 523.718C946.483 523.988 945.926 524.249 945.37 524.519C943.987 521.072 943.552 517.582 944.996 514.057Z" fill="#D6D6CD"/>
<path d="M932.224 515.885C932.163 518.47 932.485 521.012 932.937 523.544C932.085 523.414 931.224 523.283 930.372 523.153C930.302 522.074 930.224 520.985 930.172 519.906C930.867 518.566 931.554 517.234 932.224 515.885Z" fill="#D8D7CC"/>
</svg>
