<svg width="1125" height="504" viewBox="0 0 1125 504" fill="none" xmlns="http://www.w3.org/2000/svg">
<path d="M0.211259 423.727C-0.232691 419.319 -0.222925 416.806 2.74476 413.091C16.4436 395.942 54.7152 410.383 47.544 432.368L44.8807 433.051C45.4789 434.946 45.1214 435.077 44.6869 437.173L43.5217 437.41C41.8956 438.357 39.4345 439.411 37.6599 440.02C29.3482 442.834 20.2545 442.191 12.4221 438.234C5.89073 434.867 2.38249 430.601 0.211259 423.727Z" fill="#68402E"/>
<path d="M0.211259 423.727C2.64772 423.01 4.60214 424.303 6.88265 425.517C14.693 429.675 18.288 432.869 27.3737 433.936C32.7286 431.265 43.4582 425.226 47.544 432.368L44.8807 433.051C45.4789 434.946 45.1214 435.077 44.6869 437.173L43.5217 437.41C41.8956 438.357 39.4345 439.411 37.6599 440.02C29.3482 442.834 20.2545 442.191 12.4221 438.234C5.89073 434.867 2.38249 430.601 0.211259 423.727Z" fill="#4A2E21"/>
<path d="M43.5217 437.41C40.5052 434.928 37.0505 435.807 33.751 433.635L34.2503 432.926C38.6847 431.477 40.2807 431.947 44.8807 433.051C45.4789 434.946 45.1214 435.077 44.6869 437.173L43.5217 437.41Z" fill="#A66D47"/>
<path d="M17.3076 412.631C24.3317 411.848 40.7483 414.35 42.1791 422.617L41.2543 423.246C39.0619 423.169 37.582 421.697 35.7156 420.332C30.7538 417.991 26.6172 416.389 20.9854 416.589C17.6859 416.706 9.62453 420.426 7.72852 417.251C9.32474 414.905 14.6837 413.336 17.3076 412.631Z" fill="#91674E"/>
<path d="M47.544 432.368C48.9319 437.058 50.4342 442.988 54.9273 445.169C63.6689 449.414 92.4624 444.203 99.7635 447.451L100.345 447.881L100.488 449.637C102.122 453.807 104.669 455.455 108.435 457.446C112.049 457.144 115.666 456.867 119.284 456.613C121.38 458.107 125.82 462.614 128.148 464.724L128.178 465.441L128.23 464.767L127.524 465.174C123.949 463.378 122.062 461.45 119.49 458.483C117.194 457.494 111.453 458.478 108.585 458.78C104.612 456.99 103.608 455.548 101.468 454.542C96.9083 462.137 116.035 467.81 116.674 476.085L116.084 476.73C114.957 475.152 113.475 472.607 111.871 471.844C110.894 474.248 110.884 478.728 110.509 481.571L109.77 481.442C108.002 478.28 114.077 467.255 103.842 464.901C102.844 466.737 105.05 470.511 104.836 472.759C104.6 475.232 103.022 478.869 102.095 481.163L100.453 481.187L100.406 481.499L101.643 482.015C101.328 482.519 101.152 482.621 100.725 483.043C99.7678 480.519 102.811 474.508 103.965 471.854C103.102 469.864 101.897 467.728 100.873 465.791C96.465 470.324 96.8836 470.513 93.9297 475.89L93.4316 475.032C93.627 471.584 98.0364 466.422 100.238 463.501C99.5037 461.482 98.9144 458.915 98.3649 456.79C90.7621 461.734 90.4648 464.618 88.2687 473.25C88.0819 457.991 89.5653 463.829 98.0235 454.514C98.396 454.104 98.864 451.688 98.3295 450.494C91.2312 449.095 69.2376 451.078 60.0044 449.753L59.4302 449.666C49.4617 448.231 48.5401 446.013 44.6869 437.173C45.1214 435.077 45.4789 434.946 44.8807 433.051L47.544 432.368Z" fill="#D7C8B6"/>
<path d="M47.544 432.368C48.9319 437.058 50.4342 442.988 54.9273 445.169C63.6689 449.414 92.4624 444.203 99.7635 447.451L100.345 447.881L100.488 449.637C87.3123 449.568 72.476 449.169 59.4302 449.666C49.4617 448.231 48.5401 446.013 44.6869 437.173C45.1214 435.077 45.4789 434.946 44.8807 433.051L47.544 432.368Z" fill="#91674E"/>
<path d="M97.3863 405.78C100.019 405.051 100.453 405.254 102.549 407.312C107.559 414.268 106.675 419.308 100.633 424.964C100.626 426.121 100.531 427.625 100.841 428.689L99.3152 428.666L99.1928 428.297C99.2046 425.957 99.2379 425.594 98.1634 423.538C91.663 417.204 92.0656 412.519 97.3863 405.78Z" fill="#819C4B"/>
<path d="M102.549 407.312C107.559 414.268 106.675 419.308 100.633 424.964C101.65 417.853 100.422 413.306 101.038 408.423L102.549 407.312Z" fill="#96B05E"/>
<path d="M98.1634 423.538C91.663 417.204 92.0656 412.519 97.3863 405.78C98.6014 412.101 97.5194 417.849 98.1634 423.538Z" fill="#96B05E"/>
<path d="M76.9854 426.666C81.5118 419.574 93.0378 417.073 96.7999 425.751L96.8053 426.349C97.5449 427.019 98.3341 427.826 99.1928 428.297L99.3152 428.666L97.8486 429.561L96.4307 428.921C89.7704 432.657 85.2751 432.803 78.5149 429.334L76.9854 426.666Z" fill="#91AC5A"/>
<path d="M78.5149 429.334C80.7722 428.193 83.8182 426.537 86.2215 425.86C89.7605 424.864 94.3344 427.93 96.8053 426.349C97.5449 427.019 98.3341 427.826 99.1928 428.297L99.3152 428.666L97.8486 429.561L96.4307 428.921C89.7704 432.657 85.2751 432.803 78.5149 429.334Z" fill="#91AC5A"/>
<path d="M76.9854 426.666C84.923 424.028 88.9696 422.497 96.7999 425.751L96.8053 426.349C94.3344 427.93 89.7605 424.864 86.2215 425.86C83.8182 426.537 80.7722 428.193 78.5149 429.334L76.9854 426.666Z" fill="#789144"/>
<path d="M103.425 425.85C106.466 417.61 118.768 418.537 122.309 424.42C122.322 432.692 108.614 430.668 103.67 429.046C102.08 429.747 102.634 429.386 101.535 430.835L100.841 428.689C101.305 428.346 102.782 426.856 103.281 426.372L103.425 425.85Z" fill="#91AC5A"/>
<path d="M103.425 425.85C109.135 423.723 111.677 422.053 117.527 424.564L117.792 425.269C116.822 425.457 116.411 425.538 115.407 425.323C111.321 424.446 108.297 425.943 104.492 427.133C104.47 427.14 103.461 426.539 103.281 426.372L103.425 425.85Z" fill="#789144"/>
<path d="M100.841 428.689L101.535 430.835C100.265 436.798 101.566 442.831 100.345 447.881L99.7635 447.451C97.9516 441.655 100.515 436.244 97.8486 429.561L99.3152 428.666L100.841 428.689Z" fill="#819C4B"/>
<path d="M872.527 94.5369L876.037 94.2986L872.842 94.9855C871.589 97.1699 872.126 157.469 872.737 164.205C877.734 145.689 877.994 138.939 887.267 121.187L887.945 122.027L888.552 123.234C886.028 129.724 882.65 137.358 880.669 143.918C872.054 172.437 871.932 199.768 872.488 229.169C876.143 217.34 881.004 201.116 888.403 191.037L890.1 192.294C882.159 206.399 875.647 224.354 873.342 240.438C882.622 220.834 885.224 204.679 908.036 224.334C905.479 223.371 891.546 217.654 889.828 219.071C883.352 224.413 879.141 237.777 875.991 245.288C871.505 255.984 872.633 265.723 872.681 276.953L872.657 309.124L872.714 352.793C872.738 358.993 872.49 371.264 873.356 377.02C876.97 348.851 881.485 320.803 886.892 292.922C888.171 286.149 895.865 233.721 907.83 239.022C922.159 245.37 930.699 280.089 934.141 294.754C926.337 280.75 915.455 260.745 905.152 248.61C899.102 279.285 894.212 310.124 887.893 340.899C885.366 353.34 882.588 365.727 879.559 378.056C874.732 397.085 872.462 402.413 872.725 422.721C875.411 416.693 877.305 408.463 879.342 401.994C887.121 377.287 895.679 352.899 903.384 328.169C902.046 355.196 893.044 384.33 884.319 409.868C880.801 420.165 875.628 430.097 872.945 440.372C872.649 441.509 872.428 448.102 872.367 449.653L869.266 448.418C868.05 441.805 861.143 426.743 858.71 419.603C850.463 395.404 838.399 358.541 837.426 333.018C848.446 366.988 859.528 397.517 869.669 432.244C869.412 414.769 867.127 408.144 863.057 391.501C860.032 378.955 857.294 366.339 854.844 353.667C851.29 334.941 847.851 316.193 844.526 297.425C842.432 285.665 840.234 271.599 837.203 260.21C828.295 271.342 821.007 282.88 814.048 295.284C812.044 298.857 810.005 302.568 807.654 305.913C811.316 289.806 816.322 271.181 825.694 257.36C827.672 254.443 830.505 251.156 834.199 250.587C836.604 250.217 839.313 251.221 841.186 252.705C851.928 261.21 865.813 366.731 868.214 386.681L868.477 386.644C869.764 385.553 869.494 384.082 869.762 381.942L869.758 313.466C869.767 303.234 870.188 283.442 869.603 274.125C868.793 261.209 854.978 225.947 844.786 217.102C839.162 222.002 834.125 228.343 827.69 233.855C848.165 190.253 860.517 231.982 869.363 255.007C864.877 229.253 860.063 205.421 845.998 182.763L847.244 181.882L847.779 181.861C859.299 199.487 864.89 219.198 869.514 239.501C872.308 198.572 866.655 157.506 852.905 118.853L853.056 118.439L853.225 116.651L854.695 117.94C864.02 137.987 864.481 148.586 869.521 169.08L869.923 119.053C869.953 114.024 870.26 99.3971 869.452 94.9351L869.641 94.6066L872.527 94.5369Z" fill="#C9A86C"/>
<path d="M869.762 381.942C869.834 384.199 870.282 392.621 869.039 394.125C868.385 391.442 868.36 389.425 868.214 386.681L868.477 386.644C869.764 385.553 869.494 384.082 869.762 381.942Z" fill="#D9CBB8"/>
<path d="M878.761 28.1248L880.008 28.1097L880.267 33.2845C879.909 34.2817 878.494 38.0224 878.532 38.8307L881.951 39.0593L881.655 41.0815C880.878 45.2817 880.496 45.9751 878.683 49.8414L878.326 49.9766L879.242 51.1069L878.958 52.5935C880.265 53.302 880.848 55.0677 881.764 56.3729L880.202 59.6886L882.698 59.0553L883.308 59.7551L883.235 60.1791C882.946 64.2773 882.226 65.7757 880.756 69.5143C882.544 70.256 882.92 68.8016 883.141 69.9651C883.578 72.2675 881.805 77.2931 881.013 79.3465L881.27 80.0892L882.84 79.7919L883.426 80.9565C882.605 85.7717 882.309 90.5085 878.286 93.7437L876.037 94.2986L872.527 94.5369L869.641 94.6066L869.452 94.9351C862.205 95.4525 856.384 86.3739 859.083 80.9791L861.487 81.0327C862.025 77.5378 857.131 74.6923 859.498 70.1605L861.417 69.8503C860.778 68.3293 860.331 66.9951 859.815 65.4387C859.487 64.1646 859.303 62.7896 859.087 61.4833C859.316 61.0217 859.535 60.5548 859.744 60.0836C861.433 56.2226 859.942 54.1993 858.336 50.1269L858.797 44.8706L859.574 44.321L859.63 39.07L860.688 39.4704L863.794 39.2428C862.159 35.3926 861.922 33.5078 862.508 29.3624L864.292 28.479C865.642 29.605 867.587 31.332 868.985 32.2798L869.493 32.6673L870.927 33.0398C872.748 32.7006 873.044 32.2508 874.538 31.0186C875.99 29.4804 876.936 29.0929 878.761 28.1248Z" fill="#96B05E"/>
<path d="M878.761 28.1248L880.008 28.1097L880.267 33.2845C879.909 34.2817 878.494 38.0224 878.532 38.8307L881.951 39.0593L881.655 41.0815C880.878 45.2817 880.496 45.9751 878.683 49.8414L878.326 49.9766C875.705 51.9216 873.291 53.7034 870.798 55.8351C870.334 58.466 870.461 61.6733 869.283 63.5087L867.534 64.0776C865.282 63.8029 863.143 61.2568 860.996 61.2117C860.109 62.723 860.085 63.7298 859.815 65.4387C859.487 64.1646 859.303 62.7896 859.087 61.4833C859.316 61.0217 859.535 60.5548 859.744 60.0836C861.433 56.2226 859.942 54.1993 858.336 50.1269L858.797 44.8706L859.574 44.321L859.63 39.07L860.688 39.4704L863.794 39.2428C862.159 35.3926 861.922 33.5078 862.508 29.3624L864.292 28.479C865.642 29.605 867.587 31.332 868.985 32.2798L869.493 32.6673L870.927 33.0398C872.748 32.7006 873.044 32.2508 874.538 31.0186C875.99 29.4804 876.936 29.0929 878.761 28.1248Z" fill="#91AC5A"/>
<path d="M858.336 50.1269L858.797 44.8706L859.574 44.321C859.671 46.7329 859.246 47.3532 860.539 48.8517L862.721 49.0202L864.544 49.3293L864.431 50.7698C866.509 52.6815 868.105 52.6976 869.178 53.7302L870.798 55.8351C870.334 58.466 870.461 61.6733 869.283 63.5087L867.534 64.0776C865.282 63.8029 863.143 61.2568 860.996 61.2117C860.109 62.723 860.085 63.7298 859.815 65.4387C859.487 64.1646 859.303 62.7896 859.087 61.4833C859.316 61.0217 859.535 60.5548 859.744 60.0836C861.433 56.2226 859.942 54.1993 858.336 50.1269Z" fill="#819C4B"/>
<path d="M860.688 39.4704L863.794 39.2428C865.152 40.4407 867.985 43.3602 869.422 43.5674L870.126 42.9384C870.811 45.7947 869.791 49.4978 866.837 50.7011L864.544 49.3293L862.721 49.0202L860.539 48.8517C859.246 47.3532 859.671 46.7329 859.574 44.321L859.63 39.07L860.688 39.4704Z" fill="#91AC5A"/>
<path d="M859.63 39.07L860.688 39.4704C860.886 43.4827 861.549 45.2333 862.721 49.0202L860.539 48.8517C859.246 47.3532 859.671 46.7329 859.574 44.321L859.63 39.07Z" fill="#F2F3EE"/>
<path d="M878.761 28.1248L880.008 28.1097L880.267 33.2845C879.909 34.2817 878.494 38.0224 878.532 38.8307C877.448 40.5051 875.871 41.7374 874.369 43.0855C874.002 43.2251 872.989 43.092 872.522 43.0609L873.851 41.4765C872.141 37.563 871.833 39.3126 871.564 34.3225L870.927 33.0398C872.748 32.7006 873.044 32.2508 874.538 31.0186C875.99 29.4804 876.936 29.0929 878.761 28.1248Z" fill="#96B05E"/>
<path d="M878.761 28.1248L880.008 28.1097L880.267 33.2845C876.294 33.3028 875.278 33.2094 871.564 34.3225L870.927 33.0398C872.748 32.7006 873.044 32.2508 874.538 31.0186C875.99 29.4804 876.936 29.0929 878.761 28.1248Z" fill="#819C4B"/>
<path d="M862.508 29.3624L864.292 28.479C865.642 29.605 867.587 31.332 868.985 32.2798L869.493 32.6673C870.351 36.4993 870.63 37.1154 869.226 40.8894L868.558 41.4701L870.124 42.9385L869.421 43.5675C867.984 43.3603 865.152 40.4407 863.794 39.2428C862.159 35.3926 861.922 33.5078 862.508 29.3624Z" fill="#96B05E"/>
<path d="M869.493 32.6673L870.927 33.0398L871.564 34.3225C871.833 39.3126 872.141 37.563 873.851 41.4765L872.522 43.0609C871.412 45.8001 874.655 48.6574 872.645 52.8393C871.089 53.551 870.907 53.5316 869.178 53.7302C868.105 52.6976 866.509 52.6815 864.431 50.7698L864.544 49.3293L866.835 50.7011C869.789 49.4979 870.81 45.7947 870.124 42.9385L868.558 41.4701L869.226 40.8894C870.63 37.1154 870.351 36.4993 869.493 32.6673Z" fill="#789144"/>
<path d="M878.532 38.8307L881.951 39.0593L881.655 41.0815C878.675 44.0666 878.169 45.8355 874.369 43.0855C875.871 41.7374 877.448 40.5051 878.532 38.8307Z" fill="#89A551"/>
<path d="M859.815 65.4387C860.085 63.7298 860.109 62.723 860.996 61.2117C863.143 61.2568 865.282 63.8029 867.534 64.0776C870.761 66.467 871.676 68.7683 869.689 72.7849C866.915 73.8121 864.784 70.3966 862.212 69.8674L863.312 71.9004C862.17 78.4727 864.309 78.1625 863.919 83.4993C863.875 84.1058 862.594 84.3484 862.503 87.1735L863.267 88.3907C864.903 88.0151 865.554 86.2107 866.061 84.7026L865.798 84.3752L866.551 84.8496C868.051 86.1098 869.152 86.7871 869.946 88.5636L869.641 94.6066L869.452 94.9351C862.205 95.4525 856.384 86.3739 859.083 80.9791L861.487 81.0327C862.025 77.5378 857.131 74.6923 859.498 70.1605L861.417 69.8503C860.778 68.3293 860.331 66.9951 859.815 65.4387Z" fill="#89A551"/>
<path d="M870.797 55.8351C873.29 53.7033 875.704 51.9215 878.325 49.9766L879.241 51.1068L878.957 52.5935C880.264 53.3019 880.847 55.0676 881.763 56.3728L880.201 59.6885L882.697 59.0552L883.307 59.7551L883.234 60.179C879.601 62.4181 878.431 62.972 874.41 64.4071C873.376 64.1065 872.85 63.9734 871.761 63.7749C869.668 66.1556 872.203 71.4195 874.282 73.0542C876.024 72.2385 877.939 71.0341 879.714 71.2703L879.96 71.8349C878.175 74.4528 877.246 73.1047 873.872 74.9251L872.125 73.3226C867.837 74.5806 872.67 77.6451 863.311 71.9004L862.211 69.8674C864.783 70.3965 866.914 73.812 869.688 72.7848C871.675 68.7682 870.76 66.4669 867.533 64.0776L869.282 63.5087C870.46 61.6732 870.333 58.4659 870.797 55.8351Z" fill="#789144"/>
<path d="M878.958 52.5935C880.265 53.302 880.848 55.0677 881.764 56.3729L880.202 59.6886L879.311 59.7615L878.982 59.4062L875.514 61.9866L874.24 61.7741L873.435 60.309C873.367 54.999 874.293 54.0093 878.958 52.5935Z" fill="#91AC5A"/>
<path d="M883.426 80.9565C882.605 85.7717 882.309 90.5085 878.286 93.7437L876.037 94.2986L872.527 94.5369L869.641 94.6066L869.946 88.5636L870.248 86.7785C870.044 85.66 870.266 85.4572 870.711 84.401C872.439 84.1541 872.697 84.7004 874.493 85.659C876.527 83.5047 880.634 82.0546 883.426 80.9565Z" fill="#96B05E"/>
<path d="M870.248 86.7785C870.044 85.66 870.266 85.4572 870.711 84.401C872.439 84.1541 872.697 84.7004 874.493 85.659C875.599 90.5504 875.343 90.0191 878.286 93.7437L876.037 94.2986L872.527 94.5369L869.641 94.6066L869.946 88.5636L870.248 86.7785Z" fill="#89A551"/>
<path d="M870.248 86.7785C871.86 88.4476 872.131 92.1132 872.527 94.5369L869.641 94.6066L869.946 88.5636L870.248 86.7785Z" fill="#A58E4C"/>
<path d="M866.551 84.8496C867.623 84.474 868.128 84.2045 869.11 83.6925C870.361 81.8603 870.669 79.8809 871.173 77.7288C873.736 81.4824 877.273 84.3495 881.27 80.0892L882.84 79.7919L883.426 80.9565C880.634 82.0546 876.527 83.5047 874.493 85.659C872.697 84.7004 872.439 84.1541 870.711 84.401C870.266 85.4572 870.044 85.66 870.248 86.7785L869.946 88.5636C869.152 86.7871 868.051 86.1098 866.551 84.8496Z" fill="#819C4B"/>
<path d="M836.422 75.2719L837.521 75.3438C837.77 71.4002 831.068 64.1635 831.251 61.6313L831.967 61.7022C836.385 67.507 839.941 74.1373 843.001 80.4756C844.888 84.3838 844.493 88.4111 847.866 88.8748C848.4 88.9489 850.701 96.8285 852.424 97.0776C853.011 97.4436 853.084 97.771 853.319 98.4354C853.958 104.496 863.705 110.21 854.695 117.94L853.225 116.651L853.056 118.439L852.905 118.853C847.791 120.899 842.277 119.099 839.739 113.276C839.561 112.869 840.292 112.091 840.6 111.649C839.869 110.93 839.144 110.204 838.426 109.471C836.171 107.16 835.9 106.945 835.928 104.078C835.549 101.093 830.856 101.617 832.545 96.5248C825.914 93.5923 817.868 77.7052 814.492 71.1082L814.962 70.6993C817.092 72.6861 824.202 85.9563 826.521 89.4448L827.036 89.0584L828.257 89.2408L828.432 88.8651L825.247 86.0282C823.965 80.3039 819.506 73.6414 816.682 68.4462C815.815 66.8512 814.23 65.5288 813.719 63.8876C819.536 66.2544 817.36 73.138 824.121 74.7169C822.183 70.6585 822.3 70.2087 822.442 65.7703L823.369 65.6308C829.229 65.1252 828.169 68.7479 831.819 71.8435C832.057 70.9719 832.603 70.096 833.038 69.2727L835.235 72.6013L836.422 75.2719Z" fill="#C9B27A"/>
<path d="M823.369 65.6308C829.229 65.1252 828.169 68.7479 831.819 71.8435C831.352 74.5806 831.325 77.0075 829.739 79.3485L828.349 77.131L827.344 76.9989L827.815 77.351C826.545 77.4594 826.523 77.8609 824.811 77.8297L822.964 75.5112L823.891 75.4361L824.121 74.7169C822.183 70.6585 822.3 70.2087 822.442 65.7703L823.369 65.6308Z" fill="#BD9F5B"/>
<path d="M853.319 98.4354C853.958 104.496 863.705 110.21 854.695 117.94L853.225 116.651C852.839 115.471 851.194 112.364 850.552 111.085C851.696 109.12 853.691 106.547 852.791 104.429C851.523 104.396 851.301 104.477 850.109 103.988C850.396 101.981 852.057 100.165 853.319 98.4354Z" fill="#CAB372"/>
<path d="M841.08 97.946C840.443 96.6332 839.532 95.152 839.416 93.7952L840.354 93.3916C842.124 95.2754 842.42 96.9112 843.876 96.9703C844.44 95.0983 844.603 94.6657 846.223 93.5494C848.122 93.3594 847.302 93.1233 848.794 94.1763C850.165 97.1871 848.808 100.203 847.829 103.334L847.252 103.75C844.724 102.072 844.649 101.024 842.472 103.316C841.331 102.392 841.053 102.243 840.245 101.046L841.56 99.4831L841.08 97.946Z" fill="#BD9F5B"/>
<path d="M840.6 111.649L842.417 112.12L843.599 112.663C847.59 112.872 849.847 113.772 851.982 117.446L853.056 118.439L852.905 118.853C847.791 120.899 842.277 119.099 839.739 113.276C839.561 112.869 840.292 112.091 840.6 111.649Z" fill="#C9A86C"/>
<path d="M835.928 104.078C836.631 103.685 837.261 103.648 838.077 103.484C842.564 106.015 843.421 104.08 847.478 108.657L847.642 110.041C845.181 112.268 844.725 110.086 842.417 112.12L840.6 111.649C839.869 110.93 839.144 110.204 838.426 109.471C836.171 107.16 835.9 106.945 835.928 104.078Z" fill="#BD9F5B"/>
<path d="M832.545 96.5248C835.466 96.075 835.396 95.563 837.44 98.0565C838.853 98.2025 839.659 98.078 841.08 97.946L841.56 99.4831L840.245 101.046C841.053 102.243 841.331 102.392 842.472 103.316L838.077 103.484C837.261 103.648 836.631 103.685 835.928 104.078C835.549 101.093 830.856 101.617 832.545 96.5248Z" fill="#C9A86C"/>
<path d="M831.819 71.8435C832.057 70.9719 832.603 70.096 833.038 69.2727L835.235 72.6013C833.704 75.99 832.246 77.6891 832.32 81.2356L830.278 80.8105L829.739 79.3485C831.325 77.0075 831.352 74.5806 831.819 71.8435Z" fill="#BD9F5B"/>
<path d="M835.235 72.6013L836.422 75.2719C834.864 78.2988 836.196 81.1261 834.325 82.9165L832.32 81.2356C832.246 77.6891 833.704 75.99 835.235 72.6013Z" fill="#C9A86C"/>
<path d="M838.568 75.9406L839.634 75.7753C841.531 77.4648 841.718 79.296 841.809 81.725L840.995 82.4238C840.698 81.959 840.464 81.7379 840.377 81.256C839.471 83.0721 838.988 84.3537 837.559 85.8092L836.829 85.4142C836.396 82.7877 837.242 78.1936 838.568 75.9406Z" fill="#BD9F5B"/>
<path d="M838.568 75.9406L839.634 75.7753C841.531 77.4648 841.718 79.296 841.809 81.725L840.995 82.4238C840.698 81.959 840.464 81.7379 840.377 81.256C840.01 79.4387 839.241 77.6816 838.568 75.9406Z" fill="#F2F3EE"/>
<path d="M841.8 87.0748C842.297 87.2927 842.53 87.6662 842.956 88.1138L842.827 89.5167C841.566 90.9615 841.044 91.6656 840.295 93.4292C839.133 92.2023 839.124 92.1476 838.791 90.4495C839.316 88.6945 840.311 88.2136 841.8 87.0748Z" fill="#C9A86C"/>
<path d="M908.925 79.6266C912.421 74.9938 914.8 70.4577 919.205 66.6537C919.028 68.8992 912.368 75.0207 912.676 78.9417C914.958 76.5674 916.335 75.8987 919.306 74.6804L921.596 75.8032C921.118 78.0358 920.551 81.1132 919.744 83.1601L919.58 84.3301C921.75 84.2013 927.958 76.2755 930.344 74.2253C927.321 78.2709 915.387 95.3054 913.082 97.3985L914.244 97.9653L914.812 99.4186C912.939 101.876 911.934 102.346 909.276 103.976L910.085 105.762C909.417 107.166 908.951 107.793 907.215 107.997C904.237 112.327 907.494 111.919 902.577 115.294C902.013 122.13 895.05 125.815 888.552 123.234L887.945 122.027L887.267 121.187C886.253 120.814 885.709 120.482 884.945 119.667C883.807 118.451 883.207 116.828 883.281 115.164C883.495 109.595 887.847 107.824 888.618 104.521C888.378 102.192 890.781 101.051 892.469 100.063L893.474 96.9133C894.411 95.5255 894.401 96.8768 895.538 95.2528C896.962 93.2209 898.149 90.5665 899.256 88.3188L900.894 88.8265C902.731 87.7907 902.94 87.1059 903.558 84.8947C905.456 83.2213 907.157 81.4352 908.925 79.6266Z" fill="#A58E4C"/>
<path d="M908.925 79.6266C912.421 74.9938 914.8 70.4577 919.205 66.6537C919.028 68.8992 912.368 75.0207 912.676 78.9417C914.958 76.5674 916.335 75.8987 919.306 74.6804L921.596 75.8032C921.118 78.0358 920.551 81.1132 919.744 83.1601L919.58 84.3301C921.75 84.2013 927.958 76.2755 930.344 74.2253C927.321 78.2709 915.387 95.3054 913.082 97.3985C909.39 96.4293 907.807 98.4848 904.932 97.172L903.76 97.7034C903.014 98.4064 902.262 99.102 901.504 99.7911C899.67 98.9324 899.961 98.6769 898.815 96.6933L898.004 96.8747C897.51 98.7413 899.999 100.297 899.368 103.019C898.339 104.607 897.462 106.436 895.399 105.782C894.04 103.091 894.54 99.9693 893.474 96.9133C894.411 95.5255 894.401 96.8768 895.538 95.2528C896.962 93.2209 898.149 90.5665 899.256 88.3188L900.894 88.8265C902.731 87.7907 902.94 87.1059 903.558 84.8947C905.456 83.2213 907.157 81.4352 908.925 79.6266Z" fill="#C9B27A"/>
<path d="M919.308 74.6804L921.598 75.8032C921.12 78.0358 920.553 81.1132 919.746 83.1601C917.522 82.4324 916.713 82.368 914.394 82.0846C912.799 80.8448 913.307 81.3193 912.678 78.9417C914.96 76.5674 916.337 75.8987 919.308 74.6804Z" fill="#BD9F5B"/>
<path d="M904.932 97.172C907.807 98.4848 909.392 96.4293 913.083 97.3986L914.246 97.9653L914.813 99.4186C912.94 101.876 911.936 102.346 909.277 103.976L910.086 105.762C909.419 107.166 908.953 107.793 907.216 107.997C904.9 106.655 903.297 107.92 899.744 107.076L901.64 104.798L901.375 102.796C902.05 102.688 904.858 102.777 905.708 102.787C905.18 102.385 904.634 102.173 904.023 101.924L903.803 100.857L903.396 101.622L902.671 100.912L903.511 100.333C904.189 98.8294 904.052 99.4616 903.76 97.7034L904.932 97.172Z" fill="#CAB372"/>
<path d="M901.375 102.796L901.64 104.798L899.744 107.076C903.297 107.92 904.9 106.655 907.216 107.997C904.238 112.327 907.494 111.919 902.577 115.294L900.372 116.534C898.488 115.034 897.749 116.374 894.821 115.009C894.58 112.922 894.395 112.565 895.185 110.717C898.201 109.454 898.777 111.639 903.745 110.865L903.618 109.933C902.187 108.758 900.856 109.772 898.361 108.708L898.102 107.944C898.456 105.679 899.811 104.568 901.375 102.796Z" fill="#BD9F5B"/>
<path d="M900.372 116.534L902.578 115.294C902.014 122.13 895.05 125.815 888.552 123.234L887.945 122.027C890.132 120.691 891.525 118.07 892.902 117.193C894.479 116.187 897.558 117.783 900.372 116.534Z" fill="#CAB372"/>
<path d="M888.618 104.521C888.248 107.315 888.099 109.914 889.44 112.436C892.098 117.436 887.754 118.136 887.267 121.187C886.253 120.814 885.709 120.482 884.945 119.667C883.807 118.451 883.207 116.828 883.281 115.164C883.495 109.595 887.847 107.824 888.618 104.521Z" fill="#C9B27A"/>
<path d="M892.469 100.063C893.29 103.664 893.605 105.028 895.076 108.373C893.788 110.635 893.842 111.404 891.838 112.554C889.709 111.059 889.568 106.817 888.618 104.521C888.378 102.192 890.781 101.051 892.469 100.063Z" fill="#C9B27A"/>
<path d="M914.813 145.144C915.99 143.728 916.575 142.498 918.076 142.032C916.274 146.024 911.055 150.969 910.794 154.26C912.709 154.09 913.514 151.633 916.89 149.883C917.643 151.175 917.99 151.992 919.099 152.965C918.7 156.165 917.099 156.762 916.987 158.752L917.837 159.007C919.86 158.172 924.5 152.133 926.361 149.973C926.323 151.076 924.348 153.493 923.59 154.558L925.383 155.959C925.45 157.742 915.885 169.463 913.975 171.836L909.375 175.985C910.269 178.496 909.399 178.641 907.299 180.225L905.754 181.228C904.9 184.002 905.138 184.956 902.107 186.198C899.472 190.976 896.757 196.044 890.1 192.294L888.403 191.037C881.046 184.327 888.648 180.145 890.112 175.606C890.368 174.418 890.512 174.331 891.152 173.331L893.486 172.899C893.615 170.37 894.503 168.307 896.706 167.003L898.075 167.524C898.295 165.117 898.539 164.007 899.59 161.796C901.028 158.768 910.259 145.528 912.505 144.79L914.813 145.144Z" fill="#91AC5A"/>
<path d="M888.403 191.037C881.046 184.327 888.648 180.145 890.112 175.606C890.003 178.275 889.823 180.146 891.374 182.439C894.042 186.384 890.538 186.718 890.283 189.638C891.753 188.259 893.048 187.052 894.617 185.766C897.022 186.201 900.051 187.001 901.569 184.401C899.069 183.288 897.745 185.631 895.718 183.55C896.29 182.324 896.618 181.544 897.373 180.427C899.695 179.564 903.324 180.588 905.754 181.228C904.9 184.002 905.138 184.956 902.107 186.198C899.472 190.976 896.757 196.044 890.1 192.294L888.403 191.037Z" fill="#96B05E"/>
<path d="M916.888 149.883C917.642 151.175 917.989 151.992 919.097 152.965C918.699 156.165 917.098 156.762 916.986 158.752C914.376 160.198 914.61 160.256 912.143 158.897C910.319 161.09 910.145 160.618 909.857 163.064C911.033 164.469 911.266 164.077 913.524 164.359L913.72 165.239C911.845 165.845 909.118 165.744 907.071 165.793C905.947 163.976 905.696 160.571 905.867 158.416L906.357 158.471C906.128 155.842 908.217 154.045 910.01 151.685L910.259 154.135L910.793 154.26C912.708 154.09 913.513 151.633 916.888 149.883Z" fill="#819C4B"/>
<path d="M914.813 145.144C915.99 143.728 916.575 142.498 918.076 142.032C916.274 146.024 911.055 150.969 910.794 154.26L910.259 154.135L910.01 151.685C908.217 154.045 906.128 155.842 906.357 158.471L905.867 158.416L904.882 157.703C901.944 159.505 904.073 160.076 901.057 162.107L901.102 162.159C901.12 158.655 910.507 149.463 912.505 144.79L914.813 145.144Z" fill="#F2F3EE"/>
<path d="M914.811 145.144C915.989 143.728 916.574 142.498 918.074 142.032C916.273 146.024 911.053 150.969 910.793 154.26L910.259 154.135L910.01 151.685C910.976 150.103 913.605 146.77 914.811 145.144Z" fill="#BCC694"/>
<path d="M893.484 172.899C893.614 170.37 894.502 168.307 896.705 167.003L898.074 167.524C899.421 170.527 901.318 173.516 899.063 176.396C896.921 176.549 895.96 174.711 894.81 172.977L893.484 172.899Z" fill="#96B05E"/>
<path d="M903.109 174.126C902.83 172.371 901.854 171.584 901.029 169.207C901.884 169.191 902.192 169.623 903.07 170.191L904.17 169.422C905.086 170.336 904.774 170.376 904.886 172.106C908.377 171.647 910.458 171.219 913.974 171.836L909.374 175.985C906.603 175.525 905.735 175.154 903.109 174.126Z" fill="#89A551"/>
<path d="M903.109 174.126C905.735 175.154 906.604 175.525 909.375 175.985C910.269 178.496 909.399 178.641 907.299 180.225C905.605 176.292 902.016 179.13 900.111 176.36C900.828 174.935 901.552 174.834 903.109 174.126Z" fill="#96B05E"/>
<path d="M923.588 154.558L925.382 155.959C924.359 156.722 919.166 163.124 916.287 165.659L915.766 165.617C918.5 161.065 920.271 158.73 923.588 154.558Z" fill="#F2F3EE"/>
<path d="M824.913 144.226C823.708 140.1 820.111 136.756 819.419 133.662L819.783 133.186C823.226 136.544 826.478 144.475 832.289 150.533C830.195 144.841 827.806 142.55 825.697 137.189C827.027 137.743 834.701 150.114 835.715 152.221C836.667 153.996 837.532 155.361 838.007 157.323C836.864 155.08 844.381 166.404 843.159 164.877C845.486 166.081 845.954 167.74 846.015 170.413L846.701 170.74L848.416 171.19C850.366 174.578 850.979 179.026 847.779 181.861L847.244 181.882L845.998 182.763C840.496 185.531 834.473 183.389 834.395 176.942C832.295 175.691 831.659 175.436 830.369 173.255C829.715 169.555 828.138 171.323 826.508 167.286C826.377 165.271 823.264 163.132 821.409 161.425C822.554 161.144 823.626 160.391 824.659 159.775C822.967 159.011 820.914 157.683 820.411 155.818L821.11 154.821L823.715 154.428L819.842 153.275L817.209 149.919L818.145 149.094C819.004 149.064 818.584 149.142 819.358 148.678C817.991 145.767 817.867 146.549 818.164 143.668L819.038 140.439C821.006 141.686 822.963 142.948 824.913 144.226Z" fill="#89A551"/>
<path d="M824.913 144.226C823.708 140.1 820.111 136.756 819.419 133.662L819.783 133.186C823.226 136.544 826.478 144.475 832.289 150.533C830.195 144.841 827.806 142.55 825.697 137.189C827.027 137.743 834.701 150.114 835.715 152.221L834.486 152.892C832.937 151.958 832.929 151.12 832.037 149.26C830.906 153.484 830.519 157.985 833.184 161.705L833.515 162.342L833.226 163.158C830.53 162.845 828.937 158.627 824.659 159.775C822.967 159.011 820.914 157.683 820.411 155.818L821.11 154.821L823.715 154.428L819.842 153.275L817.209 149.919L818.145 149.094C819.004 149.064 818.584 149.142 819.358 148.678C817.991 145.767 817.867 146.549 818.164 143.668L819.038 140.439C821.006 141.686 822.963 142.948 824.913 144.226Z" fill="#789144"/>
<path d="M819.038 140.439C821.006 141.686 822.963 142.948 824.913 144.226L824.775 150.046C824.554 151.178 824.199 153.5 823.715 154.428L819.842 153.275L817.209 149.919L818.145 149.094C819.004 149.064 818.584 149.142 819.358 148.678C817.991 145.767 817.867 146.549 818.164 143.668L819.038 140.439Z" fill="#819C4B"/>
<path d="M824.911 144.226C823.707 140.1 820.11 136.756 819.418 133.662L819.782 133.186C823.225 136.544 826.477 144.475 832.288 150.533C830.194 144.841 827.805 142.55 825.696 137.189C827.026 137.743 834.7 150.114 835.714 152.221L834.485 152.892C832.936 151.958 832.928 151.12 832.036 149.26L830.914 149.343C829.427 150.375 829.334 151.281 828.735 153.049L828.507 153.73C827.214 152.103 827.879 149.215 826.329 147.241C825.22 147.991 825.171 148.74 824.774 150.046L824.911 144.226Z" fill="#91AC5A"/>
<path d="M846.701 170.74L848.416 171.19C850.366 174.578 850.979 179.026 847.779 181.861L847.244 181.882L845.666 180.084C845.239 178.617 846.453 172.982 846.701 170.74Z" fill="#91AC5A"/>
<path d="M838.264 171.125C839.619 173.07 840.692 173.82 840.635 175.786C837.334 176.854 837.096 175.469 834.393 176.942C832.294 175.691 831.657 175.436 830.367 173.255C834.375 173.791 834.908 173.226 838.264 171.125Z" fill="#819C4B"/>
<path d="M869.266 448.418L872.367 449.653C872.42 451.657 872.31 457.489 873.295 458.884L875.256 460.17L873.489 461.284C873.065 465.304 882.226 468.258 885.559 470.096L886.002 469.772C891.699 465.668 900.034 465.625 905.64 469.905L905.803 470.513C899.579 468.235 891.879 465.705 886.439 471.315C885.03 478.227 901.56 480.836 902.971 484.007C894.409 482.416 887.933 478.491 883.545 471.12C880.627 469.514 876.544 467.053 873.467 466.146C872.36 469.693 884.339 479.232 885.961 483.15C886.4 484.211 891.253 490.197 892.017 490.746L892.197 491.504C886.52 490.033 884.109 480.066 877.63 475.471L875.471 475.501L874.122 473.025L873.141 472.743C871.969 475.126 872.287 484.014 872.273 487.232C875.471 491.435 879.617 495.919 878.502 501.66C877.243 500.535 876.432 492.352 871.683 489.442L870.602 489.709C868.854 492.882 869.852 499.501 870.334 503.097C864.702 499.414 872.928 483.167 870.042 478.719L868.146 477.887C868.883 475.638 869.21 474.921 869.145 472.477L868.484 471.988C866.79 473.245 866.322 474.96 865.456 476.956C864.912 476.15 863.872 475.044 863.194 474.274C865.637 471.973 869.428 468.073 868.416 464.516C866.732 464.122 858.649 467.955 856.451 468.065C848.276 468.472 841.977 467.884 833.762 469.092C844.798 464.533 860.387 469.569 869.263 460.405C868.701 457.658 869.886 456.461 869.212 452.174C869.079 451.208 869.222 449.452 869.266 448.418Z" fill="#D7C8B6"/>
<path d="M865.456 476.956C866.322 474.96 866.79 473.245 868.484 471.988L869.145 472.477C869.21 474.921 868.883 475.638 868.146 477.887L870.042 478.719C869.189 480.294 867.607 483.46 866.704 484.796C863.696 489.247 860.139 489.481 859.575 494.939L859.514 495.562L858.834 495.744L858.393 494.87L859.409 495.764L858.328 494.635C858.049 492.245 863.289 478.759 864.268 475.438C859.512 478.154 854.237 479.166 850.164 483.661C848.591 485.396 847.471 488.077 845.922 488.608C846.301 481.959 858.317 476.749 863.194 474.274C863.872 475.044 864.912 476.15 865.456 476.956Z" fill="#D9CBB8"/>
<path d="M865.455 476.956C866.32 474.96 866.788 473.245 868.483 471.988L869.143 472.477C869.209 474.921 868.881 475.638 868.145 477.887C866.287 483.379 864.658 485.528 861.221 490.012C861.893 486.76 864.265 480.392 865.455 476.956Z" fill="#F2F3EE"/>
<path d="M871.144 17.6475L872.172 17.977C875.79 23.1925 876.259 24.8585 874.538 31.0186C873.044 32.2508 872.748 32.7006 870.927 33.0398L869.493 32.6673L868.985 32.2798C867.157 24.1736 865.145 25.4917 871.144 17.6475Z" fill="#91AC5A"/>
<path d="M883.08 38.8993C882.969 32.048 882.859 26.5565 883.448 19.688C884.506 22.7632 884.486 44.2791 884.294 48.4664L882.97 48.6692L878.683 49.8414C880.496 45.9751 880.878 45.2817 881.655 41.0815L881.951 39.0593L883.08 38.8993Z" fill="#CAB372"/>
<path d="M881.951 39.0593L883.08 38.8993L882.97 48.6692L878.683 49.8414C880.496 45.9751 880.878 45.2817 881.655 41.0815L881.951 39.0593Z" fill="#F2F3EE"/>
<path d="M858.336 50.1269C857.717 46.8724 857.868 22.5689 859.101 19.5474L859.194 19.5731L859 21.0512C859.713 21.9453 859.614 36.9641 859.63 39.07L859.574 44.321L858.797 44.8706L858.336 50.1269Z" fill="#CAB372"/>
<path d="M821.409 161.425C819.543 159.225 811.21 146.87 811.394 145.096C813.609 145.705 815.972 153.334 819.228 155.572L819.842 153.275L823.715 154.428L821.11 154.821L820.411 155.818C820.914 157.683 822.967 159.011 824.659 159.775C823.626 160.391 822.554 161.144 821.409 161.425Z" fill="#BCC694"/>
<path d="M899.256 88.3188C901.411 83.9866 909.125 74.1426 912.469 70.5135L912.715 70.7025C909.952 75.5391 905.672 80.086 903.558 84.8947C902.94 87.1059 902.731 87.7907 900.894 88.8265L899.256 88.3188Z" fill="#CAB372"/>
<path d="M869.263 460.405C867.018 459.21 863.457 461.312 861.111 462.149L860.282 461.701L862.362 459.97C859.677 458.701 853.935 459.524 852.48 459.325L852.549 458.598C860.042 455.991 867.042 463.494 869.212 452.174C869.886 456.461 868.701 457.658 869.263 460.405Z" fill="#D9CBB8"/>
<path d="M914.244 97.9653C916.677 95.1283 924.947 83.6463 927.286 82.7222C924.718 87.6211 918.384 95.036 914.812 99.4186L914.244 97.9653Z" fill="#C9B27A"/>
<path d="M862.508 29.3624C863.103 25.5529 862.121 13.2487 863.531 10.152C864.085 16.1426 864.143 22.4412 864.292 28.479L862.508 29.3624Z" fill="#CAB372"/>
<path d="M871.144 17.6475C870.772 11.3864 870.962 6.24385 871.392 0C872.609 2.80367 872.241 14.6645 872.172 17.977L871.144 17.6475Z" fill="#CAB372"/>
<path d="M882.97 48.6692L884.294 48.4664C883.52 52.0032 883.204 53.0723 881.764 56.3729C880.848 55.0677 880.265 53.302 878.958 52.5935L879.242 51.1069L878.326 49.9766L878.683 49.8414L882.97 48.6692Z" fill="#819C4B"/>
<path d="M878.761 28.1248C878.747 22.2995 878.611 16.5129 879.325 10.7295L879.702 10.3571C880.07 16.6964 880.107 21.75 880.008 28.1097L878.761 28.1248Z" fill="#CAB372"/>
<path d="M916.89 149.883C920.157 147.883 923.432 143.383 926.107 140.427C925.754 143.031 920.573 148.153 919.099 152.965C917.99 151.992 917.643 151.175 916.89 149.883Z" fill="#BCC694"/>
<path d="M831.819 71.8435C831.548 67.0551 826.156 61.2911 824.043 56.507L824.8 56.4169C827.249 59.8023 831.261 65.6297 833.038 69.2727C832.603 70.096 832.057 70.9719 831.819 71.8435Z" fill="#C9B27A"/>
<path d="M919.306 74.6804L920.574 74.7427C924.106 70.1894 925.267 68.3185 929.516 64.2955C927.19 67.6154 923.909 72.8492 921.596 75.8032L919.306 74.6804Z" fill="#C9B27A"/>
<path d="M822.442 65.7703C819.935 63.0568 816.639 57.0266 815.111 53.6229C817.798 55.9983 821.448 62.3752 823.369 65.6308L822.442 65.7703Z" fill="#C9B27A"/>
<path d="M817.209 149.919C815.003 146.686 812.476 142.747 810.719 139.27C814.413 142.882 815.279 144.812 818.145 149.094L817.209 149.919Z" fill="#BCC694"/>
<path d="M818.163 143.668C818.053 141.476 813.822 135.001 812.33 131.72C812.647 131.797 818.475 139.71 819.037 140.439L818.163 143.668Z" fill="#91AC5A"/>
<path d="M875.471 475.501L877.63 475.471C877.778 476.947 880.597 484.473 881.226 486.435C878.322 482.218 877.313 480.292 875.471 475.501Z" fill="#D9CBB8"/>
<path d="M873.295 458.884C877.212 459.013 878.975 458.945 882.762 460.23L883.041 460.88L884.212 460.748C883.465 461.578 876.854 460.22 875.256 460.17L873.295 458.884Z" fill="#D7C8B6"/>
<path d="M445.689 197.696C447.693 197.326 449.707 197.014 451.729 196.76C460.964 195.665 476.427 194.711 483.986 200.855C500.068 213.926 508.062 277.445 510.647 299.448C510.815 301.162 510.864 304.309 511.796 305.539C512.139 304.866 512.322 304.613 512.533 303.891C513.337 304.418 513.807 304.873 514.697 305.039C515.668 301.577 516.091 299.175 516.275 295.617C519.182 276.47 528.494 213.317 543.344 202.56C552.755 195.744 570.131 197.359 581.079 198.845C572.564 200.641 547.629 202.194 544.148 210.377C527.275 250.035 523.397 297.253 514.913 339.649C513.059 348.917 514.24 407.753 515.429 417.965C518.833 398.616 533.124 284.836 544.733 276.715C546.627 275.391 548.969 275.008 551.203 275.583C556.796 277.023 560.368 283.492 562.891 288.206C569.727 300.984 574.687 315.881 577.435 330.113C569.541 315.597 558.443 297.209 548.138 284.296C541.189 318.148 536.055 352.448 528.73 386.58C526.077 399.066 523.199 411.503 520.1 423.887C518.653 429.578 515.239 440.607 514.561 445.797L511.764 445.724C511 441.222 508.368 433.095 507.062 428.289C504.262 418.11 501.774 407.849 499.601 397.517C492.348 363.102 486.853 327.539 479.497 293.717C469.093 306.247 458.356 325.618 450.029 340.046C453.617 324.056 458.542 305.154 468.174 291.612C470.225 288.729 472.734 285.539 476.469 285.035C478.74 284.727 481.082 285.404 482.909 286.768C493.712 294.832 507.816 397.787 510.034 415.408L510.564 415.284C511.789 413.041 510.802 393.267 511.589 387.765C512.099 372.326 512.67 353.926 511.365 338.647C510.48 328.278 507.944 317.624 506.231 307.33C502.594 285.474 494.211 222.583 481.913 207.194C475.275 198.888 455.614 198.843 445.689 197.696Z" fill="#819C4B"/>
<path d="M510.034 415.408L510.564 415.284C511.789 413.041 510.802 393.267 511.589 387.765C511.75 397.828 512.244 415.026 511.184 424.614C510.856 422.033 510.187 417.873 510.034 415.408Z" fill="#F2F3EE"/>
<path d="M513.873 182.403C517.202 181.466 517.962 178.853 521.177 178.794C522.986 179.025 523.343 179.204 524.973 178.567L526.197 178.41L526.08 179.101C525.34 183.339 522.402 187.708 522.438 189.211L524.952 188.91C526.851 192.67 521.684 197.528 522.313 199.923L524.707 199.696C526.79 202.282 523.326 208.531 521.332 210.617L524.192 210.404C527.019 213.938 522.304 221.099 519.375 223.566C517.358 223.584 516.293 223.64 514.267 223.248C514.318 221.097 514.397 220.614 513.62 218.632L512.757 218.28C511.602 220.273 512.012 220.814 511.999 223.388C510.776 223.556 508.738 223.882 507.684 223.344C503.663 221.293 499.722 214.983 501.245 210.656C502.23 210.723 502.933 210.77 503.928 210.705L504.639 210.655C502.429 208.136 499.696 203.404 502.1 200.372L504.824 200.506C503.037 198.33 499.145 191.092 502.617 189.396L504.817 190.391L505.641 192.107C507.466 192.14 509.772 193.047 511.519 193.643L512.538 193.451L512.555 193.378C515.028 191.718 513.916 185.854 513.678 183.221L513.873 182.403Z" fill="#91AC5A"/>
<path d="M511.999 223.388C510.776 223.556 508.738 223.882 507.684 223.344C503.663 221.293 499.722 214.983 501.245 210.656C502.23 210.723 502.933 210.77 503.928 210.705L504.639 210.655C507.09 210.201 510.27 212.208 512.151 213.748L512.658 215.732C513.95 215.162 514.341 214.811 515.485 213.958C516.869 215.301 517.586 219.649 517.628 221.552L519.375 223.566C517.358 223.584 516.293 223.64 514.267 223.248C514.318 221.097 514.397 220.614 513.62 218.632L512.757 218.28C511.602 220.273 512.012 220.814 511.999 223.388Z" fill="#89A551"/>
<path d="M504.824 200.506C503.037 198.33 499.145 191.092 502.617 189.396L504.817 190.391L505.641 192.107C507.466 192.14 509.772 193.047 511.519 193.643L512.538 193.451L512.555 193.378L513.622 194.503L515.445 193.695C517.454 196.009 515.416 197.287 517.56 200.033C518.544 199.682 519.524 199.324 520.503 198.962L520.837 199.97C518.692 203.161 511.385 202.513 507.843 201.789C506.633 201.542 506.24 200.575 504.824 200.506Z" fill="#819C4B"/>
<path d="M514.217 149.717C518.958 156.309 517.973 158.114 513.449 164.506C515.832 162.544 518.226 160.592 520.629 158.655L521.918 159.435C521.694 164.835 521.665 167.064 518.051 171.214C520.288 170.183 520.612 169.578 522.754 169.848C524.451 172.337 522.626 176.392 521.177 178.794C517.962 178.853 517.202 181.466 513.873 182.403L513.678 183.221C513.916 185.854 515.028 191.718 512.555 193.378L512.538 193.451L511.519 193.643C509.772 193.047 507.466 192.14 505.641 192.107L504.817 190.391C503.778 187.068 502.225 186.041 500.52 179.609L501.824 179.025L505.617 179.702C503.257 177.324 503.044 172.006 502.522 168.485C503.767 168.802 504.769 169.023 506.03 169.259L506.448 168.645L504.901 165.029C504.996 162.724 504.938 160.977 505.713 158.795L512.793 164.393C509.117 158.883 506.099 155.758 512.35 150.194L514.217 149.717Z" fill="#89A551"/>
<path d="M501.824 179.025L505.617 179.702C508.817 180.586 509.62 181.254 512.395 183.158C511.959 186.257 510.772 191.053 512.538 193.451L511.519 193.643C509.772 193.047 507.466 192.14 505.641 192.107L504.817 190.391C503.778 187.068 502.225 186.041 500.52 179.609L501.824 179.025Z" fill="#91AC5A"/>
<path d="M518.051 171.214C520.288 170.183 520.612 169.578 522.754 169.848C524.451 172.337 522.626 176.392 521.177 178.794C517.962 178.853 517.202 181.466 513.873 182.403C514.047 179.788 514.127 177.842 514.081 175.224C515.576 173.823 516.685 172.779 518.051 171.214Z" fill="#819C4B"/>
<path d="M512.395 183.158C510.856 177.7 511.691 167.308 513.497 161.664C514.037 166.056 514.351 170.817 514.081 175.224C514.127 177.842 514.047 179.788 513.873 182.403L513.678 183.221C513.916 185.854 515.028 191.718 512.555 193.378L512.538 193.451C510.772 191.053 511.959 186.257 512.395 183.158Z" fill="#789144"/>
<path d="M511.764 445.724L514.561 445.797C515.109 450.863 514.466 456.404 515.085 460.856L518.295 461.972C516.057 462.777 516.434 462.251 515.461 463.877C516.781 467.435 523.203 469.6 527.059 471.56C533.435 467.487 540.684 466.056 546.879 471.628C544.891 472.129 533.238 466.535 528.304 471.563C526.234 480.46 543.559 480.953 543.823 484.494C541.675 483.689 532.864 480.881 531.686 479.975C528.237 477.325 521.326 467.792 515.875 468.116C515.335 469.19 515.503 469.534 515.692 470.716C515.859 472.097 516.059 472.002 515.6 473.112L514.571 474.957C513.766 476.228 513.443 476.72 512.863 478.096C511.371 480.826 508.731 486.843 506.361 487.927L505.711 487.558C508.486 482.948 511.734 479.534 511.835 473.178L511.179 472.931C506.671 476.606 505.013 489.393 501.519 494.773C501.324 494.34 501.13 493.907 500.936 493.473C502.695 487.968 505.394 482.478 506.832 476.856C498.318 480.066 495.462 481.056 490.774 488.822L489.858 488.72C494.364 475.487 513.925 477.377 510.75 466.432C507.387 466.225 502.77 469.285 498.969 469.743C492.147 470.565 485.037 469.607 478.304 470.871C479.14 468.085 511.801 470.005 510.848 461.845L510.694 460.034C511.248 458.009 511.541 448.611 511.764 445.724Z" fill="#D7C8B6"/>
<path d="M511.999 223.388C512.012 220.814 511.602 220.273 512.757 218.28L513.62 218.632C514.397 220.614 514.318 221.097 514.267 223.248C514.466 235.369 514.102 249.648 514.674 261.413C515.563 268.424 514.183 292.814 516.275 295.617C516.091 299.175 515.668 301.577 514.697 305.039C513.807 304.873 513.337 304.418 512.533 303.891C512.322 304.613 512.139 304.866 511.796 305.539C510.864 304.309 510.815 301.162 510.647 299.448L510.976 299.43C511.871 297.96 511.673 292.753 511.73 290.608C511.355 269.069 512.081 245.329 511.999 223.388Z" fill="#819C4B"/>
<path d="M514.674 261.413C515.563 268.424 514.183 292.814 516.275 295.617C516.091 299.175 515.668 301.577 514.697 305.039C514.457 290.975 514.371 275.431 514.674 261.413Z" fill="#F2F3EE"/>
<path d="M511.73 290.608C512.268 295.139 512.015 300.061 512.533 303.891C512.322 304.613 512.139 304.866 511.796 305.539C510.864 304.309 510.815 301.162 510.647 299.448L510.976 299.43C511.871 297.96 511.673 292.753 511.73 290.608Z" fill="#BCC694"/>
<path d="M500.52 179.609C499.255 173.909 500.272 158.87 500.688 152.632C500.727 152.035 500.98 152.18 500.829 150.971C501.602 152.53 501.557 163.396 501.599 165.756L502.522 168.485C503.044 172.006 503.257 177.324 505.617 179.702L501.824 179.025L500.52 179.609Z" fill="#96B05E"/>
<path d="M501.599 165.756L502.522 168.485C503.044 172.006 503.257 177.324 505.617 179.702L501.824 179.025C501.473 174.807 501.595 170.03 501.599 165.756Z" fill="#F2F3EE"/>
<path d="M512.863 478.096C513.443 476.72 513.766 476.228 514.571 474.957C514.634 479.092 514.67 483.227 514.677 487.361C517.906 491.68 520.35 495.104 521.261 500.712C518.921 497.249 516.409 490.557 513.175 489.249C510.622 492.121 513.24 500.072 512.198 501.829C508.528 493.422 513.259 488.804 512.863 478.096Z" fill="#D9CBB8"/>
<path d="M515.692 470.716C519.163 474.528 532.039 487.527 533.436 492.013C529.136 490.583 523.158 478.475 520.08 476.739L519.442 477.247C519.677 479.794 520.104 481.145 520.791 483.595C518.912 480.003 517.292 476.81 515.6 473.112C516.059 472.002 515.859 472.097 515.692 470.716Z" fill="#D7C8B6"/>
<path d="M524.973 178.567C524.576 175.086 524.363 151.287 525.462 149.549L526.125 149.823C527.066 156.218 526.402 171.308 526.197 178.41L524.973 178.567Z" fill="#91AC5A"/>
<path d="M504.901 165.029C504.203 162.465 504.096 144.008 505.356 141.893C506.34 143.599 506.345 156.553 505.713 158.795C504.938 160.977 504.996 162.724 504.901 165.029Z" fill="#91AC5A"/>
<path d="M512.35 150.194C512.673 143.746 512.451 137.358 513.266 131.035L513.624 131.209C513.887 136.457 513.764 145.124 514.217 149.717L512.35 150.194Z" fill="#96B05E"/>
<path d="M520.629 158.655C520.469 152.655 520.469 147.378 521.071 141.371C522.195 144.175 521.949 156.122 521.918 159.435L520.629 158.655Z" fill="#96B05E"/>
<path d="M510.694 460.034L510.848 461.845C506.802 462.769 500.794 461.454 496.503 460.799C500.391 460.117 506.381 460.254 510.694 460.034Z" fill="#D9CBB8"/>
<path d="M515.085 460.856C518.368 460.971 522.586 461.029 525.407 462.947C523.056 463.384 520.731 462.43 518.295 461.972L515.085 460.856Z" fill="#D9CBB8"/>
<path d="M1012.18 94.7553C1010.61 89.7148 1003.31 84.6108 1003.79 81.6118C1007.19 84.2942 1014.48 93.8451 1016.15 97.8564L1018.48 96.71C1015.8 93.332 1012.46 89.4314 1010.41 85.7057L1010.88 85.388C1015.98 88.6188 1026.83 109.682 1029.22 110.928C1033.41 117.756 1044.72 127.052 1036.83 134.557C1046.76 150.707 1051.51 172.791 1055.47 191.118C1056.77 189.297 1056.62 185.371 1056.98 182.627C1057.24 178.802 1057.13 173.169 1057.19 169.205C1058.9 174.119 1057.18 191.05 1058.13 193.732C1058.61 192.643 1058.9 192.003 1059.5 190.976C1060.61 189.784 1062.91 178.766 1063.6 176.054C1066.56 164.547 1070.07 152.724 1076.22 142.483C1071.49 138.417 1071.59 135.074 1074.02 129.709C1077.05 128.027 1076.69 123.819 1079.74 120.899C1080.04 120.6 1080.35 120.304 1080.66 120.013L1081.67 116.774C1082.76 115.629 1083.48 114.72 1084.46 113.473C1085.21 108.202 1093.64 97.4141 1097.06 93.0165L1097.38 93.1013C1095.26 96.9096 1087.09 108.524 1086.44 111.533L1088.12 110.378C1088.97 108.358 1089.66 107.345 1090.8 105.534C1092.23 104.919 1093.7 102.903 1094.79 101.646C1095.22 100.681 1097.37 97.3851 1098.05 96.3085L1098.89 97.9336L1098.68 98.3415L1098.95 98.8149C1100.72 97.7619 1101.58 97.1114 1103.66 96.8087C1105.12 97.9465 1105.25 98.1215 1105.87 99.8636C1105.71 102.289 1104.95 103.325 1103.8 105.414L1104.22 106.891C1107.68 103.926 1110.99 98.1859 1114.4 94.2197C1114.48 95.3436 1112.36 98.3318 1111.6 99.6242L1113.6 100.546C1113.32 103.161 1095.52 128.965 1093.09 131.149C1093.23 133.6 1093.57 132.952 1092.36 134.473L1091.27 134.862C1088.02 138.967 1089.29 145.507 1079.71 144.643C1079.13 144.588 1078.55 144.53 1077.97 144.47C1076.6 146.634 1075.38 148.817 1074.39 151.179C1060.21 185.016 1058.73 223.023 1060.03 259.034C1063.08 241.687 1072.1 184.763 1085.13 175.378C1087.13 173.938 1089.45 173.241 1091.91 173.705C1101.43 175.504 1113.22 193.325 1118.06 201.003C1118.41 201.565 1118.74 202.135 1119.08 202.713C1113.72 198.676 1092.85 180.463 1089.1 179.76C1080.46 184.266 1068.86 244.928 1065.87 256.888C1064.01 264.297 1061.83 275.823 1060.28 283.752C1059.71 299.249 1059.28 317.774 1059.68 333.31C1060.1 349.592 1059.04 367.765 1059.76 383.602C1062.24 374.391 1063.72 358.104 1065.19 348.047C1068.73 324.414 1072.68 300.844 1077.07 277.352C1079.61 263.682 1082.31 248.813 1086.49 235.537C1087.81 232.079 1089.38 227.465 1092.68 225.437C1094.29 224.446 1097.88 223.622 1099.34 224.436C1113.38 232.247 1122.35 267.723 1124.72 280.732C1117.22 267.003 1105.22 245.42 1095.4 233.318C1088.44 265.731 1083.49 300.639 1076.89 333.743C1073.58 350.507 1069.83 367.181 1065.64 383.748C1064.37 388.799 1060.84 398.221 1060.14 402.59C1059.27 407.987 1059.63 420.113 1059.68 426.027C1069.43 389.322 1082.14 355.548 1093.08 319.56C1089.83 356.377 1078.86 392.566 1064.97 426.705C1063.53 430.234 1060.23 437.295 1060.04 440.684C1059.47 442.409 1060 441.835 1058.55 442.608C1058.28 442.51 1057.26 442.19 1057 442.012C1057.2 437.626 1056.75 436.837 1055.04 432.801C1039.84 396.923 1028.3 358.951 1024.48 320.123C1034.68 353.07 1046 385.719 1056.33 419.043C1056.47 416.199 1057.07 405.588 1056.62 403.263C1055.16 395.613 1052.52 386.793 1050.6 379.05C1047.53 366.429 1044.78 353.734 1042.33 340.978C1036.18 309.879 1031.18 278.493 1024.9 247.554C1014.7 260.594 1002.61 281.917 994.568 296.241C998.392 278.829 1004.69 257.733 1015.18 243.098C1024.19 232.071 1031.77 241.073 1034.46 251.094C1041.16 276.058 1045.27 301.868 1049.58 327.349C1051.86 340.84 1054.44 355.772 1055.34 369.439L1056.37 369.023L1056.94 314.806C1056.97 306.433 1057.4 285.694 1055.36 278.895C1050.91 264.105 1037.96 182.526 1026.7 178.173C1022.29 179.103 1002.29 196.985 996.449 201.331C1027.27 153.708 1035.93 167.927 1047.53 214.352C1050.63 226.777 1053.02 239.339 1055.4 251.906L1055.77 251.798C1056.94 250.165 1056.39 225.463 1056.49 221.286C1055.63 197.865 1045.71 155.079 1034.53 135.064C1029.91 140.039 1023.51 134.259 1021.38 129.573L1019.12 126.471L1018.51 124.848C1016.45 122.892 1015.23 121.984 1014.15 119.352C1013.68 117.983 1010.3 114.896 1009.06 113.669L1010.09 112.771C1010.65 112.354 1010.47 112.446 1010.82 111.752C1007.99 108.817 998.767 94.6856 996.23 90.7302L996.522 90.6196C999.097 93.639 1002.24 97.8467 1005.2 100.142L1005.69 100.52L1006.27 100.069C1004.34 97.2531 1003.7 95.4906 1003.83 92.1749L1004.68 90.1634C1006.4 91.1263 1011.36 94.633 1012.18 94.7553Z" fill="#C9A86C"/>
<path d="M1035.39 133.093C1030.79 128.131 1036.67 126.914 1035.35 121.978L1034.65 122.004C1033.94 124.062 1033.51 125.786 1032.19 127.5L1031.32 127.321C1030.09 125.728 1029.1 124.819 1028.88 122.861C1029.84 120.673 1030.62 119.107 1029.92 116.807C1029.25 117.017 1029.08 117.148 1028.4 117.156C1027.42 115.771 1027.68 114.564 1027.73 112.794L1028.68 112.041L1028.5 111.472L1029.14 110.919L1029.22 110.928C1033.41 117.756 1044.72 127.052 1036.83 134.557L1035.39 133.093Z" fill="#CAB372"/>
<path d="M1098.05 96.3085L1098.89 97.9336L1098.68 98.3415L1098.95 98.8149C1100.72 97.7619 1101.58 97.1114 1103.66 96.8087C1105.12 97.9465 1105.25 98.1215 1105.87 99.8636C1105.71 102.289 1104.95 103.325 1103.8 105.414L1104.22 106.891C1096.58 110.296 1099.52 107.333 1094.98 105.681C1094.62 104.024 1094.72 103.367 1094.79 101.646C1095.22 100.681 1097.37 97.3851 1098.05 96.3085Z" fill="#BD9F5B"/>
<path d="M1004.68 90.1634C1006.4 91.1263 1011.36 94.633 1012.18 94.7553C1012.45 97.3132 1013.13 99.4923 1012.06 101.479C1010.05 101.736 1007.9 100.919 1005.69 100.52L1006.27 100.069C1004.34 97.2531 1003.7 95.4906 1003.83 92.1749L1004.68 90.1634Z" fill="#BD9F5B"/>
<path d="M1080.66 120.013C1080.26 126.255 1084.92 129.483 1080.93 133.158C1080.65 133.414 1080.37 133.665 1080.08 133.91C1077.89 132.91 1078.63 129.227 1076.76 128.431L1074.02 129.709C1077.05 128.027 1076.69 123.819 1079.74 120.899C1080.04 120.6 1080.35 120.304 1080.66 120.013Z" fill="#CAB372"/>
<path d="M1084.46 113.473C1085.07 118.185 1088.28 123.652 1084.12 126.4C1081.62 125.041 1082.94 119.64 1081.67 116.774C1082.76 115.629 1083.48 114.72 1084.46 113.473Z" fill="#CAB372"/>
<path d="M1086.44 111.533L1088.12 110.378C1089.99 111.606 1090.18 112.134 1091.22 114.069C1091.6 116.407 1090.53 118.719 1088.68 120.152L1087.77 119.804C1086.66 117.133 1086.36 115.182 1086.94 112.277L1086.44 111.533Z" fill="#CAB372"/>
<path d="M1091.27 134.862C1088.34 135.035 1086.81 136.734 1083.76 135.834L1083.75 134.92C1085.2 132.605 1084.6 132.838 1086.78 131.731C1089.39 132.024 1090.06 132.141 1092.56 131.327L1093.09 131.149C1093.23 133.6 1093.57 132.952 1092.36 134.473L1091.27 134.862Z" fill="#CAB372"/>
<path d="M1104.81 109.171C1104.34 110.837 1103.65 112.994 1103.36 114.656C1100.47 113.719 1100.42 114.301 1096.97 115.101L1096.3 114.517L1096.47 111.362C1099.11 111.064 1101.56 109.752 1104.81 109.171Z" fill="#CAB372"/>
<path d="M1090.8 105.534C1092.23 104.919 1093.7 102.903 1094.79 101.646C1094.72 103.367 1094.62 104.024 1094.98 105.681C1095.13 108.32 1095.57 111.284 1093.56 113.049C1092.2 112.596 1091.97 107.167 1090.8 105.534Z" fill="#CAB372"/>
<path d="M1019.12 126.471C1021.74 126.007 1025.82 125.144 1028.2 126.355L1029.37 128.636L1029.09 129.351C1025.5 129.476 1023.86 128.086 1021.38 129.573L1019.12 126.471Z" fill="#C9B27A"/>
<path d="M1111.6 99.6242L1113.6 100.546C1110.93 102.469 1105.86 111.346 1103.36 114.656C1103.65 112.994 1104.34 110.837 1104.81 109.171L1111.6 99.6242Z" fill="#F2F3EE"/>
<path d="M1056.49 221.286C1057.64 227.827 1057.05 251.268 1057.01 259.12C1056.06 256.129 1055.63 255.017 1055.4 251.906L1055.77 251.798C1056.94 250.165 1056.39 225.463 1056.49 221.286Z" fill="#F2F3EE"/>
<path d="M1018.48 96.71C1020.75 99.6446 1021.09 100.317 1022.48 103.786L1022.22 104.158C1019.62 101.388 1019.05 99.1283 1016.15 97.8564L1018.48 96.71Z" fill="#F2F3EE"/>
<path d="M1056.98 182.627C1057.07 187.812 1057.23 192.937 1056.87 198.113C1056.14 195.467 1055.62 193.872 1055.47 191.118C1056.77 189.297 1056.62 185.371 1056.98 182.627Z" fill="#F2F3EE"/>
<path d="M1055.34 369.439L1056.37 369.023C1056.98 372.375 1056.8 376.074 1056.77 379.507C1055.37 375.847 1055.21 373.277 1055.34 369.439Z" fill="#D9CBB8"/>
<path d="M1018.73 112.973C1020.05 114.632 1020.7 114.796 1020.53 116.446L1018.19 117.532C1016.29 116.949 1016.03 117.249 1015.21 115.991C1016.41 115.01 1017.58 114.004 1018.73 112.973Z" fill="#CAB372"/>
<path d="M1064.6 51.436C1065.68 52.2615 1066.14 52.4643 1066.64 53.7309L1066.63 54.346C1066.54 57.0219 1066.36 57.5822 1065.45 60.0789C1065.81 61.7212 1069.9 62.4908 1066.7 68.7303L1066.4 70.2846C1067.44 71.2506 1066.98 70.9726 1068.83 70.9308L1070.36 71.1175C1069.68 74.4729 1069.2 77.0404 1067.32 79.9729L1069.1 80.7586C1070.05 83.2145 1068.88 87.113 1067.17 88.9872C1068.22 89.3918 1068.98 89.3543 1069.4 90.36C1070.37 92.7172 1068.88 96.665 1067.31 98.551L1069.25 99.4505C1070.16 105.274 1066.3 112.998 1059.87 113.086L1059.56 112.83L1057.08 112.705L1057.23 113.5C1050.42 113.43 1045.21 104.377 1047.37 98.7474L1049.36 97.8898C1047.29 94.3648 1045.94 92.4778 1048.5 89.131C1049.38 84.0764 1044.16 83.2038 1048.68 76.9234C1046.87 75.2565 1046.86 73.4049 1046.54 71.0359L1048.55 70.4391L1049.73 70.2964C1049.71 69.0899 1048.37 62.8117 1048.06 60.9719L1051.27 61.4421C1050.04 58.4484 1048.95 56.0827 1049.77 52.884L1051.64 52.2239L1055.51 55.3185L1056.27 56.3178C1056.96 55.7381 1057.15 55.1435 1057.54 54.3342L1058.8 54.858L1059.42 54.8934L1060.1 54.0991L1061.3 54.7581L1061.97 53.469L1064.6 51.436Z" fill="#A58E4C"/>
<path d="M1048.67 76.9233C1050.2 78.5152 1050.22 78.835 1050.56 81.0355C1052.89 82.901 1055.6 84.0388 1056.73 86.265C1056.95 88.284 1057 88.737 1056.71 90.7356C1055.67 92.4058 1055.93 91.8873 1053.5 92.6795C1055.3 94.1801 1056.32 94.9164 1057.7 96.8582C1057.34 100.209 1057.2 102.522 1057.11 105.861L1057.08 112.704L1057.23 113.5C1050.42 113.43 1045.21 104.377 1047.36 98.7473L1049.36 97.8897C1047.29 94.3647 1045.94 92.4777 1048.5 89.1309C1049.38 84.0763 1044.15 83.2037 1048.67 76.9233Z" fill="#BD9F5B"/>
<path d="M1049.36 97.8897L1049.95 100.383C1052.5 101.962 1055.01 103.147 1056.56 105.65L1057.11 105.861L1057.08 112.704L1057.23 113.5C1050.42 113.43 1045.21 104.377 1047.36 98.7473L1049.36 97.8897Z" fill="#C9A86C"/>
<path d="M1049.95 100.383C1052.5 101.962 1055.01 103.147 1056.56 105.65C1056.51 108.16 1057.05 109.778 1054.33 110.357C1050.83 108.206 1050.18 104.138 1049.95 100.383Z" fill="#C9B27A"/>
<path d="M1056.71 90.7356C1050.7 92.1224 1049.07 85.2807 1050.56 81.0355C1052.89 82.901 1055.6 84.0388 1056.73 86.265C1056.95 88.284 1057 88.737 1056.71 90.7356Z" fill="#CAB372"/>
<path d="M1057.7 96.8586L1056.89 99.4894C1055.24 100.911 1056.02 100.622 1053.98 100.687C1051.21 99.1824 1049.17 95.461 1049.71 92.3171C1050.91 91.6344 1051.8 92.2376 1053.51 92.6799C1055.3 94.1805 1056.32 94.9168 1057.7 96.8586Z" fill="#CAB372"/>
<path d="M1064.6 51.436C1065.68 52.2615 1066.14 52.4643 1066.64 53.7309L1066.63 54.346C1066.54 57.0219 1066.36 57.5822 1065.45 60.0789C1065.81 61.7212 1069.9 62.4908 1066.7 68.7303L1065.76 67.6258C1064.06 68.3375 1063.65 69.1146 1062.49 70.5486C1060.95 71.2721 1061.64 71.1776 1059.74 70.598C1056.17 66.1392 1060.75 64.776 1062.32 62.5037C1061.21 62.6131 1060.83 62.5949 1059.75 62.5541C1058.57 60.2442 1059.11 57.4781 1059.42 54.8934L1060.1 54.0991L1061.3 54.7581L1061.97 53.469L1064.6 51.436Z" fill="#CAB372"/>
<path d="M1051.27 61.4421L1052.76 62.3214C1054.71 63.412 1056.65 64.2395 1057.72 66.1834C1057.42 69.0214 1055.69 68.1101 1054.94 71.3195C1052.3 70.0186 1052.91 68.3989 1050.34 67.5499L1050.1 68.839C1052.64 73.5994 1057.57 73.988 1057.25 78.7355C1056.09 80.5141 1056.78 80 1054.67 80.6279C1048.8 79.3914 1050.62 74.3259 1048.55 70.4391L1049.73 70.2964C1049.71 69.0899 1048.37 62.8117 1048.06 60.9719L1051.27 61.4421Z" fill="#CAB372"/>
<path d="M1066.49 98.3418L1067.31 98.551L1069.25 99.4505C1070.16 105.274 1066.3 112.998 1059.87 113.086L1059.56 112.83C1059.41 109.327 1059.29 107.774 1059.85 104.352C1061.24 103.182 1064.21 101.854 1065.91 101.06C1066.49 100.171 1066.42 99.4141 1066.49 98.3418Z" fill="#BD9F5B"/>
<path d="M1065.91 101.06C1066.45 104.212 1065.1 108.395 1062.18 109.995C1059.26 109.322 1059.9 107.091 1059.85 104.352C1061.24 103.182 1064.21 101.854 1065.91 101.06Z" fill="#CAB372"/>
<path d="M1065.37 78.334C1065.91 78.8975 1066.4 79.3279 1066.84 79.9773L1067.32 79.973L1069.1 80.7588C1070.05 83.2146 1068.88 87.1132 1067.17 88.9873C1065.6 88.6438 1063.12 90.4793 1060.9 91.4217L1059.94 90.9677C1059.33 88.7984 1059.73 87.1421 1060.05 84.9363C1059.03 83.1266 1059.18 82.4236 1059.26 80.3691C1060.22 81.6078 1059.63 81.113 1061.19 81.7742C1063.24 81.2944 1063.97 80.0085 1065.37 78.334Z" fill="#CAB372"/>
<path d="M1065.37 78.334C1065.91 78.8975 1066.4 79.3279 1066.84 79.9773C1064.75 82.3656 1062.79 83.3177 1060.05 84.9363C1059.03 83.1266 1059.18 82.4236 1059.26 80.3691C1060.22 81.6078 1059.63 81.113 1061.19 81.7742C1063.24 81.2944 1063.97 80.0085 1065.37 78.334Z" fill="#BD9F5B"/>
<path d="M1066.49 98.3418C1064.9 99.281 1061.52 101.099 1059.79 100.785C1057.33 92.684 1064.57 93.679 1067.17 88.9873C1068.22 89.392 1068.98 89.3544 1069.4 90.3601C1070.37 92.7173 1068.87 96.6652 1067.31 98.5511L1066.49 98.3418Z" fill="#CAB372"/>
<path d="M1051.64 52.2239L1055.51 55.3185L1056.27 56.3178C1056.96 55.7381 1057.15 55.1435 1057.54 54.3342L1058.8 54.858C1055.77 58.5944 1058.72 59.8 1056.11 62.3074C1055 62.3236 1053.88 62.3279 1052.76 62.3214L1051.27 61.4421C1050.04 58.4484 1048.95 56.0827 1049.77 52.884L1051.64 52.2239Z" fill="#C9A86C"/>
<path d="M1062.49 70.5486C1063.65 69.1146 1064.06 68.3375 1065.76 67.6258L1066.7 68.7305L1066.4 70.2847C1067.44 71.2508 1066.97 70.9728 1068.83 70.9309L1070.36 71.1177C1069.68 74.4731 1069.2 77.0405 1067.32 79.973L1066.84 79.9773C1066.4 79.3279 1065.91 78.8975 1065.37 78.334L1065.6 75.554C1064.65 74.3271 1063.78 73.9514 1062.42 73.126C1063.1 72.3918 1063.73 71.5052 1064.33 70.7012L1064 70.1162L1062.49 70.5486Z" fill="#C9A86C"/>
<path d="M1062.42 73.126C1063.78 73.9514 1064.65 74.3271 1065.6 75.554L1065.37 78.334C1063.97 80.0085 1063.24 81.2944 1061.19 81.7742C1059.63 81.113 1060.22 81.6078 1059.26 80.3691C1059.15 76.1303 1059.1 75.8169 1062.42 73.126Z" fill="#CAB372"/>
<path d="M1060.04 440.685C1061.21 443.307 1059.78 450.73 1061.08 455.382C1061.42 456.992 1061.08 456.952 1060.39 458.806C1063.61 461.533 1069.65 464.097 1073.63 466.025C1081.75 461.171 1086.51 460.966 1094.39 465.905L1094.59 466.753C1085.32 462.62 1082.89 462.076 1073.8 467.766C1080.72 478.526 1086.41 475.297 1091.06 479.354L1090.9 479.887C1089.18 479.417 1079.82 476.314 1078.8 475.336C1076.49 473.124 1064.97 461.051 1061.32 462.375C1061.24 464.495 1061.28 463.843 1062.45 465.969L1061.19 468.17C1060.01 470.462 1060.64 479.634 1060.71 482.955C1063.34 486.305 1069.04 493.321 1067.18 497.548L1066.31 497.648C1066.27 493.919 1062.77 486.464 1059.57 484.597L1058.88 485.052C1057.76 487.951 1057.67 495.418 1057.51 499.007C1054.66 485.727 1059.47 484.87 1058.79 472.744C1057.12 476.922 1056.35 478.956 1053.93 482.823C1044.6 487.366 1049.56 488.676 1046.89 491.459L1046.03 490.223C1045.77 488.174 1051.62 474.856 1052.81 471.655C1040.59 476.605 1041.9 475.845 1033.79 485.23C1033.72 483.851 1034.85 482.854 1035.32 481.699C1039.42 471.52 1057.83 473.658 1056.88 460.867C1055.14 460.024 1050.65 462.997 1046.62 463.606C1042.33 464.255 1024.13 465.594 1021.1 464.712C1023.8 463.663 1026.2 463.935 1028.99 463.63C1041.76 462.237 1047.17 464.828 1057.52 456.586L1057.37 455.266L1055.5 454.468C1057.99 451.661 1057.13 445.99 1057 442.013C1057.26 442.191 1058.28 442.511 1058.55 442.609C1060 441.836 1059.47 442.41 1060.04 440.685Z" fill="#D7C8B6"/>
<path d="M1056.86 467.356C1059.58 470.572 1053.58 481 1050.8 483.676C1050.41 483.273 1050.45 483.029 1050.26 482.377C1051.67 477.513 1054.13 471.618 1056.86 467.356Z" fill="#F2F3EE"/>
<path d="M1059.56 112.83L1059.87 113.086C1059.07 116.796 1059.5 129.869 1059.41 134.309C1058.99 152.628 1060.27 172.851 1059.5 190.976C1058.9 192.003 1058.61 192.643 1058.13 193.732C1057.18 191.05 1058.9 174.119 1057.19 169.205C1056.6 151.94 1057.39 131.347 1057.23 113.5L1057.08 112.705L1059.56 112.83Z" fill="#BD9F5B"/>
<path d="M1057.05 43.8731L1058.75 42.9683C1061.91 46.8528 1062.71 48.3008 1061.97 53.4691L1061.3 54.7583L1060.09 54.0992L1059.42 54.8935L1058.8 54.8581L1057.54 54.3343C1057.15 55.1436 1056.96 55.7383 1056.27 56.3179L1055.51 55.3186L1053.62 51.4866C1052.84 48.2471 1054.28 46.6253 1056.28 44.4066L1057.05 43.8731Z" fill="#C9B27A"/>
<path d="M1056.28 44.4066C1056.76 47.1705 1057.66 49.4688 1056.52 51.6435C1055.18 51.8732 1054.91 51.7517 1053.62 51.4866C1052.84 48.2471 1054.28 46.6253 1056.28 44.4066Z" fill="#CAB372"/>
<path d="M1062.45 465.968C1067.37 471.082 1077.38 481.962 1080.77 488.233L1080.42 488.719C1077.32 486.552 1070.8 475.5 1064.92 470.541C1065.25 471.288 1067.58 478.111 1067.32 477.624L1067.4 476.7L1067.91 478.642C1065.14 475.836 1063.81 471.015 1061.19 468.17L1062.45 465.968Z" fill="#D9CBB8"/>
<path d="M1046.54 71.036C1045.99 68.4642 1045.51 44.8723 1046.45 43.3481C1049.56 47.1554 1045.66 56.7879 1048.06 60.972C1048.37 62.8118 1049.7 69.0899 1049.73 70.2964L1048.54 70.4392L1046.54 71.036Z" fill="#C9B27A"/>
<path d="M1068.83 70.9309C1069.01 67.0807 1068.63 44.5256 1069.92 43.1592C1071.54 44.722 1070.72 67.319 1070.36 71.1177L1068.83 70.9309Z" fill="#C9B27A"/>
<path d="M1057.05 43.8729C1057.33 41.0639 1057.12 27.1851 1058.5 25.5986C1058.9 31.9262 1058.9 36.6115 1058.75 42.9681L1057.05 43.8729Z" fill="#C9B27A"/>
<path d="M1009.06 113.669C1005.85 109.84 999.07 100.942 997.025 96.5332C1000.2 98.1723 1006.29 109.455 1010.09 112.771L1009.06 113.669Z" fill="#C9B27A"/>
<path d="M1049.77 52.884C1049.85 46.4566 1049.71 41.7133 1050.47 35.2935L1050.77 35.448L1051.64 52.2239L1049.77 52.884Z" fill="#C9B27A"/>
<path d="M1064.6 51.436C1066.32 48.9769 1064.62 38.3764 1065.86 34.4683C1067.3 37.4061 1066.49 49.5834 1066.64 53.7309C1066.14 52.4643 1065.68 52.2615 1064.6 51.436Z" fill="#C9B27A"/>
<path d="M1103.66 96.8087C1105.93 95.9575 1110.07 88.6407 1113.15 85.3809L1113.42 85.5225C1111.36 88.9337 1105.86 96.4674 1105.87 99.8636C1105.25 98.1215 1105.12 97.9465 1103.66 96.8087Z" fill="#C9B27A"/>
<path d="M1057.52 456.585C1056.12 455.131 1044.23 454.797 1040.52 454.087C1042.5 452.546 1052.33 454.193 1055.5 454.468L1057.37 455.265L1057.52 456.585Z" fill="#D7C8B6"/>
<path d="M1061.08 455.382C1063.87 454.858 1070.1 454.391 1072.19 456.579L1072.08 457.617C1070.66 457.44 1070.83 457.398 1069.5 456.837C1067.25 455.908 1064.72 455.945 1062.5 456.938C1061.64 457.319 1060.92 458.038 1060.39 458.806C1061.08 456.952 1061.42 456.992 1061.08 455.382Z" fill="#D7C8B6"/>
<path d="M1003.83 92.1749C1002.27 88.4632 998.096 84.8568 995.799 80.5332C998.654 82.7454 1002.19 87.2717 1004.68 90.1634L1003.83 92.1749Z" fill="#C9B27A"/>
<path d="M1098.05 96.3085C1100.1 92.8404 1101.17 90.7391 1104.07 87.8506C1104.5 89.2524 1099.78 96.0133 1098.89 97.9336L1098.05 96.3085Z" fill="#C9B27A"/>
<path d="M1052.53 457.433L1052.65 458.21C1049.83 459.081 1047.65 459.831 1044.92 460.913L1044.82 460.22C1046.68 457.932 1049.58 457.881 1052.53 457.433Z" fill="#D9CBB8"/>
<path d="M229.355 402.426C235.193 384.26 260.691 391.198 261.09 401.207C260.412 402.787 260.285 403.034 259.171 404.338C251.457 409.706 236.686 414.784 230.762 404.424C228.271 407.095 227.608 407.948 225.705 411.049C224.825 408.564 225.102 405.627 225.17 402.95C225.387 404.272 225.34 404.759 226.25 405.749C227.943 405.142 228.133 404.18 229.355 402.426Z" fill="#91AC5A"/>
<path d="M229.355 402.426C232.565 401.92 235.524 399.318 238.402 398.413C243.262 396.885 255.177 397.688 258.509 402.086C258.341 402.579 258.187 403.156 257.936 403.582C249.038 397.439 238.965 396.398 230.762 404.424C228.271 407.095 227.608 407.948 225.705 411.049C224.825 408.564 225.102 405.627 225.17 402.95C225.387 404.272 225.34 404.759 226.25 405.749C227.943 405.142 228.133 404.18 229.355 402.426Z" fill="#789144"/>
<path d="M187.156 403.56C181.766 393.292 210.656 382.713 218.478 402.173L216.536 401.561L215.577 402.409L217.627 404.099C212.017 413.737 195.096 411.118 188.242 404.552L187.156 403.56Z" fill="#91AC5A"/>
<path d="M187.156 403.56C181.766 393.292 210.656 382.713 218.478 402.173L216.536 401.561L215.577 402.409C204.323 396.57 198.469 398.023 188.242 404.552L187.156 403.56Z" fill="#89A551"/>
<path d="M187.156 403.56C188.086 402.356 193.091 399.493 194.694 399.004C203.01 396.47 209.197 398.103 216.536 401.561L215.577 402.409C204.323 396.57 198.469 398.023 188.242 404.552L187.156 403.56Z" fill="#789144"/>
<path d="M223.315 399.099C219.445 395.784 214.904 390.782 215.25 385.329C217.396 351.434 245.211 382.843 224.997 399.487L225.018 393.682C224.725 394.888 224.177 397.63 223.596 398.564L223.315 399.099Z" fill="#89A551"/>
<path d="M223.596 398.564C223.394 394.808 222.507 382.548 223.316 379.264L223.99 379.683C224.433 381.585 224.761 390.791 225.018 393.682C224.725 394.888 224.177 397.63 223.596 398.564Z" fill="#789144"/>
<path d="M223.596 398.564C224.177 397.63 224.725 394.888 225.018 393.682L224.997 399.487L225.17 402.95C225.102 405.627 224.825 408.564 225.705 411.049C225.306 418.442 225.713 425.486 225.615 432.79C225.431 435.278 225.585 439.536 224.602 441.367C224.055 441.536 223.219 441.826 222.685 441.927C222.443 432.128 223.786 419.302 221.352 410.036C221.003 408.709 218.533 405.342 217.627 404.099L215.577 402.409L216.536 401.561L218.478 402.173L222.534 407.298C222.992 404.75 223.129 401.717 223.315 399.099L223.596 398.564Z" fill="#819C4B"/>
<path d="M225.615 432.79C225.786 438.44 225.129 446.017 225.826 450.967L225.68 453.433L225.608 457.086C225.588 457.553 225.46 459.881 225.496 460.203L225.533 460.877C225.951 467.562 231.003 471.935 230.695 474.604C228.51 472.415 226.118 468.231 224.593 467.304L224.283 467.516C222.771 468.058 222.39 467.906 220.737 467.748C221.814 466.239 222.703 464.079 223.5 462.36C223.438 459.6 223.493 458.533 222.693 455.87L222.646 455.438C223.388 453.317 222.9 449.814 222.733 447.421L222.685 441.927C223.219 441.826 224.055 441.536 224.602 441.367C225.585 439.536 225.431 435.278 225.615 432.79Z" fill="url(#paint0_linear_325_31130)"/>
<path d="M225.826 450.967C233.645 460.519 236.348 455.141 245.649 457.006C250.817 458.043 249.785 464.938 258.527 465.037L259.224 465.576C258.493 467.076 259.052 466.615 257.606 467.129C250.453 465.715 246.766 455.956 242.104 458.679C243.126 460.93 244.722 463.95 244.934 466.29L244.237 466.804C242.666 464.678 242.326 462.219 240.457 459.228C232.795 458.781 231.373 458.908 225.68 453.433L225.826 450.967Z" fill="#D7C8B6"/>
<path d="M196.176 463.55C209.628 446.989 219.198 465.721 222.733 447.421C222.9 449.814 223.388 453.317 222.646 455.438L221.935 455.273C221.615 455.532 221.291 455.785 220.963 456.034C215.666 460.064 213.774 458.098 208.001 457.345C202.717 456.654 200.599 461.323 196.505 464.552L195.996 464.949C193.477 465.231 191.711 465.564 189.21 465.093C190.723 464.111 194.198 463.833 196.176 463.55Z" fill="#D7C8B6"/>
<path d="M225.608 457.086C228.943 459.665 246.381 472.833 248.241 475.1L247.564 475.454C245.078 474.078 240.294 470.268 237.682 468.413C237.764 473.148 237.898 475.851 237.09 480.565C236.051 478.172 236.487 471.586 236.291 468.55C233.256 465.131 230.326 462.481 226.436 460.029L225.496 460.203C225.46 459.881 225.588 457.553 225.608 457.086Z" fill="#D7C8B6"/>
<path d="M223.5 462.36L222.693 460.476L221.881 460.258C217.769 461.811 215.078 464.169 212.565 467.779C210.033 471.418 211.465 475.65 211.127 479.816L210.513 479.646C210.085 478.453 208.963 466.08 209.229 465.898C213.72 462.841 219.633 460.541 222.693 455.87C223.493 458.533 223.438 459.6 223.5 462.36Z" fill="#D7C8B6"/>
<path d="M220.737 467.748C222.39 467.906 222.771 468.058 224.283 467.516C223.459 470.696 224.131 474.87 222.927 478.775C221.954 477.64 222.242 470.851 222.289 468.954C220.647 471.618 219.043 474.611 217.502 477.358C218.078 472.599 218.433 471.895 220.737 467.748Z" fill="#D7C8B6"/>
<path d="M220.818 477.996L221.376 478.764C220.974 479.401 220.59 480.05 220.224 480.708C217.993 484.74 217.494 485.661 218.718 489.821C214.787 484.934 217.616 482.149 220.818 477.996Z" fill="#D7C8B6"/>
<path d="M204.486 469.607C204.991 470.89 204.844 470.197 204.537 471.818C202.889 473.894 202.093 474.259 199.86 475.652C199.902 473.337 202.191 472.812 204.486 469.607Z" fill="#F2F3EE"/>
<path d="M707.427 102.643C707.079 97.8298 706.266 97.1739 710.063 94.454C710.573 98.3847 712.214 99.3883 715.226 102.22C713.377 102.357 711.286 102.162 710.049 103.109C709.085 124.453 710.102 155.223 710.207 177.155L710.462 223.426C710.455 232.82 710.107 243.273 710.486 252.51C714.991 234.015 722.923 170.689 738 161.698C739.965 160.527 742.052 160.19 744.276 160.714C754.416 163.102 767.774 184.72 773.063 193.218C765.813 186.898 748.098 170.39 740.634 166.441C728.909 184.59 721.08 235.593 715.708 257.445C714.96 260.487 710.61 279.398 710.544 281.141C710.131 292.154 710.309 305.143 710.34 316.385L710.765 383.74L710.903 383.232C712.523 377.065 714.206 358.938 715.252 351.678C718.824 328.076 722.829 304.542 727.267 281.089C730.128 265.792 732.985 249.324 738.17 234.622C739.984 229.478 744.467 224.241 750.5 226.303C757.216 228.892 761.471 238.08 764.28 244.268C769.908 256.824 774.126 269.967 776.858 283.452C769.493 270.347 755.881 246.691 746.136 235.745C739.166 271.997 733.297 308.521 726.025 344.68C723.221 357.99 720.219 371.258 717.018 384.479C711.811 405.35 710.407 409.602 710.516 431.12C720.418 393.864 733.133 360.606 743.689 324.297C740.926 362.371 725.966 409.535 710.743 444.809C709.696 445.227 708.621 445.705 707.535 445.976C707.016 444.416 706.263 442.759 705.621 441.227C691.729 408.056 680.491 373.263 675.476 337.617C675.539 335.875 675.725 335.756 676.7 334.223C683.92 355.371 690.956 376.582 697.807 397.853C701.12 408.35 704.347 420.768 707.926 430.852C707.92 427.377 708.077 417.079 707.578 414.307C705.482 402.67 701.891 390.543 699.228 378.888C696.017 364.362 692.998 349.793 690.17 335.187C686.959 318.017 683.845 300.828 680.828 283.622C679.066 273.726 677.044 260.616 674.272 251.158C661.834 267.067 652.799 283.974 642.634 301.318C653.65 257.448 676.006 199.498 691.072 282.758C696.692 313.82 701.173 343.55 705.798 374.745L706.346 374.664C707.161 373.351 707.199 365.687 707.407 363.42C708.131 340.778 707.536 317.963 707.52 295.302C707.509 280.024 708.444 264.101 707.265 248.892C706.658 241.058 704.395 232.914 703.069 225.125C699.49 204.101 689.367 134.017 677.403 119.001C670.742 110.643 649.687 110 639.549 108.755C640.225 108.623 640.901 108.499 641.58 108.382C651.977 106.594 669.987 105.473 678.871 111.94C694.155 123.064 702.669 183.724 705.812 203.308C706.582 202.47 707.085 201.506 707.078 200.334C706.896 167.908 707.814 135.079 707.027 102.691L707.427 102.643Z" fill="#819C4B"/>
<path d="M707.027 102.691L707.427 102.643C708.534 127.907 706.981 156.315 707.591 181.845C707.713 186.971 708.038 212.588 707.553 215.578C707.182 213.389 705.688 205.051 705.812 203.308C706.582 202.47 707.085 201.506 707.078 200.334C706.896 167.908 707.814 135.079 707.027 102.691Z" fill="#F2F3EE"/>
<path d="M707.408 363.421C707.55 370.3 707.825 379.889 707.145 386.718C706.611 383.005 705.804 378.422 705.799 374.745L706.347 374.664C707.162 373.351 707.2 365.688 707.408 363.421Z" fill="#F2F3EE"/>
<path d="M708.084 25.7556L709.758 25.0836L710.659 26.4747C715.426 32.7336 713.847 34.8804 709.043 40.3889L716.75 34.7923L717.449 35.2743C717.573 36.9337 717.676 38.5943 717.756 40.2569C717.122 42.5679 716.741 44.2703 715.644 46.416L719.405 46.2067C721.892 50.249 716.936 52.3335 717.975 55.6996L720.999 56.1719L722.268 56.8643C721.067 61.3853 718.243 64.9726 718.491 67.4403C721.105 67.9394 720.073 66.1619 721.824 67.553C721.942 70.9159 719.702 75.4155 717.694 78.1075L720.336 77.5751C721.249 78.5369 720.968 77.9733 721.125 79.3569C720.879 83.3327 720.26 86.3135 717.233 89.2342C719.389 88.7318 719.577 88.2681 721.149 89.1343C722.54 93.3474 718.813 99.9636 715.226 102.22C712.214 99.3883 710.573 98.3847 710.063 94.454C706.266 97.1739 707.079 97.8298 707.427 102.643L707.027 102.691C705.766 102.659 703.32 102.368 702.279 101.616C699.45 99.574 694.017 92.1216 696.945 88.8209C698.152 88.939 698.858 89.1333 699.968 88.6481C698.224 85.926 694.841 80.6139 696.648 77.3057L698.963 78.0968C700.036 76.5414 695.439 70.0776 696.228 66.6223C697.443 66.764 698.147 66.9497 699.312 67.2395C699.392 66.4281 696.306 59.4285 695.672 56.6496C696.631 56.1902 698.589 56.0377 699.715 55.8896L699.989 55.5386C698.321 51.8043 697.833 48.362 697.672 44.3336C698.911 44.7576 699.19 44.8177 700.487 45.0367C701.322 43.4245 699.509 39.2222 700.041 35.6918L701.606 35.0661C702.818 35.9494 705.294 37.8601 706.507 38.4966L706.188 37.1141C702.392 33.1307 703.855 28.6397 708.084 25.7556Z" fill="#91AC5A"/>
<path d="M708.084 25.7556L709.758 25.0836L710.659 26.4747C715.426 32.7336 713.847 34.8804 709.043 40.3889L716.75 34.7923L717.449 35.2743C717.573 36.9337 717.676 38.5943 717.756 40.2569C717.122 42.5679 716.741 44.2703 715.644 46.416C714.482 46.5083 714.287 46.3784 713.334 46.9247C712.131 46.2056 710.21 46.5652 710.134 46.4321C709.21 44.8156 709.569 41.4419 708.327 40.2L707.872 42.5368C707.251 41.5546 707.409 40.9288 707.434 39.7395L707.449 39.2544L706.507 38.4966L706.188 37.1141C702.392 33.1307 703.855 28.6397 708.084 25.7556Z" fill="#819C4B"/>
<path d="M708.084 25.7556L709.758 25.0836L710.659 26.4747C709.004 29.6798 711.015 36.279 709.26 37.4897C707.732 36.8049 707.685 36.4518 706.408 36.747L706.188 37.1141C702.392 33.1307 703.855 28.6397 708.084 25.7556Z" fill="#91AC5A"/>
<path d="M717.233 89.2342C719.389 88.7318 719.577 88.2681 721.149 89.1343C722.54 93.3474 718.813 99.9636 715.226 102.22C712.214 99.3883 710.573 98.3847 710.063 94.454C713.598 91.7834 716.069 92.2246 717.233 89.2342Z" fill="#96B05E"/>
<path d="M711.743 80.9445C713.613 80.645 713.368 80.9735 714.565 79.9119L714.651 78.2073C715.726 77.0073 715.071 77.3369 716.682 77.1941L717.142 78.2546L717.694 78.1075L720.336 77.5751C721.249 78.5369 720.968 77.9733 721.125 79.3569C717.838 79.3462 712.515 81.2772 711.081 84.6315C711.39 86.3038 711.823 86.5593 713.007 87.8946C712.618 89.9652 711.62 90.7466 709.592 91.2929C708.347 90.7573 708.018 90.8711 707.485 89.5358C705.534 84.653 709.496 83.6698 711.743 80.9445Z" fill="#819C4B"/>
<path d="M707.872 42.5368L708.327 40.2C709.569 41.4419 709.21 44.8156 710.134 46.4321C710.21 46.5652 712.131 46.2056 713.334 46.9247C706.463 50.5485 709.692 52.6684 709.051 59.6518C708.088 59.4543 708.46 59.5713 707.636 58.8607C706.749 52.15 710.334 52.443 705.457 47.4045L706.094 46.6059L705.749 46.1616C707.017 44.8327 707.284 44.2746 707.872 42.5368Z" fill="#789144"/>
<path d="M708.651 73.9675C709.994 75.6902 709.726 78.29 709.23 80.3981L707.891 80.031C706.955 77.5493 707.157 76.0273 708.651 73.9675Z" fill="#789144"/>
<path d="M710.743 444.809C710.97 449.412 710.966 453.874 710.978 458.479C715.066 458.401 719.026 457.991 722.475 460.493C719.32 460.295 714.777 459.717 711.932 460.678L711.158 461.497C711.732 464.943 721.038 468.246 724.399 469.763C732.113 464.86 736.989 464.408 745.026 468.972L745.146 469.359C739.595 468.117 727.778 464.652 725.646 472.488C727.249 479.995 740.136 479.508 743.367 483.834L742.731 484.184L742.118 483.883C740.006 482.859 729.868 479.658 729.424 479.107C723.329 471.541 718.665 469.102 710.201 464.699C710.621 465.62 712.339 469.276 712.88 469.849C715.511 472.64 731.495 489.809 731.184 492.852C727.701 491.086 719.506 476.776 716.03 476.141L715.877 477.027L714.961 478.34C714.062 476.116 713.634 474.351 711.8 472.896L711.064 473.368C710.555 476.089 710.943 483.558 710.84 487.266C714.053 491.501 718.66 496.854 716.994 502.398C715.011 501.84 714.215 487.892 709.12 489.784C706.107 493.521 707.926 497.624 707.914 503.349L707.49 503.138C705.043 493.211 706.984 491.319 709.35 482.183C709.579 481.293 709.36 475.962 709.308 474.755C708.378 477.512 707.077 481.52 705.404 483.883C701.539 489.34 697.858 488.136 697.158 495.07L697.087 495.799L696.295 495.426C695.455 493.167 701.253 479.833 702.573 475.022C697.663 477.301 691.981 479.573 688.1 483.401C686.612 484.868 684.615 489.163 683.187 489.97L683.009 489.211C686.011 480.141 694.99 477.481 702.239 473.361C704.73 471.947 708.568 465.621 706.59 463.114C703.151 463.291 699.021 466.962 696.192 467.182C687.447 467.859 678.453 468.306 669.703 469.012C671.021 465.565 706.191 468.151 706.733 458.932C704.618 458.322 702.042 461.17 699.582 460.558L699.816 459.401L700.172 457.955C708.765 457.749 707.233 452.648 707.535 445.976C708.621 445.705 709.696 445.227 710.743 444.809Z" fill="#D7C8B6"/>
<path d="M707.272 470.838C708.413 476.197 703.812 483.936 700.45 487.835C699.684 484.36 704.551 473.851 707.272 470.838Z" fill="#F2F3EE"/>
<path d="M721.124 25.6772L722.113 26.1516C723.001 30.5149 722.642 52.3657 722.268 56.8643L720.999 56.1719L717.975 55.6996C716.936 52.3335 721.892 50.249 719.405 46.2067C721.965 43.4985 719.304 30.9743 721.124 25.6772Z" fill="#96B05E"/>
<path d="M719.405 46.2067C721.965 43.4985 719.304 30.9743 721.124 25.6772C721.173 33.5794 721.665 48.8987 720.999 56.1719L717.975 55.6996C716.936 52.3335 721.892 50.249 719.405 46.2067Z" fill="#F2F3EE"/>
<path d="M695.672 56.6496C695.003 53.1407 695.42 29.9589 695.645 25.6021L696.065 25.7298C697.31 29.1453 696.728 39.9295 696.657 44.1662L697.672 44.3336C697.833 48.362 698.321 51.8043 699.989 55.5386L699.715 55.8896C698.589 56.0377 696.631 56.1902 695.672 56.6496Z" fill="#96B05E"/>
<path d="M696.657 44.1662L697.672 44.3336C697.833 48.362 698.321 51.8043 699.989 55.5386L699.715 55.8896C697.748 55.6309 698.197 55.9862 697.006 54.8377C696.063 51.6175 696.504 47.587 696.657 44.1662Z" fill="#F2F3EE"/>
<path d="M708.084 25.7556C708.106 20.5819 707.815 8.60188 708.48 4.1377L709.005 4.52948C710.445 8.36037 709.819 20.3489 709.758 25.0836L708.084 25.7556Z" fill="#91AC5A"/>
<path d="M700.042 35.6918C699.797 30.1564 699.397 20.6945 700.308 15.1924C701.718 18.9471 701.567 30.4623 701.607 35.066L700.042 35.6918Z" fill="#91AC5A"/>
<path d="M716.75 34.7923C716.507 29.3213 716.79 21.7486 717.178 16.2701L717.536 16.9238L717.293 17.147C718.527 19.2927 718.412 37.2697 717.756 40.2569C717.676 38.5943 717.573 36.9337 717.449 35.2743L716.75 34.7923Z" fill="#91AC5A"/>
<path d="M699.817 459.401C697.329 458.146 693.255 458.473 690.186 458.307L690.111 457.643C692.739 456.64 697.428 457.275 700.173 457.955L699.817 459.401Z" fill="#D7C8B6"/>
<path d="M675.476 337.617C674.872 334.216 674.382 329.454 673.918 325.941C675.174 329.068 675.817 330.972 676.7 334.223C675.725 335.756 675.539 335.875 675.476 337.617Z" fill="#89A551"/>
<path d="M715.877 477.027C716.856 479.217 718.116 481.371 718.046 483.677C716.531 482.454 715.799 480.208 714.961 478.34L715.877 477.027Z" fill="#D9CBB8"/>
<path d="M294.81 293.436C299.266 287.228 311.949 271.241 318.733 270.431C335.647 268.409 343.87 318.295 346.162 329.535L348.155 329.755C348.36 319.335 348.986 303.33 348.23 292.66C348.086 290.627 343.005 291.759 340.951 288.287C339.613 286.028 337.766 282.186 338.299 279.467C339.923 278.666 339.701 279.008 341.929 279.391C345.522 282.605 343.93 279.786 348.518 284.552C349.058 282.005 350.226 281.836 349.905 279.274C351.002 277.753 351.605 276.466 353.307 275.928C356.554 277.301 355.53 279.138 357.156 279.326L359.808 279.022C362.954 281.747 358.428 288.655 356.094 290.865L351.374 291.431C350.449 294.061 351.166 339.074 351.392 344.807C355.054 327.119 358.491 312.034 363.987 294.715C374.979 260.082 391.36 278.348 405.697 298.648C400.435 295.095 382.04 281.28 377.951 279.843C366.428 295.777 361.827 327.94 356.278 347.031C355.348 350.235 351.796 364.068 351.725 366.772C351.217 386.028 350.937 406.959 351.721 426.143L351.908 425.543C354.724 416.3 355.889 405.993 357.759 396.485C360.667 381.686 373.75 314.319 384.197 308.592C386.485 307.338 389.074 307.025 391.565 307.851C398.435 310.126 404.031 320.759 406.967 327.124C408.526 330.504 410.048 334.168 410.968 337.776C405.096 330.876 393.854 319.005 386.679 313.255C376.942 350.694 369.642 388.601 357.712 425.414C355.855 431.142 353.244 437.183 351.585 442.838C350.621 443.267 349.123 444.001 348.157 444.198C334.402 407.647 327.203 366.217 316.391 328.171C307.787 334.607 299.01 344.594 291.771 352.612C293.873 347.122 296.267 341.653 299.025 336.462C301.757 331.321 306.039 323.709 312.052 322.113C314.318 321.512 316.431 321.892 318.433 323.079C331.323 330.726 343.299 406.962 348.436 424.736C347.642 405.485 349.638 385.978 348.412 366.779C347.511 352.684 332.131 291.934 325.389 280.053C324.325 278.178 323.306 276.748 321.163 276.166C316.035 277.462 300.72 289.561 294.81 293.436Z" fill="#819C4B"/>
<path d="M349.905 279.274C351.002 277.753 351.605 276.466 353.307 275.928C356.554 277.301 355.53 279.138 357.156 279.326L359.808 279.022C362.954 281.747 358.428 288.655 356.094 290.865C355.565 290.702 355.851 290.765 355.111 290.701L354.505 290.654L354.525 289.648L352.796 289.744L352.59 289.345L354.728 289.037L355.407 288.007L354.887 286.996C352.183 285.074 351.812 284.914 348.518 284.552C349.058 282.005 350.226 281.836 349.905 279.274Z" fill="#91AC5A"/>
<path d="M346.162 329.535L348.155 329.755C348.253 332.074 348.069 334.911 347.977 337.271C347.25 334.891 346.697 332.004 346.162 329.535Z" fill="#F2F3EE"/>
<path d="M348.709 221.658L350.221 220.979C354.168 226.219 354.902 227.623 351.484 233.66C353.373 232.71 354.949 231.304 356.588 229.964L357.701 230.431C358.056 235.307 355.77 239.905 356.149 240.437L358.674 240.04C360.507 241.711 357.989 246.976 356.771 248.653L355.97 248.979C358.559 249.885 359.073 249.799 361.763 249.662L361.564 250.381C360.59 253.835 359.833 255.086 358.04 258.203L358.427 258.792L360.405 258.427C362.337 260.634 359.863 266.681 357.545 268.287L359.965 268.42C362.416 271.641 359.457 276.82 357.156 279.326C355.53 279.138 356.554 277.301 353.307 275.928C351.605 276.466 351.002 277.753 349.905 279.274C350.226 281.836 349.058 282.005 348.518 284.552C343.93 279.786 345.522 282.605 341.929 279.391C339.823 277.185 336.344 271.862 339.353 269.354L342.158 269.75C340.326 267.697 336.559 261.401 338.549 258.919C339.509 259.312 340.208 259.727 341.223 259.626C341.187 258.198 338.475 253.325 337.501 250.061L338.729 249.203L342.373 249.142C340.906 247.335 339.083 242.385 340.436 240.381L343.614 240.18C341.066 236.643 340.671 235.582 341.398 231.237L343.031 230.339C344.949 231.749 345.934 232.429 347.593 234.16L347.783 233.432C344.573 228.326 344.557 225.848 348.709 221.658Z" fill="#89A551"/>
<path d="M357.545 268.287L359.965 268.42C362.416 271.641 359.457 276.82 357.156 279.326C355.53 279.138 356.554 277.301 353.307 275.928C351.605 276.466 351.002 277.753 349.905 279.274C349.549 275.085 347.98 274.603 349.1 271.563C351.331 271.695 351.692 271.74 353.801 271.048C355.009 270.108 356.304 269.193 357.545 268.287Z" fill="#96B05E"/>
<path d="M341.398 231.237L343.031 230.339C344.949 231.749 345.934 232.429 347.593 234.16L345.098 236.938L345.813 238.307L345.037 239.147C346.125 240.038 347.305 240.76 347.9 241.927L347.771 242.094L345.341 241.112L347.14 240.997C344.729 241.026 345.637 241.273 343.614 240.18C341.066 236.643 340.671 235.582 341.398 231.237Z" fill="#819C4B"/>
<path d="M349.537 268.429C350.938 267.99 351.629 267.361 352.755 266.433L353.46 266.707C353.733 268.472 353.792 269.262 353.801 271.048C351.692 271.74 351.331 271.695 349.1 271.563L348.856 271.458C349.144 270.699 349.367 269.279 349.537 268.429Z" fill="#819C4B"/>
<path d="M346.831 271.639C346.839 269.382 346.618 265.951 348.049 264.233C349.241 265.482 349.23 266.68 349.537 268.429C349.367 269.279 349.144 270.699 348.856 271.458L346.831 271.639Z" fill="#789144"/>
<path d="M349.34 253.694L350.424 253.482C351.677 255.906 351.889 260.078 348.941 261.428L347.648 260.805C346.875 258.517 347.93 255.548 349.34 253.694Z" fill="#789144"/>
<path d="M351.585 442.838C351.715 446.589 351.785 450.343 351.79 454.097C356.484 454.16 359.12 454.347 363.324 456.63C361.39 457.215 355.535 453.885 351.915 457.066C352.263 460.697 361.592 464.205 364.811 465.743C371.724 461.825 379.018 460.705 385.745 465.776L385.726 466.363C379.378 464.147 370.255 461.269 365.368 468.038C367.385 471.493 368.273 472.654 371.797 474.688C373.495 475.668 382.163 477.657 381.934 479.195C370.446 477.729 367.169 471.956 359.228 465.132C358.408 464.428 352.255 461.505 350.956 460.933C356.205 471.715 366.6 478.146 370.658 487.644C366.444 483.778 360.407 474.618 356.965 471.993C356.258 472.432 356.335 472.257 355.889 472.884L355.101 473.619C354.654 472.053 353.824 469.595 352.504 468.676C350.689 470.832 351.512 480.306 351.611 483.484C355.349 488.629 357.161 490.645 357.899 496.894C357.341 496.958 357.663 497.038 357.296 496.377C355.51 493.153 353.783 487.513 350.65 485.596L349.535 485.993C347.029 490.929 348.484 493.042 348.898 498.496L348.416 498.609C345.208 491.432 348.043 486.946 349.658 479.966C349.875 479.029 349.705 474.322 349.659 473.163C348.644 475.34 347.575 477.468 346.231 479.505C344.064 482.787 338.378 486.732 338.141 490.51L337.63 490.888L337.101 489.819C337.313 486.981 341.728 475.772 342.906 472.475L342.567 471.811L341.098 471.185C344.646 468.966 348.881 464.352 347.349 459.87C344.113 460.098 340.206 462.742 337.46 463.205C332.584 464.029 316.244 464.949 311.895 464.236C319.636 463.13 344.945 463.309 347.739 455.374L346.106 454.362C348.71 451.943 348.128 447.578 348.157 444.198C349.123 444.001 350.621 443.267 351.585 442.838Z" fill="#D7C8B6"/>
<path d="M347.892 467.273C349.087 473.204 344.734 479.347 341.32 483.707L340.928 482.736C341.292 478.381 344.684 470.497 347.892 467.273Z" fill="#F2F3EE"/>
<path d="M337.501 250.061C337.001 246.483 336.928 225.483 337.915 222.756C338.821 223.75 338.655 225.374 338.818 227.007C340.182 230.87 337.862 238.489 340.436 240.381C339.083 242.385 340.906 247.335 342.373 249.142L338.729 249.203L337.501 250.061Z" fill="#91AC5A"/>
<path d="M338.818 227.007C340.182 230.87 337.862 238.489 340.436 240.381C339.083 242.385 340.906 247.335 342.373 249.142L338.729 249.203C338.32 246.377 338.48 230.084 338.818 227.007Z" fill="#F2F3EE"/>
<path d="M356.771 248.653L359.435 249.032L360.358 248.3C360.827 244.069 359.935 223.154 361.198 221.7L361.743 222.146C361.986 231.127 361.804 240.63 361.763 249.662C359.073 249.799 358.559 249.885 355.97 248.979L356.771 248.653Z" fill="#96B05E"/>
<path d="M342.567 471.811C333.107 475.218 330.16 477.45 324.882 485.243L324.339 485.01C324.564 477.913 335.457 473.27 341.098 471.185L342.567 471.811Z" fill="#D9CBB8"/>
<path d="M348.709 221.658C348.713 215.954 348.518 209.05 349.696 203.532C350.774 206.072 350.495 217.865 350.221 220.979L348.709 221.658Z" fill="#91AC5A"/>
<path d="M356.588 229.964C356.381 225.821 355.923 217.904 356.756 214.139L357.383 213.544C358.828 216.604 358.247 227.001 357.701 230.431L356.588 229.964Z" fill="#91AC5A"/>
<path d="M341.398 231.237C341.234 226.74 340.831 218.611 342.149 214.344C343.044 218.717 342.345 227.506 343.031 230.339L341.398 231.237Z" fill="#96B05E"/>
<path d="M342.873 456.411C341.673 455.9 334.574 454.719 331.981 453.942C333.929 453.412 343.575 454.184 346.106 454.362L347.739 455.374C345.756 455.373 344.399 456.08 342.542 456.806L342.873 456.411Z" fill="#D9CBB8"/>
<path d="M355.889 472.884C356.81 474.79 358.245 477.084 358.097 479.049C356.529 477.991 355.8 475.475 355.101 473.619L355.889 472.884Z" fill="#D9CBB8"/>
<defs>
<linearGradient id="paint0_linear_325_31130" x1="-403.403" y1="225.811" x2="-328.108" y2="698.335" gradientUnits="userSpaceOnUse">
<stop stop-color="#CDB79B"/>
<stop offset="1" stop-color="#DDCEC4"/>
</linearGradient>
</defs>
</svg>
