<svg width="1435" height="469" viewBox="0 0 1435 469" fill="none" xmlns="http://www.w3.org/2000/svg">
<path d="M0.249551 380.736C-2.06449 363.579 12.1259 359.482 25.7737 356.048C43.87 351.495 75.2763 373.776 65.7504 392.47L65.2384 392.355L62.9055 394.391C62.6472 395.639 62.083 398.036 61.9508 399.199L60.7178 399.201C39.3048 411.546 9.05822 405.465 0.249551 380.736Z" fill="#633F2F"/>
<path d="M0.249551 380.736L1.26533 379.206C11.968 381.597 22.044 393.689 32.9624 394.111C40.022 394.383 60.25 385.218 65.2384 392.355L62.9055 394.391C62.6472 395.639 62.083 398.036 61.9508 399.199L60.7178 399.201C39.3048 411.546 9.05822 405.465 0.249551 380.736Z" fill="#492E22"/>
<path d="M60.7178 399.201C57.4771 397.226 51.0199 396.163 49.5361 393.219C52.3903 390.472 59.708 393.186 62.9055 394.391C62.6472 395.639 62.083 398.036 61.9508 399.199L60.7178 399.201Z" fill="#AB7047"/>
<path d="M28.7923 365.057C38.6109 364.25 54.6231 369.295 59.0085 378.941C59.4258 379.859 59.2052 379.603 58.8635 380.628C55.5113 381.273 50.7527 375.625 46.5822 373.8C27.95 365.969 18.463 375.622 12.7569 373.114C12.122 370.879 12.0775 371.987 13.1521 369.705C17.4947 366.755 23.6807 365.876 28.7923 365.057Z" fill="#836355"/>
<path d="M65.2384 392.355L65.7504 392.47C68.3478 398.381 71.1507 409.116 77.1301 411.236C80.6482 412.483 93.0725 411.414 95.6849 413.756L95.3825 415.873C92.3823 417.614 80.2066 416.214 76.4983 415.411C68.3377 413.645 65.2444 405.971 61.9508 399.199C62.083 398.036 62.6472 395.639 62.9055 394.391L65.2384 392.355Z" fill="url(#paint0_linear_325_32838)"/>
<path d="M136.145 359.747C137.347 345.612 168.109 339.535 177.368 361.831L175.861 363.351C164.692 374.6 151.654 370.12 139.218 363.683L136.145 359.747Z" fill="#8BAD53"/>
<path d="M136.145 359.747C144.548 355.605 165.874 352.581 173.194 359.1L174.031 361.271C172.238 361.16 169.815 359.142 167.713 358.373C156.511 354.268 148.37 357.332 139.218 363.683L136.145 359.747Z" fill="#739342"/>
<path d="M188.623 363.337C193.291 349.311 206.5 342.852 219.65 348.493C246.924 360.193 208.456 376.411 195.652 367.116C195.123 366.732 191.845 364.096 191.506 363.957L188.623 363.337Z" fill="#8BAD53"/>
<path d="M205.727 355.006C210.465 354.361 217.764 355.588 222.114 357.554C218.964 357.912 211.145 356.542 206.337 356.468C202.946 357.227 194.267 360.822 192.682 360.597C197.725 356.689 199.422 356.22 205.727 355.006Z" fill="#739342"/>
<path d="M181.921 355.967C176.411 351.432 173.293 347.372 172.687 339.972C172.145 333.352 174.14 321.464 182.925 321.926C191.569 322.383 194.222 335.861 193.424 342.755C192.64 349.535 189.689 353.444 184.548 357.656L184.328 354.759C183.692 354.742 183.295 354.47 182.639 354.194L181.921 355.967Z" fill="#8BAD53"/>
<path d="M182.639 354.194C182.015 348.258 179.802 331.866 181.359 327.232L182.427 326.388C183.292 327.039 184.239 327.551 184.06 328.82C182.847 337.343 184.508 346.23 184.328 354.759C183.692 354.742 183.295 354.47 182.639 354.194Z" fill="#7CA045"/>
<path d="M182.639 354.194C183.295 354.47 183.692 354.742 184.328 354.759L184.548 357.656C184.868 360.195 185.332 363.05 185.325 365.578C186.963 365.126 187.246 364.55 188.623 363.337L191.506 363.957C188.406 366.541 187.955 367.122 185.647 370.453C184.66 376.621 185.301 394.524 185.274 401.782L181.453 401.337C181.588 392.761 182.427 377.254 180.075 369.71L175.861 363.351L177.368 361.831C178.513 363.397 178.86 364.204 180.66 364.928C182.317 362.966 182.224 360.377 182.717 357.458L181.921 355.967L182.639 354.194Z" fill="#82A34B"/>
<path d="M182.717 357.458C183.985 362.711 183.5 365.482 180.075 369.71L175.861 363.351L177.368 361.831C178.513 363.397 178.86 364.204 180.66 364.928C182.317 362.966 182.224 360.377 182.717 357.458Z" fill="#8BAD53"/>
<path d="M188.623 363.337L191.506 363.957C188.406 366.541 187.955 367.122 185.647 370.453C185.154 368.554 185.284 367.506 185.325 365.578C186.963 365.126 187.246 364.55 188.623 363.337Z" fill="#93B759"/>
<path d="M181.808 418.814L182.627 418.153L184.476 420.138C183.043 431.507 187.078 430.84 194.213 438.452C197.712 442.184 198.674 444.383 198.692 449.389L198.096 449.768C196.065 447.581 195.791 443.178 193.208 439.455C188.193 438.338 184.437 449.898 183.663 453.81L183.5 454.656L182.169 454.08C180.715 446.918 188.862 444.343 188.017 437.466C187.53 433.513 183.567 429.122 179.254 429.975C174.419 430.932 174.434 435.986 171.874 439.735C169.192 434.224 174.911 430.95 178.492 427.682C182.284 424.22 181.431 423.639 181.808 418.814Z" fill="#B38F78"/>
<path d="M181.453 401.337L185.274 401.782C185.4 406.712 185.49 410.437 186.11 415.364L185.225 418.123L184.476 420.138L182.627 418.153L181.808 418.814L179.417 420.317L177.909 418.997L178.45 418.506C183.233 414.217 181.636 407.499 181.453 401.337Z" fill="#B38F78"/>
<path d="M186.11 415.364C193.35 420.552 195.572 419.153 203.761 420.699C206.499 423.097 210.872 426.914 211.368 430.656L210.564 431.119C207.908 428.975 205.673 424.351 204.656 423.909C196.798 420.488 193.299 423.142 185.225 418.123L186.11 415.364Z" fill="#B88F72"/>
<path d="M177.909 418.997L179.417 420.317C173.375 423.69 171.542 423.325 164.607 423.213C157.93 423.105 156.172 427.397 151.495 431.284L151.271 430.486C159.515 415.081 165.668 425.222 177.149 419.389L177.909 418.997Z" fill="#B88F72"/>
<path d="M1247.77 48.5024L1248.63 47.4305C1244.04 34.834 1236.78 33.301 1244.84 15.4334C1246.81 11.0619 1249.7 6.50328 1253.05 2.87884C1260.98 0.431119 1264.79 15.5576 1265.62 21.1163C1267.81 35.8535 1261.67 42.6368 1249.38 48.4006C1261.71 63.1992 1264.56 70.0798 1270.91 87.901C1271.63 85.6 1272.53 79.4964 1273.23 76.6085C1276.39 63.548 1280.26 55.4488 1287.5 44.4243L1288.78 43.032C1290.79 42.7596 1296.9 35.1664 1302.67 32.4522L1302.56 33.3684C1298.94 36.6874 1291.05 43.3524 1288.99 47.405C1309.35 35.87 1315.95 42.7805 1330.62 58.2438C1338.23 41.7835 1348.68 33.9088 1365.8 29.0718C1368.12 37.9015 1367.69 41.4676 1366.75 50.3872C1364.93 56.4414 1363.36 61.1407 1359.55 66.2652C1355.18 72.7056 1349.75 76.7538 1341.98 78.2583C1341.06 78.4335 1340.13 78.5922 1339.2 78.7314L1339.74 80.5474C1342.31 81.3947 1356.99 79.1281 1364.12 79.7988C1383.76 59.6332 1409.43 67.1964 1423.26 89.4699C1411.83 97.15 1399.91 102.138 1385.74 99.5004C1378.86 98.2219 1370.14 93.4447 1366.47 87.4205C1365.35 85.5671 1364.16 83.5445 1362.54 82.0429C1352.74 82.8738 1346.42 82.1342 1336.76 84.8484C1344.45 85.7407 1349.38 85.5731 1356.53 89.169C1370.36 96.1185 1372.07 111.651 1372.38 125.571C1378.57 123.195 1391.46 119.853 1397.83 121.165C1405.1 126.782 1390.29 146.355 1385.89 151.028C1379.44 157.867 1372.73 159.755 1363.58 159.843C1361.84 159.857 1360.1 159.849 1358.36 159.819L1358.84 161.628C1364.68 164.39 1371.6 162.788 1381.44 168.275L1380.61 169.996C1375.35 168.594 1362.26 162.71 1358.5 166.844C1380.21 175.31 1379.67 192.409 1373.48 212.545C1380.98 208.724 1405.8 199.583 1411.76 207.395C1412.7 213.765 1407.46 220.424 1403.91 225.34C1398.83 232.371 1390.92 238.033 1382.62 240.513C1378.31 241.814 1370.53 238.626 1367.45 239.554C1374.64 244.255 1377.49 241.921 1387.15 250.11C1413.53 239.871 1431.4 262.372 1434.66 286.579C1413.63 288.189 1379.8 278.707 1386.18 251.601C1377.25 246.852 1373.15 244.762 1363.07 242.501C1371.23 249 1379.43 252.848 1380.71 264.202C1381.87 274.463 1376.96 289.415 1370.6 297.275C1369.98 298.051 1369.32 298.801 1368.63 299.525L1363.44 294.396C1344.25 318.426 1328.23 307.55 1324.91 311.403L1324.82 315.017C1327.05 318.631 1330.62 319.32 1333.78 321.682C1348.93 332.991 1341.35 357.91 1332.18 370.527C1321.77 362.242 1306.21 340.55 1313.75 325.182C1315.07 322.495 1322.55 317.321 1323.22 314.843C1311.96 309.726 1283.82 328.425 1277.02 338.241C1277.36 359.388 1279.67 383.851 1277.48 404.843C1275.24 404.167 1271.45 403.718 1269.02 403.351C1268.01 376.266 1268.35 348.427 1267.38 320.911C1258.45 311.578 1249.64 305.34 1236.71 302.663C1230.98 301.479 1216.1 299.563 1211.57 302.579L1211.63 303.976C1213.69 305.663 1215.69 307.348 1217.68 309.119C1233.74 323.428 1223.68 346.815 1211.21 359.844C1210.12 358.769 1209.07 357.661 1208.04 356.524C1198.96 346.325 1192.57 329.569 1199.27 316.59C1202.72 309.9 1206.25 306.958 1211.75 302.118C1205.28 303.889 1196.48 307.575 1191.44 312.179C1189.58 313.884 1190.42 315.667 1190.4 319.014C1190.42 327.649 1186.9 335.918 1180.67 341.896C1174.8 347.543 1151.17 358.115 1145.54 352.261C1140.17 336.773 1164.91 300.28 1188.12 312.177L1188.51 311.834C1198.95 302.799 1201.28 304.193 1212.45 297.652C1203.46 298.661 1195.93 303.313 1186.59 299.382C1173.2 293.754 1164.94 282.078 1159.28 269.455C1162.88 268.152 1167.13 266.925 1170.83 265.759C1167.93 254.62 1168.57 249.16 1169.54 237.959C1162.08 243.488 1161.18 241.936 1162.55 250.583C1163.63 257.728 1161.94 265.019 1157.81 270.953C1150.06 282.162 1135.61 286.89 1122.85 289.201C1122.42 271.582 1126.61 251.804 1145.58 245.407C1150.26 243.826 1155.41 244.008 1160.31 243.994C1163.61 240.421 1166.13 236.938 1169.02 233.058C1159.87 232.694 1157.75 232.501 1149.28 228.764C1141.66 233.275 1119.61 242.503 1112.08 236.025C1110.78 232.94 1111.53 229.791 1112.91 226.836C1122.99 205.157 1138.34 192.447 1161.8 202.187C1170.91 195.21 1180.28 195.17 1183.12 192.848L1183.02 192.273C1182.03 191.602 1168 192.622 1161.82 189.888C1153.72 186.31 1135.52 165.516 1139.87 156.945C1148.63 152.403 1172.96 157.785 1179.53 165.893C1186.75 174.806 1185.91 181.078 1185.45 191.536C1193.08 191.186 1201.51 191.815 1209.2 192.228C1208.16 189.011 1207.97 188.204 1207.49 184.856L1207.06 184.377C1204.54 186.192 1203.49 186.984 1200.66 185.424C1199.08 180.678 1201.27 179.099 1205.4 177.353L1206.13 176.682C1202.43 175.149 1201.33 175.271 1200.84 171.398C1202.12 168.628 1203.86 167.363 1206.1 165.351L1205.38 164.044L1211.27 161.488L1211.57 160.408L1211.07 158.418L1209.25 157.327C1207.55 156.984 1206.11 154.861 1204.92 153.47C1207.36 149.864 1206.24 143.506 1209.84 136.312C1205.43 124.99 1215.31 122.641 1216.42 113.389C1217.02 108.419 1207.2 107.505 1203.04 108.007C1198.78 110.814 1211.03 121.93 1207.21 132.593C1201.37 148.907 1192.32 153.996 1178.57 162.391C1173.79 145.527 1170.87 123.211 1188.9 112.847C1192.12 111.001 1196.96 110.586 1198.87 107.314L1199.44 104.408C1198.85 103.316 1198.98 102.981 1198.2 102.855C1189.52 101.451 1177.35 97.4644 1172.7 89.2409C1169.2 83.055 1162.66 66.4493 1164.73 59.3352C1165.94 58.166 1166.24 57.6166 1168.11 57.8322C1185.03 59.7829 1205.99 70.6966 1205.08 90.3817C1204.87 94.9957 1203.57 99.3821 1202.36 103.8C1209.17 105.436 1215.03 106.43 1222.07 106.125C1222.52 106.107 1223.11 108.128 1223.21 108.439C1243.33 115.685 1256.3 127.8 1268.35 144.85C1267.75 135.534 1267.54 126.198 1267.72 116.865L1265.86 117.166C1264.09 117.675 1263.79 117.408 1262.08 116.75C1258.81 113.524 1259.55 109.073 1259.51 104.343L1258.66 103.578L1257.37 106.002C1257 107.192 1256.25 108.669 1255.72 109.839C1253.44 111.528 1254.42 111.32 1251.98 111.119L1250.85 109.669C1250.47 107.032 1251.09 106.264 1252.21 103.776C1252.22 102.279 1252.36 102.254 1251.61 100.997C1248.86 105.471 1244.9 115.275 1238.05 111.684C1237.76 109.2 1238.96 105.905 1241.12 104.625C1244.89 99.9271 1243.83 86.7078 1247.98 81.3348C1249.63 78.9964 1250.79 76.0277 1252.27 73.809C1259.64 62.7516 1254.1 58.8637 1246.67 50.3228C1243.13 67.0766 1234.78 71.8868 1217.4 71.7416C1213.55 71.7086 1209.06 70.8103 1206.43 67.8147C1205.26 60.1871 1217.17 50.7091 1223.3 47.5293C1229.65 44.2372 1238.61 46.9663 1244.95 49.0413C1245.16 49.3317 1246.04 50.0219 1246.35 50.2884L1247.77 48.5024Z" fill="#82A34B"/>
<path d="M1306.5 258.67C1322.22 248.572 1342.66 240.32 1361.68 242.771L1363.02 243.681C1362.32 245.847 1360.4 247.815 1358.84 249.602C1351.9 257.547 1351.3 264.106 1353.34 274.172C1328.71 281.67 1323.37 284.839 1324.44 310.798C1303.51 310.258 1292.49 316.972 1276.78 330.057C1276.5 315.435 1276.06 298.986 1276.47 284.435C1281.49 280.054 1280.69 277.127 1282.87 274.811L1280.94 270.876C1283.73 266.179 1286.66 261.463 1289.05 256.556L1290.66 257.586L1291.87 258.805C1289.34 260.469 1289.66 259.742 1288.57 262.115C1292.72 266.179 1291.98 268.097 1292.3 273.76C1293.81 272.193 1295.94 269.417 1297.85 268.937L1298.52 272.97L1299.87 272.431L1301.62 263.538L1304.68 264.253C1306.3 260.896 1303.6 261.21 1305.37 258.412L1306.5 258.67Z" fill="#FEFEFC"/>
<path d="M1289.05 256.556L1290.66 257.586L1291.87 258.805C1289.34 260.469 1289.66 259.742 1288.57 262.115C1292.72 266.179 1291.98 268.097 1292.3 273.76C1293.81 272.193 1295.94 269.417 1297.85 268.937L1298.52 272.97C1299.07 275.943 1300.27 288.49 1300.8 289.67L1301.23 287.664C1301.54 289.376 1302.05 293.152 1302.84 294.48C1304.12 297.907 1305.03 300.91 1301.93 303.386C1294.33 303.491 1293.33 296.952 1292.6 290.977C1292.16 288.882 1291.87 285.837 1290.38 284.569C1289.57 286.906 1290.17 288.812 1290.57 291.32C1287.6 290.914 1284.17 290.296 1281.22 290.403C1281.32 287.391 1283.38 275.874 1282.87 274.811L1280.94 270.876C1283.73 266.179 1286.66 261.463 1289.05 256.556Z" fill="#8BAD53"/>
<path d="M1292.6 290.977C1292.85 288.993 1294.41 280.315 1294.17 279.262C1299.64 285.577 1294.63 292.717 1298.89 297.167C1300.99 296.527 1301.21 296.085 1302.84 294.48C1304.12 297.907 1305.03 300.91 1301.93 303.386C1294.33 303.491 1293.33 296.952 1292.6 290.977Z" fill="#82A34B"/>
<path d="M1301.62 263.538L1304.68 264.253C1306.3 260.896 1303.6 261.21 1305.37 258.412L1306.5 258.67C1305.92 261.706 1306.78 262.023 1308.74 265.203C1310.37 269.375 1308.45 271.676 1309.39 274.12C1312.15 281.276 1313.47 282.794 1314.93 290.601C1318.22 293.474 1318.72 293.749 1320.71 297.649C1321.43 299.75 1321.41 299.905 1321.44 302.15C1313.75 313.872 1304.79 288.719 1302.56 284.753L1301.63 284.98L1301.23 287.664L1300.8 289.67C1300.27 288.49 1299.07 275.943 1298.52 272.97L1299.87 272.431L1301.62 263.538Z" fill="#7CA045"/>
<path d="M1308.74 265.203C1310.37 269.375 1308.45 271.676 1309.39 274.12C1312.15 281.276 1313.47 282.794 1314.93 290.601C1318.22 293.474 1318.72 293.749 1320.71 297.649C1320.73 297.655 1312.25 292.836 1312.25 292.839C1307.59 289.144 1302.62 279.918 1301.79 273.961C1301.4 271.206 1301.85 268.841 1303.46 266.537C1304.43 265.146 1306.75 265.38 1308.74 265.203Z" fill="#8BAD53"/>
<path d="M1281.22 290.403C1284.17 290.296 1287.6 290.914 1290.57 291.32C1290.91 296.639 1291.69 309.955 1287.38 313.099L1286 312.548C1281.79 307.767 1281.19 296.57 1281.22 290.403Z" fill="#7CA045"/>
<path d="M1254.55 135.766C1258.65 140.878 1266.01 151.055 1267.34 157.042C1271.86 177.393 1271.06 211.949 1270.34 233.251C1263.48 224.635 1261.01 221.056 1252.74 213.898C1248.39 210.132 1228.79 198.2 1227.65 196.18L1226.3 192.545L1227.4 189.9C1232.85 187.774 1232.83 187.873 1235.19 182.838C1236.5 180.977 1238.15 176.678 1239.12 174.381C1238.75 172.744 1238.67 172.703 1237.88 171.201L1235.08 170.547C1235.67 168.252 1235.66 167.948 1235.31 165.599L1235.6 165.297C1238.19 161.744 1235.55 153.656 1241.53 149.188L1243.8 149.507C1245.58 147.229 1246.26 146.233 1248.59 144.387C1250.87 139.935 1251.11 139.45 1254.55 135.766Z" fill="#FEFEFC"/>
<path d="M1243.8 149.507C1245.58 147.229 1246.26 146.233 1248.59 144.387L1252.81 151.286C1252.53 154.499 1253.48 156.523 1253.29 158.849L1252.12 162.791C1251.86 170.589 1253.75 174.504 1253.85 180.611C1252.09 186.497 1251.83 193.117 1244.67 192.534C1241.98 190.164 1243.94 181.916 1243.72 177.591C1236.82 191.959 1238.88 188.294 1227.65 196.18L1226.3 192.545L1227.4 189.9C1232.85 187.774 1232.83 187.873 1235.19 182.838C1236.5 180.977 1238.15 176.678 1239.12 174.381C1238.75 172.744 1238.67 172.703 1237.88 171.201L1235.08 170.547C1235.67 168.252 1235.66 167.948 1235.31 165.599L1235.6 165.297C1238.19 161.744 1235.55 153.656 1241.53 149.188L1243.8 149.507Z" fill="#82A34B"/>
<path d="M1235.6 165.297C1238.19 161.744 1235.55 153.656 1241.53 149.188L1243.8 149.507L1242.41 151.777C1243.14 152.775 1242.69 152.548 1243.57 152.75C1243.53 156.092 1243.46 159.431 1243.33 162.77C1239.36 167.444 1243.65 171.464 1239.12 174.381C1238.75 172.744 1238.67 172.703 1237.88 171.202L1235.08 170.547C1235.67 168.252 1235.66 167.948 1235.31 165.599L1235.6 165.297Z" fill="#8BAD53"/>
<path d="M1253.52 163.574L1255.14 163.266C1257.29 166.103 1254.77 166.366 1257.17 168.949C1259.33 168.161 1258.65 168.411 1260.13 165.868C1261.05 168.064 1260.8 167.402 1263.06 169.004L1264.16 169.694C1263.51 177.931 1265.99 182.162 1262.54 189.476C1260.05 188.776 1258.66 188.592 1256.08 188.259C1255.02 186.455 1255.37 186.798 1255.3 184.418L1253.85 180.611C1253.75 174.504 1251.86 170.589 1252.12 162.791L1253.52 163.574Z" fill="#82A34B"/>
<path d="M1252.12 162.791L1253.52 163.574C1254.33 169.113 1255.75 179.013 1255.3 184.418L1253.85 180.611C1253.75 174.504 1251.86 170.589 1252.12 162.791Z" fill="#93B759"/>
<path d="M1256.08 188.259C1258.66 188.592 1260.05 188.776 1262.54 189.476C1263.65 194.102 1264.46 199.347 1259.95 202.493C1253.72 201.742 1255.44 192.701 1256.08 188.259Z" fill="#8BAD53"/>
<path d="M1260.02 154.538C1264.08 161.83 1259.99 161.911 1263.06 169.004C1260.8 167.402 1261.05 168.064 1260.13 165.868C1258.65 168.411 1259.33 168.161 1257.17 168.949C1254.77 166.366 1257.29 166.103 1255.14 163.266L1253.52 163.574L1252.12 162.791L1253.29 158.849C1255.29 157.184 1256.1 158.622 1260.02 154.538Z" fill="#8BAD53"/>
<path d="M1252.81 151.286C1254.42 146.903 1251.85 146.172 1252.97 140.073C1254.38 141.314 1255.5 148.542 1260.02 154.538C1256.1 158.622 1255.29 157.184 1253.29 158.849C1253.48 156.523 1252.53 154.499 1252.81 151.286Z" fill="#93B759"/>
<path d="M1332.4 170.454C1333.12 170.062 1333.84 169.691 1334.58 169.341C1339.25 167.084 1351.65 163.438 1356.45 165.152L1357.01 166.763C1335.98 182.792 1352.1 206.05 1368.62 218.041C1365.02 226.572 1364.37 230.415 1365.69 239.576C1350.06 237.509 1334.16 239.733 1319.69 246.009C1314.03 248.509 1308.56 251.752 1302.93 254.252C1301.65 252.044 1299.95 249.794 1299.97 247.386L1300.2 246.832C1309.24 240.2 1303.75 238.742 1306.66 236.023C1308.13 238.113 1309.58 240.227 1310.98 242.365L1312.15 242.533C1312.73 236.639 1312.85 232.203 1315.18 226.673L1315.43 226.117C1317.57 227.534 1317.95 227.773 1320.26 227.101C1322.02 224.927 1322.03 222.607 1322.47 219.758C1324.17 221.047 1324.07 221.023 1326.13 221.569C1328.65 220.306 1329 218.073 1330.71 214.992C1333.01 208.363 1325.2 192.86 1331.03 185.295C1333.56 184.635 1334.92 184.117 1337.36 183.129C1335.11 179.29 1331.42 174.438 1332.4 170.454Z" fill="#FEFEFC"/>
<path d="M1337.36 183.129C1338.91 187.717 1338.69 188.283 1336.49 192.806C1340.76 198.742 1342.31 200.363 1340.34 208.028L1342.54 209.41C1340.87 209.874 1338.58 210.434 1337.01 211.061L1336.95 211.918C1335.08 215 1336.18 215.973 1337.84 219.371C1335.57 218.225 1332.89 216.392 1330.71 214.992C1333.01 208.363 1325.2 192.86 1331.03 185.295C1333.56 184.635 1334.92 184.117 1337.36 183.129Z" fill="#82A34B"/>
<path d="M1337.01 211.061C1334.04 205.609 1334.01 203.324 1333.69 197.164C1335.95 201.589 1337.11 204.164 1340.34 208.028L1342.54 209.41C1340.87 209.874 1338.58 210.434 1337.01 211.061Z" fill="#93B759"/>
<path d="M1337.01 211.061C1338.58 210.434 1340.87 209.874 1342.54 209.41C1344.17 213.349 1344.89 214.801 1343.27 218.975C1339.7 220.098 1341.03 220.151 1337.84 219.371C1336.18 215.973 1335.08 215 1336.95 211.918L1337.01 211.061Z" fill="#8BAD53"/>
<path d="M1336.95 211.918C1339.36 215.063 1340.32 216.37 1343.27 218.975C1339.7 220.098 1341.03 220.151 1337.84 219.371C1336.18 215.973 1335.08 215 1336.95 211.918Z" fill="#7CA045"/>
<path d="M1322.33 93.2576C1326.17 88.8307 1334.42 86.2827 1340.08 84.3799C1338.02 90.3862 1336.03 94.9508 1336.69 101.442C1338.14 115.847 1352.35 124.614 1364.32 129.963C1355.11 140.219 1354.11 146.691 1357.01 160.208L1358.36 159.819L1358.84 161.628C1364.68 164.39 1371.6 162.788 1381.44 168.275L1380.62 169.996C1375.35 168.594 1362.26 162.71 1358.5 166.844L1357.01 166.763L1356.45 165.152C1351.65 163.438 1339.25 167.085 1334.58 169.341C1333.84 169.691 1333.12 170.062 1332.4 170.454C1330.1 168.501 1328.84 168.51 1325.88 167.897L1320.01 171.815C1318.53 165.417 1318.94 164.971 1314.01 160.707C1312.25 159.187 1312.84 151.605 1311.86 148.928C1310.96 146.44 1307.94 142.937 1308.07 140.733C1309.69 141.306 1310.06 141.754 1311.47 142.757C1316.2 142.395 1315.54 133.152 1315.95 129.171C1318.32 128.915 1316.28 130.658 1320.15 132.638C1322.39 131.713 1321.91 129.259 1324.02 128.306C1325.9 130.818 1326.95 132.635 1329.67 134.198C1332.67 133.897 1331.76 134.414 1333.75 132.625C1334.14 129.33 1334.16 130.589 1332.69 127.003C1331.4 122.864 1331.15 121.976 1330.92 117.678C1327.01 109.293 1328.98 106.621 1325.45 98.9899C1324.87 97.7293 1323.09 94.6498 1322.33 93.2576Z" fill="#FEFEFC"/>
<path d="M1357.01 160.208L1358.36 159.819L1358.84 161.628C1364.68 164.39 1371.6 162.788 1381.44 168.275L1380.61 169.996C1375.35 168.594 1362.26 162.71 1358.5 166.844L1357.01 166.763L1356.45 165.152C1351.65 163.438 1339.25 167.084 1334.58 169.341C1333.84 169.691 1333.12 170.062 1332.4 170.454C1330.1 168.501 1328.84 168.51 1325.88 167.897C1329.46 164.764 1354.85 162.156 1357.01 160.208Z" fill="#93B759"/>
<path d="M1302.67 32.4522L1302.56 33.3684C1298.94 36.6874 1291.05 43.3524 1288.99 47.405C1296.8 69.6381 1310.58 68.3746 1330.33 63.4986C1331.54 68.4704 1333.17 75.5561 1337.88 78.5891L1337.78 80.8378C1335.02 83.3364 1324.86 86.9683 1321.04 87.6645C1319.12 87.0447 1318.77 86.5761 1317.27 85.2796C1315 85.1135 1316.08 84.8514 1314.06 86.4743C1309.71 97.9254 1307.28 98.1201 1298.06 106.294C1296.26 101.319 1293.36 89.7634 1289.96 87.4055L1286.95 87.1719C1286.27 86.2722 1285.73 85.579 1285.1 84.6224L1284.34 83.5625C1283.45 84.7407 1279.79 89.4699 1279.59 90.7784C1278.22 100.059 1277.25 111.429 1277.88 120.762C1278 122.576 1280.73 125.565 1281.87 126.894C1278.75 131.685 1277.06 134.218 1273.23 138.604C1273.1 125.885 1273.36 113.166 1274 100.462C1272.31 94.6289 1275.24 93.801 1270.91 87.901C1271.63 85.6 1272.53 79.4964 1273.23 76.6085C1276.39 63.548 1280.26 55.4488 1287.5 44.4243L1288.78 43.032C1290.79 42.7596 1296.9 35.1664 1302.67 32.4522Z" fill="#FEFEFC"/>
<path d="M1302.67 32.4522L1302.56 33.3684C1298.94 36.6874 1291.05 43.3524 1288.99 47.405C1278.46 64.8984 1273.65 79.9695 1274 100.462C1272.31 94.6289 1275.24 93.801 1270.91 87.901C1271.63 85.6 1272.53 79.4964 1273.23 76.6085C1276.39 63.548 1280.26 55.4488 1287.5 44.4243L1288.78 43.032C1290.79 42.7596 1296.9 35.1664 1302.67 32.4522Z" fill="#93B759"/>
<path d="M1284.34 83.5625C1283.46 80.8902 1279.54 75.2401 1279.94 74.282C1283.9 75.279 1285.97 78.7268 1285.4 82.7105L1285.32 83.2989C1285.25 83.7406 1285.18 84.1807 1285.1 84.6224L1284.34 83.5625Z" fill="#8BAD53"/>
<path d="M1325.88 167.897C1328.84 168.51 1330.1 168.501 1332.4 170.454C1331.42 174.438 1335.11 179.29 1337.36 183.129C1334.92 184.117 1333.56 184.635 1331.03 185.295C1325.2 192.86 1333.01 208.363 1330.71 214.992C1329 218.073 1328.65 220.306 1326.13 221.569C1324.07 221.023 1324.17 221.047 1322.47 219.758C1322.03 222.607 1322.02 224.927 1320.26 227.101C1317.95 227.773 1317.57 227.534 1315.43 226.117L1315.18 226.673C1312.85 232.203 1312.73 236.639 1312.15 242.533L1310.98 242.365C1309.58 240.227 1308.13 238.113 1306.66 236.023C1303.75 238.742 1309.24 240.2 1300.2 246.832C1301.62 241.143 1298.35 237.133 1301.24 232.113L1301.01 230.01C1296.68 231.402 1296.72 238.401 1292.4 240.271C1290.98 235.48 1292.63 217.364 1295.77 212.81C1298.22 209.248 1303.93 210.715 1301.78 202.504C1302.4 202.339 1302.53 202.095 1303.11 201.628L1301.12 200.263L1295.99 202.175L1295.02 202.116L1294.49 200.514C1289.83 202.127 1289.29 206.859 1284.55 207.093C1288.6 199.787 1300.27 188.27 1306.89 182.886C1310.02 180.341 1315.47 176.338 1317.76 173.329L1320.01 171.815L1325.88 167.897Z" fill="#8BAD53"/>
<path d="M1295.99 202.175C1297.23 196.962 1320.83 175.757 1325.96 174.467L1325.46 175.911L1325.04 176.756C1321.6 180.813 1319.27 184.211 1316.54 188.759C1316.99 191.958 1317.92 196.423 1315.99 198.887C1314.18 201.204 1315.01 206.619 1315.27 209.881C1312.99 210.178 1308.8 207.446 1307.39 205.646C1307.27 204.211 1307.14 202.935 1306.94 201.498C1305.06 200.137 1303.5 200.359 1301.12 200.263L1295.99 202.175Z" fill="#FEFEFC"/>
<path d="M1315.43 226.117C1316.47 221.732 1314.01 211.034 1322 210.53L1321.93 212.844L1322.67 218.113L1322.47 219.758C1322.03 222.607 1322.02 224.927 1320.26 227.101C1317.95 227.773 1317.57 227.534 1315.43 226.117Z" fill="#7CA045"/>
<path d="M1325.03 176.756L1325.46 175.911C1327.51 177.712 1327.81 177.63 1328 181.1C1328.26 186.088 1327.59 197.531 1324.67 201.55C1323.72 199.704 1325.14 180.627 1325.03 176.756Z" fill="#7CA045"/>
<path d="M1301.01 230.01C1301.08 224.65 1301 217.56 1303.41 212.742C1305.69 215.873 1304.67 223.888 1304.11 227.486C1303.93 228.665 1303.58 230.872 1302.61 231.58C1301.89 232.115 1302.19 231.947 1301.24 232.113L1301.01 230.01Z" fill="#739342"/>
<path d="M1321.93 212.844L1323.12 210.707L1323.86 211.259C1324.06 213.895 1324.29 215.841 1322.67 218.113L1321.93 212.844Z" fill="#D0D9BC"/>
<path d="M1290.93 121.352L1291.83 121.635C1292.13 133.555 1286.47 130.858 1284.78 138.945C1282.38 150.436 1281.5 165.815 1282.83 177.609C1283.06 179.674 1285.8 182.123 1287.69 182.99C1293.05 181.334 1291.89 162.301 1291 157.508L1292.62 158.888C1292.92 164.36 1294.52 172.238 1300.45 174.534L1302.11 174.211L1301.45 174.583C1305.71 169.291 1300.88 160.411 1299.83 153.761C1305.95 164.48 1305.61 168.966 1317.76 173.329C1315.47 176.338 1310.02 180.341 1306.89 182.886C1300.27 188.27 1288.6 199.787 1284.55 207.093C1283.54 208.054 1279.23 214.494 1278.15 216.053C1278.94 178.443 1263.81 152.732 1290.93 121.352Z" fill="#FEFEFC"/>
<path d="M1211.57 160.408C1215.72 155.961 1216.49 149.386 1219.82 145.682L1220.71 145.979L1221.56 150.153C1221.93 153.91 1223.23 154.05 1224.27 157.461C1225.46 161.339 1225.08 166.676 1227.43 169.8C1231.3 170.761 1232.76 168.24 1235.31 165.599C1235.66 167.948 1235.67 168.252 1235.08 170.547L1237.88 171.201C1238.67 172.703 1238.75 172.744 1239.12 174.381C1238.15 176.678 1236.5 180.977 1235.19 182.838C1232.83 187.873 1232.85 187.774 1227.4 189.9L1226.3 192.545C1225.89 194.054 1225.87 194.179 1225.14 195.549C1224.36 194.228 1223.69 193.026 1222.97 191.673C1218.03 195.622 1215.96 192.929 1210.04 192.357L1209.2 192.228C1208.16 189.011 1207.97 188.204 1207.49 184.856L1207.06 184.377C1204.54 186.192 1203.49 186.984 1200.66 185.424C1199.08 180.678 1201.27 179.099 1205.4 177.353L1206.13 176.682C1202.43 175.149 1201.33 175.271 1200.84 171.398C1202.12 168.628 1203.86 167.363 1206.1 165.351L1205.38 164.044L1211.27 161.488L1211.57 160.408Z" fill="#FEFEFC"/>
<path d="M1205.38 164.044L1211.27 161.488L1211.24 162.809C1210.61 166.366 1210.95 170.163 1210.76 171.187C1213.22 173.947 1213.29 174.798 1217.4 175.119L1217.69 175.411C1215 176.646 1215.47 175.968 1214.12 178.114C1214.42 180.609 1214.65 180.759 1216.08 182.927L1215.65 183.196C1213.36 181.211 1214.38 181.57 1211.61 181.15C1209.19 182.111 1208.96 182.656 1207.49 184.856L1207.06 184.377C1204.54 186.192 1203.49 186.984 1200.66 185.424C1199.08 180.678 1201.27 179.099 1205.4 177.353L1206.13 176.682C1202.43 175.149 1201.33 175.271 1200.84 171.398C1202.12 168.628 1203.86 167.363 1206.1 165.351L1205.38 164.044Z" fill="#ECE6F6"/>
<path d="M1206.1 165.351C1208.71 168.88 1211.3 172.254 1207.95 176.199L1206.13 176.682C1202.43 175.149 1201.33 175.271 1200.84 171.398C1202.12 168.628 1203.86 167.363 1206.1 165.351Z" fill="#CBBCF5"/>
<path d="M1207.06 184.377C1204.54 186.192 1203.49 186.984 1200.66 185.424C1199.08 180.678 1201.27 179.099 1205.4 177.353L1208.3 178.666C1208.86 181.102 1208.09 181.71 1207.06 184.377Z" fill="#CBBCF5"/>
<path d="M1211.24 162.809C1215.65 164.366 1220.32 165.141 1220.2 170.713L1217.4 175.119C1213.29 174.798 1213.22 173.947 1210.76 171.187C1210.95 170.163 1210.61 166.366 1211.24 162.809Z" fill="#CBBCF5"/>
<path d="M1210.76 171.187C1213.05 169.975 1215.87 169.378 1218.41 169.001L1220.2 170.713L1217.4 175.119C1213.29 174.798 1213.22 173.947 1210.76 171.187Z" fill="#C2ABEA"/>
<path d="M1207.49 184.856C1208.96 182.656 1209.19 182.111 1211.61 181.15C1214.38 181.57 1213.36 181.211 1215.65 183.196C1215.93 189.473 1215.21 188.97 1210.04 192.357L1209.2 192.228C1208.16 189.011 1207.97 188.204 1207.49 184.856Z" fill="#C2ABEA"/>
<path d="M1232.13 177.314C1233.02 174.551 1233.34 172.899 1235.08 170.547L1237.88 171.201C1238.67 172.703 1238.75 172.744 1239.12 174.381C1238.15 176.678 1236.5 180.977 1235.19 182.838C1234.58 182.001 1232.75 178.437 1232.13 177.314Z" fill="#93B759"/>
<path d="M1216.08 182.927C1214.65 180.759 1214.42 180.609 1214.12 178.114C1215.47 175.968 1215 176.646 1217.69 175.411C1220.93 177.633 1220.06 176.48 1221.54 179.687C1221.31 182.69 1221.82 181.684 1219.79 183.551C1217.88 183.648 1217.95 183.711 1216.08 182.927Z" fill="#CBBCF5"/>
<path d="M1232.13 177.314C1232.75 178.437 1234.58 182.001 1235.19 182.838C1232.83 187.873 1232.85 187.774 1227.4 189.9C1227.5 188.196 1229 185.086 1229.72 183.37C1230.73 182.133 1231.56 179.013 1232.13 177.314Z" fill="#8BAD53"/>
<path d="M1222.97 191.673C1223.42 189.439 1223.79 187.846 1224.44 185.668C1226.79 183.431 1225.84 184.151 1229.72 183.37C1229 185.086 1227.5 188.196 1227.4 189.9L1226.3 192.545C1225.89 194.054 1225.87 194.179 1225.14 195.549C1224.36 194.228 1223.69 193.026 1222.97 191.673Z" fill="#8BAD53"/>
<path d="M1295.99 202.175L1301.12 200.263L1303.11 201.628C1302.53 202.095 1302.41 202.339 1301.78 202.504C1303.93 210.716 1298.22 209.248 1295.77 212.81C1292.63 217.364 1290.98 235.48 1292.4 240.271C1292.79 243.394 1293.07 244.672 1292.56 247.867C1290.88 250.727 1290.11 253.424 1289.05 256.556C1286.66 261.463 1283.73 266.179 1280.94 270.876C1279.81 272.403 1279.6 272.913 1277.88 273.799C1275.5 270.59 1278.26 259.36 1277.93 255.129C1276.1 231.621 1277.04 222.849 1294.35 206.277L1295.02 202.116L1295.99 202.175Z" fill="#FEFEFC"/>
<path d="M1295.99 202.175L1301.12 200.263L1303.11 201.628C1302.53 202.095 1302.41 202.339 1301.78 202.504C1299.37 203.61 1296.48 204.79 1294.35 206.277L1295.02 202.116L1295.99 202.175Z" fill="#93B759"/>
<path d="M1234.79 136.998C1234.07 134.987 1232.23 129.845 1231.09 128.316C1225.26 120.491 1222.5 120.948 1221.08 110.832C1230.86 116.736 1246.92 123.922 1252.71 133.499L1254.55 135.766C1251.11 139.45 1250.87 139.935 1248.59 144.387C1246.26 146.233 1245.58 147.229 1243.8 149.507L1241.53 149.188C1235.55 153.656 1238.19 161.744 1235.6 165.297C1235.17 164.755 1232.92 161.649 1233.05 161.14C1235.09 152.761 1230.78 144.524 1234.79 136.998Z" fill="#FEFEFC"/>
<path d="M1241.53 149.188C1246.4 143.624 1246.42 139.884 1252.71 133.499L1254.55 135.766C1251.11 139.45 1250.87 139.935 1248.59 144.387C1246.26 146.233 1245.58 147.229 1243.8 149.507L1241.53 149.188Z" fill="#93B759"/>
<path d="M1161.8 202.187C1170.91 195.21 1180.28 195.17 1183.12 192.848L1184.68 196.016C1181.62 200.643 1177.07 200.633 1171.29 209.202L1162.95 203.503L1161.8 202.187Z" fill="#FEFEFC"/>
<path d="M1161.8 202.187C1170.91 195.21 1180.28 195.17 1183.12 192.848L1184.68 196.016C1179.08 196.107 1167.91 200.532 1162.95 203.503L1161.8 202.187Z" fill="#93B759"/>
<path d="M1209.84 136.312C1212.71 135.695 1213.56 134.271 1215.48 132.199L1215.9 132.506C1215.99 134.168 1216.1 135.728 1216.08 137.397C1215.01 144.73 1213.53 149.259 1211.05 156.225L1209.25 157.326C1207.55 156.984 1206.11 154.861 1204.93 153.47C1207.36 149.864 1206.24 143.505 1209.84 136.312Z" fill="#93B759"/>
<path d="M1324.4 119.723C1323.4 121.398 1323.88 123.779 1324.02 125.837L1323.2 126.017C1320.8 122.217 1321.9 106.745 1321.76 101.536C1321.67 98.442 1323.35 97.1545 1322.33 93.2576C1323.09 94.6498 1324.87 97.7293 1325.45 98.9899C1328.98 106.621 1327.01 109.293 1330.92 117.678C1328.61 119.62 1327.77 119.184 1324.4 119.723Z" fill="#8BAD53"/>
<path d="M1346.83 60.744C1353.12 52.7661 1356.39 50.748 1366.75 50.3872C1364.93 56.4414 1363.36 61.1407 1359.55 66.2652C1359.77 64.9253 1360.01 63.5885 1360.26 62.2546L1359 60.6766C1356.04 59.4445 1350.33 60.4131 1346.83 60.744Z" fill="#8BAD53"/>
<path d="M1216.07 137.397L1217 137.197C1218.18 138.333 1219.11 139.115 1220.38 140.149C1221.88 139.107 1221.4 139.372 1221.87 136.9L1223 138.872L1224.99 139.348L1225.09 141.761L1223.42 142.461L1223.17 142.169C1221.13 145.341 1221.79 145.822 1221.56 150.153L1220.71 145.979L1219.82 145.682C1216.49 149.386 1215.72 155.961 1211.57 160.408L1211.07 158.418L1209.25 157.327L1211.05 156.225C1213.53 149.259 1215.01 144.73 1216.07 137.397Z" fill="#8BAD53"/>
<path d="M1241.12 104.625C1244.89 99.9271 1243.83 86.7078 1247.98 81.3348C1252.07 86.2423 1247.63 91.684 1251.32 95.2381L1251.56 96.087C1248.85 98.5706 1244.43 104.31 1242.42 104.846L1241.12 104.625Z" fill="#8BAD53"/>
<path d="M1291 157.508C1291.1 152.711 1289.05 137.829 1295.82 136.956C1298.43 142.803 1291.24 149.347 1292.62 158.888L1291 157.508Z" fill="#8BAD53"/>
<path d="M1297.85 268.937C1297.79 264.11 1297.59 262.387 1299.12 257.883L1300.54 258.041C1301.58 260.243 1301.46 261.041 1301.62 263.538L1299.87 272.431L1298.52 272.97L1297.85 268.937Z" fill="#739342"/>
<path d="M1292.56 247.867L1294.86 248.364C1296.28 253.465 1294.69 254.694 1291.87 258.805L1290.66 257.586L1289.05 256.556C1290.11 253.424 1290.88 250.726 1292.56 247.867Z" fill="#F9F8F8"/>
<path d="M1292.56 247.867L1294.86 248.364C1292.55 250.382 1291.46 254.566 1290.66 257.586L1289.05 256.556C1290.11 253.424 1290.88 250.726 1292.56 247.867Z" fill="#93B759"/>
<path d="M1257.37 106.002C1257 107.192 1256.26 108.669 1255.72 109.839C1253.44 111.528 1254.42 111.32 1251.98 111.119L1250.85 109.669C1250.48 107.032 1251.09 106.264 1252.21 103.776C1254.34 105.486 1254.66 105.571 1257.37 106.002Z" fill="#8BAD53"/>
<path d="M1330.92 117.678C1331.15 121.976 1331.4 122.864 1332.68 127.003C1328.18 125.165 1327.38 123.561 1324.4 119.723C1327.77 119.184 1328.6 119.62 1330.92 117.678Z" fill="#93B759"/>
<path d="M1290.93 121.352C1293.33 118.606 1292.28 118.965 1295.18 118.585C1298.07 120.358 1297.45 122.12 1297.02 125.274L1295.88 125.56C1294.77 123.627 1294.47 123.283 1293.98 121.15C1292.39 121.166 1293.06 120.885 1291.83 121.635L1290.93 121.352Z" fill="#D0D9BC"/>
<path d="M1221.87 136.9C1222.47 133.803 1222.16 132.67 1224.01 130.554C1225.37 132.098 1225.47 133.643 1225.37 135.871C1225.33 137.038 1225.2 138.2 1224.99 139.348L1223 138.872L1221.87 136.9Z" fill="#93B759"/>
<path d="M1265.86 117.166C1265.82 113.792 1265.42 110.158 1266.79 107.163L1267.67 107.038C1268.49 109.977 1268.13 113.813 1267.72 116.865L1265.86 117.166Z" fill="#F9F8F8"/>
<path d="M1251.32 95.2381L1251.63 94.6692C1253.05 91.9655 1253.45 90.717 1254.39 87.8441L1255.02 87.6824C1255.75 91.3053 1254.76 94.0255 1251.56 96.087L1251.32 95.2381Z" fill="#8BAD53"/>
<path d="M1253.31 221.215C1253.72 223.584 1253.14 222.655 1255.14 224.068C1259.34 225.656 1264.53 232.318 1266.31 236.51C1269.74 244.595 1269.36 248.569 1268.88 257.017C1264.44 251.563 1262.08 249.053 1256.53 244.416L1254.35 245.461C1252.82 252.685 1254.87 267.332 1257.52 274.003L1259.35 274.255C1257.43 276.363 1254.61 278.384 1254.29 280.402C1254.98 285.65 1251.18 291.875 1256.23 296.097C1267.53 296.81 1261.93 267.56 1262.54 259.026C1264.01 259.248 1267.52 262.679 1268.96 263.916C1268.93 278.961 1267.43 295.724 1267.35 312.141C1249.27 300.027 1231.96 293.461 1210.22 298.91C1209.76 282.752 1208.75 277.165 1194.17 268.718C1195.65 257.791 1196.17 247.701 1188.25 239.295C1191.14 235.657 1193.19 232.465 1195.69 228.594C1200.73 228.419 1205.92 228.615 1210.97 228.727C1208.79 235.272 1205.95 238.136 1208.66 245.024L1209.99 245.514C1215.26 242.94 1219.68 232.841 1225.97 234.916C1233.49 237.395 1226.64 246.434 1229.69 252.616C1232.34 254.134 1231.37 253.673 1235.13 253.52C1236.1 251.138 1236.95 248.222 1237.05 245.678C1237.28 239.368 1239.74 241.509 1243.37 235.883L1244.61 234.326C1245.37 227.212 1247.82 225.2 1253.31 221.215Z" fill="#FEFEFC"/>
<path d="M1253.31 221.215C1253.72 223.584 1253.14 222.655 1255.13 224.068C1259.34 225.656 1264.53 232.318 1266.31 236.51C1269.74 244.595 1269.36 248.569 1268.88 257.017C1264.44 251.563 1262.08 249.053 1256.53 244.416L1254.35 245.461C1252.82 252.685 1254.86 267.332 1257.51 274.003L1259.34 274.255C1257.43 276.363 1254.61 278.384 1254.29 280.402C1253.43 279.153 1253.13 273.946 1252.19 271.439L1251.48 271.734C1250.82 278.062 1251.86 285.249 1244 285.817C1239.62 282.34 1243.93 272.719 1241.72 270.266C1239.92 272.788 1239.21 276.027 1238.31 279.051C1235.15 282.005 1231.98 285.18 1227.6 285.999L1225.56 285.471C1225.09 284.611 1224.67 283.942 1224.37 283.016C1226.02 276.457 1228.25 276.59 1231.11 271.057L1230.31 268.904C1231.06 263.272 1234.77 258.598 1235.13 253.52C1236.1 251.138 1236.95 248.222 1237.04 245.678C1237.27 239.368 1239.74 241.509 1243.37 235.883L1244.61 234.326C1245.37 227.212 1247.82 225.2 1253.31 221.215Z" fill="#82A34B"/>
<path d="M1255.14 224.068C1259.34 225.656 1264.53 232.318 1266.31 236.51C1269.74 244.595 1269.36 248.569 1268.88 257.017C1264.44 251.563 1262.08 249.053 1256.53 244.416C1253.55 240.897 1252.44 236.684 1251.2 232.347C1251.09 234.58 1251.04 236.817 1251.06 239.054L1249.73 240.2C1248.62 237.739 1248.3 234.264 1247.88 231.513L1250.33 227.516L1255.14 224.068Z" fill="#FEFEFC"/>
<path d="M1253.31 221.215C1253.72 223.584 1253.14 222.655 1255.13 224.068L1250.33 227.516L1247.88 231.513C1248.3 234.265 1248.62 237.739 1249.73 240.201L1247.28 240.326C1245.39 242.9 1243.92 250.596 1243.17 253.893C1241.14 258.242 1240.09 260.874 1238.59 265.428L1236.49 269.227C1232.93 268.09 1235.75 271.172 1230.31 268.904C1231.06 263.272 1234.77 258.598 1235.13 253.52C1236.1 251.138 1236.95 248.222 1237.04 245.678C1237.27 239.368 1239.74 241.509 1243.37 235.883L1244.61 234.326C1245.37 227.212 1247.82 225.2 1253.31 221.215Z" fill="#93B759"/>
<path d="M1251.19 232.347C1252.43 236.684 1253.55 240.897 1256.53 244.416L1254.35 245.461C1252.82 252.685 1254.86 267.332 1257.51 274.003L1259.34 274.255C1257.43 276.363 1254.61 278.384 1254.29 280.402C1253.43 279.153 1253.13 273.946 1252.19 271.439C1255.09 268.1 1252.82 261.983 1251.89 257.945L1252.35 253.908C1252.56 249.734 1252.43 248.785 1250.17 245.306C1250.46 244.071 1250.69 242.834 1250.94 241.593L1249.73 240.201L1251.06 239.054C1251.04 236.817 1251.09 234.581 1251.19 232.347Z" fill="#93B759"/>
<path d="M1230.31 268.904C1235.75 271.172 1232.93 268.09 1236.49 269.227C1234.81 278.503 1232.5 278.551 1224.37 283.016C1226.02 276.457 1228.25 276.59 1231.11 271.057L1230.31 268.904Z" fill="#93B759"/>
<path d="M1251.48 271.734L1250.03 270.73C1247.94 266.369 1246.28 260.353 1251.89 257.945C1252.82 261.983 1255.09 268.1 1252.19 271.439L1251.48 271.734Z" fill="#7CA045"/>
<path d="M1243.17 253.893C1245.04 257.413 1244.45 265.127 1241.74 268.176L1240.22 268.245C1239.44 267.175 1238.95 266.693 1238.59 265.428C1240.09 260.874 1241.14 258.242 1243.17 253.893Z" fill="#739342"/>
<path d="M1252.35 253.908L1250.41 254.27C1248.19 252.202 1246.31 244.606 1247.84 241.948C1249.15 242.885 1249.45 243.862 1250.17 245.305C1252.43 248.785 1252.56 249.734 1252.35 253.908Z" fill="#7CA045"/>
<path d="M1184.28 195.923L1184.79 195.866C1192.43 195.067 1213.21 194.854 1219.04 199.57L1219.22 201.889C1221.72 202.525 1220.67 202.564 1223.24 201.407C1225.34 205.608 1219 223.209 1217.44 228.002C1216.68 224.541 1217.67 221.966 1216.15 219.613L1215.18 219.924C1213.99 222.649 1214.02 223.939 1211.87 225.23C1207.01 225.234 1201.89 225.269 1197.04 225.016L1196.61 224.019C1200.14 210.096 1193.81 204.708 1184.28 195.923Z" fill="#FEFEFC"/>
<path d="M1219.22 201.889C1221.72 202.525 1220.67 202.564 1223.24 201.407C1225.34 205.608 1219 223.209 1217.44 228.002C1216.68 224.541 1217.67 221.966 1216.15 219.613L1215.18 219.924C1213.99 222.649 1214.02 223.939 1211.87 225.23C1207.01 225.234 1201.89 225.269 1197.04 225.016L1196.61 224.019L1212.28 223.908C1216.27 213.488 1212.69 213.017 1219.22 201.889Z" fill="#8BAD53"/>
<path d="M1226.14 202.079C1235.52 205.666 1246.45 213.867 1253.31 221.215C1247.82 225.2 1245.37 227.212 1244.61 234.326L1243.37 235.883C1242.19 235.295 1237.81 233.124 1237.61 232.1C1234.44 215.897 1239.28 213.9 1226.14 202.079Z" fill="#FEFEFC"/>
<path d="M1310.94 101.489C1311.05 102.676 1310.08 109.49 1309.88 111.199C1308.88 119.798 1308.65 127.454 1309.09 136.086C1307.07 133.345 1305.45 130.46 1303.73 127.527C1302.96 125.885 1302.74 124.924 1302.27 123.208C1303.43 120.635 1304.04 120.765 1306.5 118.955C1304.29 116.726 1302.24 113.803 1300.34 111.261C1304.28 107.158 1306.35 105.007 1310.94 101.489Z" fill="#FEFEFC"/>
<path d="M1346.23 94.334C1354.9 98.3656 1357.16 111.118 1363.28 120.994C1363.04 123.291 1363.56 122.508 1362.31 123.797C1357.86 114.729 1348.18 102.002 1346.23 94.334Z" fill="#739342"/>
<path d="M1257.25 67.5407C1261.99 70.4136 1265.65 83.6822 1267.17 89.187C1264.38 85.0506 1263.05 83.0055 1260.91 78.5383L1257.46 67.1575C1257.62 71.3253 1259.53 76.6714 1256.07 79.6087L1255.36 78.7254L1256.29 79.5368L1256.8 78.673L1255.03 77.9244C1253.91 73.3928 1254.23 71.8912 1256.8 68.1815L1257.25 67.5407Z" fill="#FEFEFC"/>
<path d="M1340.86 51.5176C1343.28 53.4338 1342.77 55.0507 1344.27 57.8203C1346.91 62.7322 1342.02 70.3673 1340 76.8362C1338.76 76.9979 1339.39 77.0533 1338.15 76.2913C1337.97 73.6863 1341.38 66.8372 1342.6 63.7382C1341.73 59.9925 1340.12 55.142 1340.86 51.5176Z" fill="#7CA045"/>
<path d="M1169.07 63.1453C1174.98 64.4268 1189.19 79.7104 1188.4 85.1388C1188.83 85.3844 1181 75.8585 1180.54 75.2102C1177.62 71.0663 1170.92 67.0751 1169.07 63.1453Z" fill="#7CA045"/>
<path d="M1282.86 97.4329C1285.52 99.5482 1284.96 119.952 1283.42 123.231C1281.47 121.244 1282.93 102.125 1282.86 97.4329Z" fill="#93B759"/>
<path d="M1383.13 80.4575L1383.9 80.6911C1384.11 81.9531 1384.24 82.1881 1384.06 83.4412C1380.86 83.9996 1375.89 82.9472 1372.52 82.4202L1368.63 82.0968L1368.31 81.6657C1372.9 81.5669 1378.86 81.733 1383.13 80.4575Z" fill="#739342"/>
<path d="M1265.38 90.4834C1269.05 92.1152 1268.34 98.1739 1267.98 101.433C1267.26 101.143 1266.99 100.794 1266.36 100.27C1265.94 97.0182 1265.62 93.753 1265.38 90.4834Z" fill="#F9F8F8"/>
<path d="M1289.91 106.748C1292.13 108.899 1293.65 112.245 1292.98 115.344C1292.32 115.554 1291.23 115.729 1290.51 115.871C1289.28 114.048 1289.88 109.449 1289.91 106.748Z" fill="#F9F8F8"/>
<path d="M1211.03 311.105C1212.74 312.655 1213.12 319.93 1213.45 322.691C1212.76 322.446 1212 321.988 1211.32 321.631C1210.32 318.384 1210.83 314.56 1211.03 311.105Z" fill="#7CA045"/>
<path d="M1259.26 87.5657L1260.31 88.6376C1261.25 91.6347 1260.79 94.0795 1260.49 97.1785L1259.68 96.3715C1258.6 93.4822 1259.07 90.714 1259.26 87.5657Z" fill="#D0D9BC"/>
<path d="M1186.85 313.391L1187.51 313.98C1186.71 316.177 1183.92 318.186 1182.03 319.853L1181.34 319.161C1182.4 316.784 1184.79 315.15 1186.85 313.391Z" fill="#7CA045"/>
<path d="M1119.6 130.665C1128.39 108.764 1154.64 90.0852 1175.99 107.945L1177.33 110.318C1172.15 136.43 1139.89 140.854 1119.6 130.665Z" fill="#7CA045"/>
<path d="M1381.44 168.275C1407.81 156.416 1424.68 175.329 1433.26 198.955C1412.45 203.094 1376.62 198.448 1380.62 169.996L1381.44 168.275Z" fill="#82A34B"/>
<path d="M1347.5 320.502C1373.54 307.139 1390.39 330.933 1396.83 353.675C1385.55 355.357 1377.66 355.589 1366.61 351.556C1354.55 347.15 1343.45 335.662 1346.33 322.017L1347.5 320.502Z" fill="#82A34B"/>
<path d="M1232.67 38.1366C1229.13 38.8747 1226.8 41.3673 1220.1 42.2716C1209.01 43.7686 1184.16 20.1956 1191.28 13.1713C1205.37 8.76694 1225.98 12.1428 1231.19 28.5478C1232.22 31.807 1231.81 34.0916 1233.41 37.5393L1232.67 38.1366Z" fill="#82A34B"/>
<path d="M1302.67 32.4522L1302.65 31.5733C1302.3 14.7805 1317.72 6.54659 1332.5 6.77565C1335.77 6.82655 1338.24 6.68883 1340.72 9.06919C1344.81 20.4695 1317.75 47.6355 1302.56 33.3684L1302.67 32.4522Z" fill="#82A34B"/>
<path d="M1278.33 0C1284.31 4.5616 1290.1 11.1308 1292.53 18.3198C1296.04 28.6571 1293.03 34.1349 1288.78 43.0321L1287.5 44.4244C1285.18 43.4992 1280.53 41.773 1278.6 40.3703C1265.17 30.5644 1269.85 11.294 1278.33 0Z" fill="#82A34B"/>
<path d="M1269.02 403.351C1271.45 403.718 1275.24 404.167 1277.48 404.843C1277.46 410.627 1277.26 417.675 1277.51 423.346C1280.76 425.13 1282.88 426.325 1286.36 427.654C1288.29 429.05 1289.28 429.241 1289.96 431.183L1289.51 432.119C1285.32 430.532 1280.19 428.418 1275.94 427.291C1277.05 430.819 1278.22 433.12 1276.98 436.397C1275.15 441.263 1262.13 443.808 1264.84 449.483C1269.36 458.918 1274.85 454.29 1276.42 468.357C1274.93 467.842 1273.05 462.508 1272.01 460.845C1268 454.473 1262.92 454.517 1261.29 446.236L1262.48 443.197C1265.48 441.549 1269.45 440.297 1272.18 438.278C1275.12 436.094 1273.97 430.771 1271.36 428.786C1264.96 429.629 1256.04 435.156 1250.06 436.052C1242.03 437.252 1235.95 435.602 1227.21 437.451C1224.49 439.466 1220.44 444.498 1218.17 445.116C1223.36 430.738 1240.87 435.929 1251.89 433.119C1257.77 431.62 1263.88 427.334 1268.97 423.937C1269.22 417.512 1269.02 409.869 1269.02 403.351Z" fill="url(#paint1_linear_325_32838)"/>
<path d="M1286.35 427.655L1287.29 427.845C1296.56 429.665 1308.17 426.864 1312.69 434.074C1316.55 440.246 1315.64 440.143 1323.01 441.69L1324.33 441.959L1324.76 442.946C1320.92 444.607 1314.27 441.387 1312.16 437.799C1307.6 430.068 1299.17 431.248 1291.34 431.393C1292.03 434.703 1293.32 444 1296.06 445.331C1301.01 447.742 1311.92 449.768 1314.26 455.398C1314.03 457.702 1314.51 456.824 1313.24 458.319C1312.12 457.273 1312.01 457.003 1311.35 455.556C1309.03 450.437 1303.62 449.581 1298.87 448.618L1297.88 449.299C1298.12 451.121 1298.32 452.467 1298.72 454.259L1297.65 454.723C1294.63 451.416 1288.95 436.598 1289.51 432.119L1289.96 431.183C1289.28 429.241 1288.29 429.05 1286.35 427.655Z" fill="#B88F72"/>
<path d="M1324.91 311.403C1334.16 315.469 1336.13 313.992 1347.49 320.502L1346.32 322.017C1340.22 319.571 1331.15 315.697 1324.82 315.017L1324.91 311.403Z" fill="#93B759"/>
<path d="M1175.99 107.945C1183.25 105.995 1191.96 105.02 1199.44 104.408L1198.87 107.314C1194.07 107.246 1181.55 108.43 1177.33 110.318L1175.99 107.945Z" fill="#93B759"/>
<path d="M1204.93 153.47C1206.11 154.861 1207.55 156.984 1209.25 157.326L1211.07 158.418L1211.57 160.408L1211.27 161.488L1205.38 164.044C1204.07 163.098 1203.92 162.861 1202.87 161.696C1202.21 158.63 1203.62 156.479 1204.93 153.47Z" fill="#82A34B"/>
<path d="M1261.29 446.236C1252.43 454.648 1247.44 450.925 1242.57 458.973C1241.93 460.036 1242.41 459.629 1241.25 460.131C1241.42 458.499 1242.17 454.975 1243.64 454.207C1250.69 450.509 1256.1 448.157 1262.48 443.197L1261.29 446.236Z" fill="#B88F72"/>
<path d="M1233.41 37.5393C1238.33 39.5828 1244.07 44.6923 1247.78 48.5024L1246.35 50.2884C1246.04 50.0219 1245.16 49.3318 1244.95 49.0413C1243.71 46.1864 1235.39 40.2296 1232.67 38.1366L1233.41 37.5393Z" fill="#93B759"/>
<path d="M614.825 234.841L617.186 236.228C618.058 238.647 621.44 239.592 623.81 241.22C631.595 246.572 636.155 252.654 640.404 261.024C641.878 262.314 641.913 262.188 643.793 262.382C643.888 267.8 644.308 273.908 644.566 279.375C653.75 265.171 658.343 257.311 672.013 246.703L673.477 248.727L673.92 249.342C638.258 277.793 642.178 310.448 643.338 351.724C651.258 341.475 658.563 333.045 670.73 327.585C674.877 325.723 678.602 325.207 682.109 322.299C662.004 308.191 682.307 284.086 699.779 279.865C703.247 296.855 703.542 316.57 683.466 321.889L683.583 323.792L684.319 325.482L684.327 326.755C693.644 327.412 699.733 328.588 705.123 337.123C708.813 342.966 711.502 352.075 710.198 359.026C710.103 359.533 709.072 362.099 708.302 362.163C698.477 362.69 685.054 354.147 681.467 345.178C678.341 337.364 680.042 333.033 682.75 326.425C668.493 329.28 648.838 347.429 643.35 360.565C645.157 374.739 644.709 390.051 644.651 404.425L638.38 404.224C636.471 385.847 637.595 349.639 637.493 329.31C630.514 318.506 625.143 315.404 612.736 312.942L613.76 314.672C625.178 334.244 615.846 346.26 597.641 356.659C593.018 345.705 592.059 332.731 599.689 323C603.559 318.064 606.481 316.902 611.787 313.962C612.828 312.189 612.483 312.549 612.516 310.189C603.838 307.507 598.499 308.635 592.934 300.288C590.568 296.74 581.837 277.986 587.702 275.634C595.912 272.339 611.16 281.899 614.533 289.676C618.013 297.229 617.141 302.827 614.497 310.489C625.189 312.324 630.745 315.41 638.362 322.714C638.329 313.928 640.79 298.168 637.065 291.423C637.913 290.435 638.19 290.513 639.464 290.078C641.706 285.429 640.735 273.758 639.08 268.716C634.562 254.946 627.951 246.48 615.521 239.59C618.35 258.323 608.697 266.293 590.635 269.915C588.178 270.407 585.501 270.151 583.23 269.03C578.182 262.064 589.624 247.513 594.722 242.661C600.028 237.611 607.968 239.213 614.681 239.701L615.515 236.575L614.825 234.841Z" fill="#82A34B"/>
<path d="M610.11 322.399C612.856 324.724 610.685 331.361 609.962 334.47C606.876 336.767 603.795 340.014 601.027 342.761C599.639 339.715 608.962 329.982 610.11 322.399Z" fill="#739342"/>
<path d="M688.695 332.732L689.061 332.717C691.914 336.858 694.812 341.083 698.498 344.529L698.447 347.585L698.107 348.073C695.052 347.016 689.032 335.94 688.695 332.732Z" fill="#7CA045"/>
<path d="M607.456 244.298C608.741 244.512 608.682 244.638 609.661 245.544C609.073 247.935 606.136 249.941 604.104 251.721L603.278 251.947L602.555 251.222C603.675 248.478 605.54 246.593 607.456 244.298Z" fill="#739342"/>
<path d="M605.367 297.266C609.475 298.963 609.546 299.65 610.349 303.674C606.896 301.68 606.101 301.25 605.367 297.266Z" fill="#739342"/>
<path d="M672.013 246.703C654.345 231.668 658.873 212.717 677.368 201.016C682.047 209.163 683 212.764 684.881 221.778C685.414 228.669 684.571 232.977 680.235 238.644C678.389 240.404 676.202 241.825 675.719 243.919L676.524 244.491L677.195 246.81L675.454 247.608C696.109 246.78 705.066 253.724 709.37 274.827C691.022 276.461 673.112 271.184 673.92 249.342L673.477 248.727L672.013 246.703Z" fill="#82A34B"/>
<path d="M684.881 221.778C685.414 228.669 684.571 232.977 680.235 238.644C682.846 228.787 676.629 229.738 684.881 221.778Z" fill="#8BAD53"/>
<path d="M672.395 222.727L673.774 223.381C674.023 226.219 673.195 226.848 671.919 229.748L670.811 229.583C670.341 227.091 671.443 225.192 672.395 222.727Z" fill="#7CA045"/>
<path d="M550.002 329.734C558.951 312.743 577.062 299.74 594.582 313.974L595.917 315.125C590.079 337.653 568.111 339.198 550.002 329.734Z" fill="#82A34B"/>
<path d="M700.619 321.521C702.434 319.085 704.521 316.127 706.931 314.282C720.324 304.036 738.742 311.886 748.174 323.733C740.112 330.448 730.037 336.381 719.102 335.301C712.943 334.689 707.284 331.644 703.378 326.844C702.511 325.741 701.684 324.608 700.898 323.446L700.619 321.521Z" fill="#82A34B"/>
<path d="M552.23 222.57C565.819 213.229 583.982 210.026 595.041 224.296C597.866 227.943 597.04 229.327 601.104 231.631L599.736 232.607C584.738 247.497 561.599 239.805 552.23 222.57Z" fill="#82A34B"/>
<path d="M691.111 237.979C694.334 218.34 721.285 218.246 735.143 226.775C731.631 233.193 729.209 236.606 723.514 241.337C714.24 249.042 698.118 250.716 690.316 239.817L691.111 237.979Z" fill="#82A34B"/>
<path d="M610.102 191.339C626.194 201.468 638.211 223.661 617.186 236.228L614.825 234.841C600.15 222.517 600.337 207.208 610.102 191.339Z" fill="#82A34B"/>
<path d="M638.378 404.224L644.65 404.424C644.756 410.095 644.651 421.443 645.279 426.659L644.07 429.116L642.007 430.706L640.289 428.563L640.027 423.997C637.756 423.289 633.755 423.662 631.221 423.741L629.92 422.346C632.184 421.836 636.124 421.562 638.555 421.316L638.378 404.224Z" fill="#B38F78"/>
<path d="M644.074 224.773L644.854 225.032C647.135 220.051 650.101 211.907 656.384 214.436C658.182 216.768 657.83 215.677 657.799 218.514C655.927 222.592 652.131 225.392 648.691 228.291L649.249 229.247L647.821 231.92L645.875 232.748L644.684 232.134L642.927 231.851L642.424 231.35L643.795 229.648C643.556 227.555 643.583 226.823 644.074 224.773Z" fill="#82A34B"/>
<path d="M648.692 228.292L649.25 229.247L647.822 231.92L645.876 232.748L644.686 232.135C645.979 230.643 647.217 229.606 648.692 228.292Z" fill="#D0D9BC"/>
<path d="M645.279 426.659L646.213 426.924C659.403 430.544 674.072 421.189 682.548 438.978C678.982 438.341 672.024 426.675 665.374 430.051C666.769 433.575 669.272 435.212 669.59 437.562L668.467 437.859C657.352 424.183 658.986 434.02 644.07 429.116L645.279 426.659Z" fill="#B38F78"/>
<path d="M642.424 231.35C636.918 228.426 631.692 221.632 637.405 216.28C642.428 216.297 643.148 220.643 644.074 224.773C643.583 226.823 643.556 227.555 643.795 229.648L642.424 231.35Z" fill="#739342"/>
<path d="M638.273 436.794C638.839 433.152 638.994 432.074 640.29 428.563L642.009 430.706C634.682 444.703 660.39 448.487 659.065 458.209L658.234 458.836C656.301 454.902 651.404 448.982 647.097 447.436C643.78 448.996 646.491 457.125 641.402 458.815C641.061 456.384 642.459 455.238 643.332 452.433C644.953 447.219 640.841 441.334 638.273 436.794Z" fill="#B38F78"/>
<path d="M619.397 435.378C621.867 427.595 620.761 423.909 629.92 422.346L631.221 423.741C633.755 423.662 637.756 423.289 640.027 423.997C628.384 426.752 624.941 420.347 621.662 436.592C616.472 438.438 611.627 438.591 606.479 440.018C603.837 440.75 602.419 442.071 599.133 442.944L599.518 441.712C604.021 437.543 612.656 437.323 619.397 435.378Z" fill="#B88F72"/>
<path d="M619.806 282.42C616.926 281.103 614.656 280.632 614.954 277.051C618.46 273.78 624.833 275.173 628.583 277.316L626.491 277.34L629.413 280.761C624.968 283.263 624.734 283.101 619.806 282.42Z" fill="#AC7BCD"/>
<path d="M619.806 282.42C622.928 278.695 622.57 278.093 626.491 277.34L629.413 280.761C624.968 283.263 624.734 283.101 619.806 282.42Z" fill="#ECE6F6"/>
<path d="M618.913 264.103C620.981 264.304 620.907 264.329 622.807 265.235C623.457 267.865 623.31 268.802 625.794 269.982C626.941 269.231 628.083 268.471 629.219 267.703L630.562 268.564L630.942 271.484L632.246 272.253C632.291 274.009 631.264 274.731 630.013 276.43C624.969 275.792 628.292 274.229 625.713 271.244C623.386 271.532 621.464 271.639 619.121 271.747C616.572 270.491 617.216 271.28 616.436 268.982C616.995 266.506 617.376 266.224 618.913 264.103Z" fill="#C2ABEA"/>
<path d="M644.684 232.134L645.875 232.748L647.821 231.92L647.505 234.865L645.326 234.924C642.423 239.091 643.65 256.555 643.792 262.381C641.911 262.188 641.877 262.314 640.402 261.024C641.858 252.519 640.019 241.06 642.927 231.851L644.684 232.134Z" fill="#93B759"/>
<path d="M649.25 229.247C652.235 229.257 653.868 228.991 656.524 230.327L657.866 231.997C657.012 236.988 651.211 236.007 647.506 234.865L647.822 231.92L649.25 229.247Z" fill="#8BAD53"/>
<path d="M626.491 277.34L628.583 277.316C632.753 280.659 636.051 285.748 639.462 290.078C638.188 290.513 637.911 290.435 637.064 291.423C636.956 291.316 631.009 282.7 629.413 280.761L626.491 277.34Z" fill="#8BAD53"/>
<path d="M612.516 310.189C612.483 312.549 612.828 312.189 611.787 313.962C607.687 313.441 600.061 314.327 595.917 315.125L594.582 313.974C600.15 312.215 608.523 312.23 612.516 310.189Z" fill="#93B759"/>
<path d="M700.619 321.521L700.898 323.446C695.27 323.729 689.794 323.952 684.319 325.482L683.583 323.792C688.647 322.211 695.312 321.253 700.619 321.521Z" fill="#93B759"/>
<path d="M601.103 231.631C605.378 232.375 611.41 234.814 615.514 236.575L614.68 239.701C611.603 236.76 603.916 234.151 599.734 232.607L601.103 231.631Z" fill="#93B759"/>
<path d="M691.112 237.979L690.318 239.817C687.1 241.199 679.705 244.562 677.195 246.81L676.524 244.491C679.774 242.186 687.235 239.216 691.112 237.979Z" fill="#93B759"/>
<path d="M847.474 138.377C844.778 132.871 839.586 119.376 842.455 113.585C848.946 112.218 860.165 117.263 865.522 120.798C880.569 130.724 879.939 141.058 874.741 156.3C893.679 159.141 909.04 168.718 920.46 183.978L920.821 185.779C922.447 185.782 922.36 185.731 923.864 185.065C925.203 188.143 926.806 191.324 928.275 194.36C928.086 185.283 928.341 175.442 928.402 166.308C930.848 165.251 932.191 164.164 934.497 164.465L935.468 166.375L935.373 167.666C946.141 172.22 944.298 174.948 950.755 179.731L950.271 182.054L950.469 183.303C957.643 186.488 962.308 200.631 960.688 207.296C964.184 210.671 965.501 212.31 966.932 217.174C972.587 211.713 977.33 207.06 983.787 202.378C988.848 198.709 1000.9 195.956 1003.41 192.704L1004.8 192.847C1005.53 193.309 1007.24 194.462 1007.93 194.782L1006.29 196.109L1006.89 197.63C1012.2 206.211 1025.38 194.161 1030.5 227.028C1036.3 224.86 1056.43 218.531 1060.03 225.043C1059.25 232.712 1050.74 245.788 1044.44 251.064C1034.54 259.359 1023.31 254.532 1018.33 256.92C1018.22 258.131 1017.89 260.682 1018.02 261.751C1022.73 265.368 1027.66 267.615 1030.31 273.184C1036.31 285.781 1031.58 301.623 1023.55 312.132C1018.75 307.879 1015.8 304.315 1012.01 299.12C1006.08 317.146 1000.2 327.114 979.975 326.721L981.167 328.29L981.162 330.543L980.548 332.094C979.914 330.795 979.988 330.868 978.797 330.052L978.256 331.34C974.017 331.22 970.513 332.765 966.659 334.497C954.414 341.483 942.56 350.095 935.353 362.509C936.653 373.733 936.602 394.366 936.147 405.742L928.372 405.272C926.577 389.147 927.63 355.799 927.546 338.282C915.122 325.928 899.66 317.359 881.199 318.073C879.596 318.136 879.382 318.857 878.681 319.97C880.06 324.584 884.295 324.635 886.282 327.458C897.08 342.809 883.958 362.003 873.016 372.462C868.052 366.156 863.246 354.967 862.83 346.91C862.025 331.323 869.38 329.136 876.133 321.161L875.943 319.239L875.903 316.944L875.956 316.19C874.617 314.887 864.529 316.206 858.697 315.282C850.487 313.983 829.465 289.784 836.549 283.293C839.145 280.914 857.204 283.821 863.396 285.878C857.703 277.622 854.738 269.31 853.547 259.251C852.265 248.438 858.906 243.023 865.342 235.406L864.76 234.386L863.742 232.501L864.444 231.786L864.249 230.956C855.915 231.808 849.976 233.19 842.006 229.021C831.173 223.353 825.917 213.289 822.264 202.239C833.667 199.398 840.473 199.902 851.335 203.736C846.817 184.436 850.391 168.607 869.485 160.336L869.564 159.457L871.75 156.117C872.679 155.456 872.293 155.55 872.709 153.875C859.244 152.717 853.856 150.502 847.474 138.377Z" fill="#82A34B"/>
<path d="M1003.42 192.704L1004.8 192.847C1005.53 193.309 1007.25 194.462 1007.93 194.782L1006.29 196.109L1004.28 197.619C1004.22 201.907 1001.46 202.943 1000.25 206.358C994.806 221.731 1007.3 231.642 1017.62 239.752C1015.98 246.994 1016.16 249.599 1017.59 256.917C999.886 256.871 985.764 260.486 971.333 271.404C970.103 267.06 969.753 265.133 967.24 261.428C963.764 255.784 969.022 256.101 962.514 246.274C960.269 244.373 960.688 239.635 956.008 237.446C957.932 233.904 964.626 226.348 967.576 222.851C968.1 220.632 967.538 219.421 966.933 217.174C972.588 211.713 977.331 207.06 983.788 202.378C988.849 198.709 1000.91 195.956 1003.42 192.704Z" fill="#FEFEFC"/>
<path d="M1003.42 192.704L1004.8 192.847C1005.53 193.309 1007.25 194.462 1007.93 194.782L1006.29 196.109L1004.28 197.619C988.509 203.245 978.623 210.226 967.576 222.851C968.1 220.632 967.538 219.421 966.933 217.174C972.588 211.713 977.331 207.06 983.788 202.378C988.849 198.709 1000.91 195.956 1003.42 192.704Z" fill="#8BAD53"/>
<path d="M971.911 242.241C969.81 238.596 968.626 235.956 970.993 232.232C973.369 230.979 972.262 231.109 974.948 231.796C976.975 233.435 977.059 233.844 977.858 236.353L979.201 236.639C981.992 236.287 982.234 236.121 984.598 237.377L985.51 239.052C984.432 242.294 983.724 242.403 980.399 243.559C978.655 249.168 981.577 247.685 982.94 249.405C981.528 251.411 981.29 251.584 979.095 252.688C973.99 252.775 974.201 248.4 970.83 246.604C966.666 248.477 966.744 249.059 963.57 246.219C963.729 242.445 968.936 241.922 971.911 242.241Z" fill="#F9F8F8"/>
<path d="M971.911 242.241C969.81 238.596 968.626 235.956 970.993 232.232C973.369 230.979 972.262 231.109 974.948 231.796C976.975 233.435 977.059 233.844 977.858 236.353C976.643 238.831 975.858 241.243 973.623 242.633C973.023 242.538 972.277 242.533 971.911 242.241Z" fill="#C2ABEA"/>
<path d="M979.201 236.639C981.992 236.287 982.234 236.121 984.598 237.377L985.51 239.052C984.432 242.294 983.724 242.403 980.399 243.559C977.963 241.597 978.767 239.205 979.201 236.639Z" fill="#C2ABEA"/>
<path d="M956.025 298.999C955.278 294.223 954.942 293.368 957.992 289.292C960.742 285.616 962.964 282.284 967.617 280.912C970.777 281.448 971.35 282.115 973.828 280.893C974.921 278.894 974.556 277.99 974.298 275.589C978.508 268.638 1007.97 256.94 1015.83 260.75C1015.1 266.37 1001.55 267.198 1006.73 287.649C989.222 293.102 965.982 304.175 978.872 326.334L979.975 326.721L981.167 328.29L981.162 330.543L980.548 332.094C979.914 330.795 979.988 330.868 978.797 330.052L978.256 331.34C974.017 331.22 970.513 332.765 966.659 334.497L966.275 333.105L963.735 332.21C963.359 329.157 960.13 328.808 958.567 323.639L955.612 317.064L955.339 315.734C954.797 313.294 954.42 310.393 954.028 307.891L952.838 307.415L951.336 302.475C953.634 302.129 954.606 302.154 956.588 301.042C955.842 299.798 956.028 300.457 956.025 298.999Z" fill="#FEFEFC"/>
<path d="M956.025 298.999C965.254 301.979 958.904 307.842 962.79 311.023C966.747 316.374 967.536 326.133 972.406 328.975C974.725 329.186 977.728 328.626 978.872 326.334L979.975 326.721L981.167 328.29L981.162 330.543L980.548 332.094C979.914 330.795 979.988 330.868 978.797 330.052L978.256 331.34C974.017 331.22 970.513 332.765 966.659 334.497L966.275 333.105L963.735 332.21C963.359 329.157 960.13 328.808 958.567 323.639L955.612 317.064L955.339 315.734C954.797 313.294 954.42 310.393 954.028 307.891L952.838 307.415L951.336 302.475C953.634 302.129 954.606 302.154 956.588 301.042C955.842 299.798 956.028 300.457 956.025 298.999Z" fill="#8BAD53"/>
<path d="M956.025 298.999C965.254 301.979 958.904 307.842 962.79 311.023C962.143 315.713 962.789 316.619 960.266 319.826L960.082 319.553L958.778 320.438L958.567 323.639L955.612 317.064L955.339 315.734C954.797 313.294 954.42 310.393 954.028 307.891L952.838 307.415L951.336 302.475C953.634 302.129 954.606 302.154 956.588 301.042C955.842 299.798 956.028 300.457 956.025 298.999Z" fill="#7CA045"/>
<path d="M935.373 167.666C946.141 172.22 944.298 174.948 950.755 179.731L950.271 182.054L950.469 183.303C957.643 186.488 962.308 200.631 960.688 207.296C957.077 204.525 956.824 208.636 955.594 203.136C954.835 199.741 956.387 197.724 953.465 194.927L952.43 195.092C951.487 198.528 952.655 204.585 952.161 208.954C953.224 211.368 954.493 215.297 955.415 217.905C957.263 219.462 959.826 221.316 961.793 222.821C949.912 236.799 946.655 240.745 936.858 256.588C936.75 250.816 936.618 245.063 936.383 239.296C935.506 217.789 928.395 191.745 933.663 170.413L935.373 167.666Z" fill="#FEFEFC"/>
<path d="M935.374 167.666C946.142 172.22 944.299 174.947 950.756 179.731L950.273 182.054L950.47 183.303C957.644 186.488 962.309 200.631 960.689 207.296C957.078 204.525 956.825 208.636 955.595 203.136C954.836 199.741 956.388 197.724 953.466 194.927L952.431 195.092C951.488 198.528 952.656 204.585 952.162 208.954L951.334 208.763L950.183 204.458C949.928 207.111 949.919 209.513 947.921 211.401L946.377 211.906L946.118 213.059C946.048 215.071 946.093 215.756 945.566 217.675L944.078 219.74L943.166 218.002C941.898 219.848 941.843 220.533 941.579 222.757L940.429 223.463C940.007 223.255 938.173 222.391 937.92 222.186L937.122 220.321C935.794 205.185 938.401 191.83 944.82 178.063C940.804 173.642 939.338 172.169 933.664 170.413L935.374 167.666Z" fill="#8BAD53"/>
<path d="M947.562 196.056C947.772 191.101 946.202 190.67 946.461 185.351C947.943 182.777 947.175 183.674 950.273 182.054L950.47 183.303C950.425 186.638 950.53 192.634 949.968 195.7L947.562 196.056Z" fill="#739342"/>
<path d="M947.562 196.056L949.968 195.7C949.953 198.13 949.819 199.72 950.396 202.107C948.96 203.199 946.461 205.464 944.865 205.524C944.871 204.585 945.031 196.961 945.088 196.606L947.562 196.056Z" fill="#7CA045"/>
<path d="M937.121 220.321C938.945 217.954 940.263 216.062 942.593 214.129L943.377 214.614L943.165 218.002C941.897 219.848 941.841 220.533 941.578 222.757L940.428 223.463C940.006 223.255 938.172 222.391 937.919 222.186L937.121 220.321Z" fill="#7CA045"/>
<path d="M946.117 213.059L946.376 211.906L947.919 211.401C949.918 209.514 949.927 207.111 950.182 204.458L951.333 208.764L951.394 209.482C951.833 214.108 953.75 217.435 953.128 221.068C951.424 223.017 952.45 222.414 949.97 222.99C947.231 221.742 946.527 220.505 945.564 217.676C946.091 215.756 946.047 215.071 946.117 213.059Z" fill="#82A34B"/>
<path d="M937.919 222.186C938.172 222.391 940.006 223.255 940.428 223.463L941.578 222.757C941.841 220.533 941.897 219.848 943.165 218.002L944.076 219.74C945.314 223.083 946.561 226.847 945.214 230.245C943.286 231.998 944.238 231.613 941.742 231.838C937.814 229.847 937.503 226.266 937.919 222.186Z" fill="#82A34B"/>
<path d="M945.834 307.878L946.643 305.134L947.818 304.499C948.421 306.996 948.141 307.686 949.798 309.236C951.664 308.764 951.549 308.84 952.838 307.415L954.028 307.891C954.42 310.393 954.797 313.294 955.339 315.734L955.612 317.064L958.567 323.639C960.13 328.808 963.359 329.157 963.735 332.21C952.227 336.111 944.096 344.531 936.018 353.012C935.596 343.495 933.995 323.239 935.729 313.031C936.584 312.043 937.307 311.206 937.898 310.519C937.415 309.141 937.572 309.578 937.615 308.03C940.407 306.559 939.677 309.7 944.44 309.509L945.834 307.878Z" fill="#FEFEFC"/>
<path d="M945.834 307.878L946.643 305.134L947.818 304.499C948.421 306.996 948.141 307.686 949.798 309.236C951.664 308.764 951.549 308.84 952.838 307.415L954.028 307.891C954.42 310.393 954.797 313.294 955.339 315.734L954.263 318.766C954.302 321.931 954.742 321.278 953.373 323.67C951.338 324.123 951.438 324.063 949.458 323.274L948.542 326.53L947.82 326.277C947.664 328.591 947.586 330.358 947.622 332.675L946.556 330.09C943.793 328.356 944.706 328.326 942.252 328.804L940.078 330.835C940.016 329.96 939.355 326.735 939.174 325.467C938.513 320.871 940.364 314.095 937.898 310.519C937.415 309.141 937.572 309.578 937.615 308.03C940.407 306.559 939.677 309.7 944.44 309.509L945.834 307.878Z" fill="#8BAD53"/>
<path d="M946.537 318.801L948.145 318.675L949.458 323.274L948.542 326.53L947.82 326.277C947.664 328.591 947.586 330.358 947.622 332.675L946.556 330.09C946.787 326.696 946.595 322.289 946.537 318.801Z" fill="#D0D9BC"/>
<path d="M940.078 330.835L942.252 328.804C944.706 328.326 943.793 328.356 946.556 330.09L947.622 332.675C947.639 335.041 947.569 336.625 947.353 338.98C945.82 341.213 946.688 340.552 944.206 341.602C938.83 339.616 939.511 335.538 940.078 330.835Z" fill="#82A34B"/>
<path d="M954.263 318.766L955.339 315.734L955.612 317.064C954.89 322.664 957.736 328.503 954.396 332.852L953.103 332.988C950.571 330.494 950.069 329.931 948.542 326.53L949.458 323.274C951.438 324.063 951.338 324.123 953.373 323.67C954.742 321.278 954.302 321.931 954.263 318.766Z" fill="#8BAD53"/>
<path d="M936.831 304.818C936.65 303.336 936.533 301.844 936.481 300.352C935.595 274.479 936.578 258.092 955.328 238.036C955.166 246.31 952.363 243.107 948.929 250.504C943.363 263.271 946.032 269.943 945.898 283.388L951.025 289.682C946.546 294.679 941.457 299.889 936.831 304.818Z" fill="#FEFEFC"/>
<path d="M847.474 138.377C853.121 136.501 860.883 140.365 862.974 138.778L862.041 135.717L863.163 135.332C867.308 137.711 870.904 146.482 873.13 151.003C873.097 152.333 873.211 152.665 872.709 153.875C859.244 152.717 853.856 150.502 847.474 138.377Z" fill="#7CA045"/>
<path d="M955.328 238.036L956.008 237.446C960.688 239.635 960.269 244.373 962.514 246.274C959.667 247.638 959.053 249.018 956.81 249.394L956.276 247.197L955.447 247.014C954.599 248.541 954.559 248.444 954.391 250.159L948.929 250.504C952.363 243.107 955.166 246.31 955.328 238.036Z" fill="#8BAD53"/>
<path d="M947.818 304.499C949.039 302.777 948.576 297.939 950.441 294.218L951.399 294.366C952.895 298.323 951.891 297.421 951.336 302.475L952.838 307.415C951.549 308.84 951.664 308.764 949.798 309.236C948.141 307.686 948.421 306.996 947.818 304.499Z" fill="#739342"/>
<path d="M954.391 250.159C954.559 248.444 954.599 248.541 955.447 247.014L956.276 247.197L956.81 249.394L956.654 250.348C955.716 256.393 957.466 261.768 956.472 264.885C954.904 265.564 955.151 265.699 953.626 265.548L953.551 264.479L954.391 250.159Z" fill="#7CA045"/>
<path d="M952.59 273.635L954.126 272.452C955.672 281.668 963.292 277.58 954.085 286.519C953.629 282.219 953.13 277.924 952.59 273.635Z" fill="#FEFEFC"/>
<path d="M967.239 261.428C969.751 265.133 970.102 267.06 971.332 271.404C967.232 271.403 966.389 272.057 965.037 268.199C965.36 264.905 965.765 264.293 967.239 261.428Z" fill="#8BAD53"/>
<path d="M952.592 273.635C951.887 269.909 951.088 267.605 953.551 264.479L953.626 265.548C953.742 267.963 953.837 270.036 954.128 272.452L952.592 273.635Z" fill="#93B759"/>
<path d="M856.461 205.368C898.393 180.071 870.927 166.317 874.806 159.658C883.414 157.254 907.306 174.329 913.036 180.895L913.152 181.307C926.975 195.663 928.933 206.808 929.948 226.088C930.58 238.106 930.786 249.784 930.894 261.844C914.32 238.967 894.807 228.383 866.497 230.323C867.024 217.188 866.21 214.333 856.461 205.368Z" fill="#FEFEFC"/>
<path d="M899.75 200.519L907.565 200.91L906.532 209.876L906.997 210.461C907.813 208.802 908.412 207.522 909.101 205.808C911.259 206.468 911.343 206.43 913.604 205.964C913.363 207.816 912.896 213.752 912.584 214.973C909.509 215.71 908.945 215.957 906.075 214.752C903.868 216.738 900.084 228.005 893.413 226.139C890.917 220.797 900.319 208.166 899.75 200.519Z" fill="#82A34B"/>
<path d="M912.981 192.608L915.744 196.595C924.737 205.292 917.379 205.648 921.89 215.732C920.357 221.137 920.033 229.682 916.686 232.542C911.572 231.501 912.877 226.104 913.537 222.29L912.266 219.539C912.215 218.381 912.474 216.22 912.584 214.973C912.896 213.752 913.363 207.816 913.604 205.964C913.378 203.413 913.096 200.866 912.762 198.327L912.981 192.608Z" fill="#8BAD53"/>
<path d="M912.981 192.608L915.744 196.595C913.781 201.431 915.603 219.008 913.537 222.29L912.266 219.539C912.215 218.381 912.474 216.22 912.584 214.973C912.896 213.752 913.363 207.816 913.604 205.964C913.378 203.413 913.096 200.866 912.762 198.327L912.981 192.608Z" fill="#93B759"/>
<path d="M913.036 180.895L913.152 181.307C911.556 186.519 910.284 187.759 912.981 192.608L912.762 198.327C913.096 200.866 913.378 203.413 913.604 205.964C911.343 206.43 911.259 206.468 909.101 205.808C908.412 207.522 907.813 208.802 906.997 210.461L906.532 209.876L907.565 200.91L899.75 200.519L902.75 194.517L904.421 192.061C907.729 187.891 907.422 183.941 913.036 180.895Z" fill="#93B759"/>
<path d="M909.101 205.808C909.211 202.004 907.807 198.263 910.382 194.91C912.358 195.89 911.723 195.571 912.762 198.327C913.096 200.866 913.378 203.413 913.604 205.964C911.343 206.43 911.259 206.468 909.101 205.808Z" fill="#7CA045"/>
<path d="M895.943 187.815C895.005 183.837 889.443 183.47 891.219 179.219C892.837 175.338 896.214 174.474 899.589 176.208C900.652 178.608 900.463 177.391 900.186 179.994C898.677 181.728 897.377 182.78 897.03 185.134L895.943 187.815Z" fill="#CBBCF5"/>
<path d="M906.075 214.752C908.945 215.957 909.509 215.71 912.584 214.973C912.474 216.22 912.215 218.381 912.266 219.539C911.316 221.953 910.834 224.11 908.84 225.592C906.205 225.48 907.127 225.836 904.932 224.517C904.052 220.213 906.823 219.273 906.075 214.752Z" fill="#8BAD53"/>
<path d="M897.03 185.134C899.804 185.658 902.158 185.684 903.884 187.704C904.487 189.674 904.426 189.965 904.42 192.061L902.749 194.517C898.051 193.275 897.819 191.969 895.943 187.815L897.03 185.134Z" fill="#C2ABEA"/>
<path d="M890.776 188.203C892.237 188.259 893.541 189.14 894.141 190.474C894.741 191.809 894.533 193.368 893.607 194.499C892.678 195.63 891.189 196.139 889.764 195.811C887.825 195.365 886.543 193.517 886.805 191.546C887.069 189.574 888.788 188.126 890.776 188.203Z" fill="#C2ABEA"/>
<path d="M883.239 179.118C886.004 179.844 887.401 179.973 889.633 181.771C890.711 184.631 890.26 184.313 889.625 187.553C885.667 187.158 886.735 187.77 884.065 185.798C882.82 183.253 883.128 181.957 883.239 179.118Z" fill="#CBBCF5"/>
<path d="M866.572 287.318C875.011 276.24 886.719 257.458 876.224 243.464C873.489 239.817 868.867 237.904 868.577 233.651L870.105 232.843C890.602 233.146 901.903 238.596 916.873 252.251C912.622 254.351 911.311 254.692 910.019 259.585L909.702 260.238C906.794 267.584 901.478 270.376 901.222 278.14C903.323 277.879 904.025 277.695 905.904 276.723C909.491 279.993 903.923 291.079 897.959 292.176C895.979 294.181 895.541 295.365 894.262 297.832L894.589 299.936C898.951 302.192 900.465 300.415 904.619 298.208C905.242 294.87 905.347 293.524 907.059 290.483L907.607 290.928C907.772 293.89 907.685 296.891 909.052 299.503C912.861 300.512 914.217 296.678 915.956 293.732L917.078 294.248C918.91 298.674 915.292 303.774 919.301 308.328L920.867 308.379C925.95 304.919 925.15 283.354 923.571 277.259C922.563 273.373 909.628 258.48 918.184 256.11C936.257 260.919 928.418 315.751 928.286 331.427C908.779 317.595 900.307 314.245 876.964 315.374C878.209 302.151 878.049 295.256 866.572 287.318Z" fill="#F9F8F8"/>
<path d="M899.247 257.125C891.625 255.895 892.504 249.257 898.18 245.453C900.903 245.048 899.846 244.83 902.156 246.231C904.936 251.224 903.049 252.118 899.6 256.299C903.611 257.133 906.755 257.236 910.019 259.585L909.702 260.238C906.029 261.44 904.059 264.332 899.756 262.813C898.479 259.905 898.864 260.928 899.247 257.125Z" fill="#C2ABEA"/>
<path d="M901.222 278.14C903.323 277.879 904.025 277.695 905.904 276.723C909.491 279.993 903.923 291.079 897.959 292.176C898.221 291.437 898.3 290.109 898.395 289.274C898.576 285.282 899.604 282.422 901.512 279.014L901.222 278.14Z" fill="#8BAD53"/>
<path d="M901.512 279.014L902.947 278.64C905.241 281.93 903.989 285.462 901.314 288.185L898.395 289.274C898.576 285.282 899.604 282.422 901.512 279.014Z" fill="#82A34B"/>
<path d="M892.056 258.761C894.754 259.516 895.755 260.801 896.549 263.381C896.067 266.289 896.564 265.224 894.724 267.451C891.665 266.892 890.361 266.942 888.688 264.585C888.917 261.932 890.283 260.847 892.056 258.761Z" fill="#C2ABEA"/>
<path d="M992.075 308.924L992.276 309.685C991.912 312.603 982.814 323.879 980.401 326.951L979.602 324.269C980.85 319.1 988.15 312.808 992.075 308.924Z" fill="#739342"/>
<path d="M915.956 293.732C915.724 288.839 916.678 283.993 917.428 279.144C918.667 284.023 917.705 289.269 917.078 294.248L915.956 293.732Z" fill="#93B759"/>
<path d="M960.333 254.848L961.803 256.035C962.676 258.923 961.983 260.655 961.276 263.548L960.071 262.617C959.382 260.348 960.032 257.321 960.333 254.848Z" fill="#8BAD53"/>
<path d="M857.667 326.841C857.599 329.46 857.767 331.924 857.677 334.568C857.074 352.363 834.52 362.055 819.066 362.532C799.074 363.148 825.313 330.773 832.094 327.093C840.922 322.301 847.436 324.076 856.927 325.895L857.667 326.841Z" fill="#82A34B"/>
<path d="M1027.19 196.184C1048.06 178.446 1069.13 189.911 1080.83 211.548C1062.05 220.553 1033.97 223.639 1026.53 198.829L1027.19 196.184Z" fill="#82A34B"/>
<path d="M799.031 177.913C810.18 154.905 829.301 143.795 851.431 159.02C851.607 159.095 851.782 159.17 851.959 159.245L851.832 160.854C851.938 181.732 822.785 186.31 807.539 181.3C804.47 180.291 801.963 179.27 799.031 177.913Z" fill="#82A34B"/>
<path d="M803.506 278.834C805.615 262.153 813.056 246.336 830.721 240.538C834.73 239.222 842.376 240.24 845.978 242.505L847.366 243.39C851.155 252.3 845.857 261.892 839.265 267.894C829.109 277.141 816.825 279.418 803.506 278.834Z" fill="#82A34B"/>
<path d="M1038.85 265.778C1064.13 255.505 1078.6 274.375 1084.39 297.142C1070.92 298.597 1057.65 298.792 1046.4 289.529C1041.05 285.113 1037.65 278.765 1036.93 271.861C1036.77 270.183 1036.74 268.391 1036.71 266.702C1037.05 266.467 1038.39 265.968 1038.85 265.778Z" fill="#82A34B"/>
<path d="M1001.1 332.08C1022.64 318.176 1041.59 332.313 1050.76 353.105C1042.7 356.163 1037.41 357.361 1028.65 357.177C1016.94 356.931 997.194 349.018 1001.02 334.072L1001.1 332.08Z" fill="#82A34B"/>
<path d="M1002.59 334.355C1007.71 334.292 1020.67 339.037 1025.33 341.823C1020.74 343.308 1007.33 336.541 1002.59 334.355Z" fill="#739342"/>
<path d="M1003.41 192.704C1000.01 186.25 997.177 180.445 999.498 173.007C1003.16 161.282 1021.27 147.811 1033.41 148.51C1039.94 152.322 1031.44 174.286 1027.96 179.647C1022.41 188.168 1014.13 190.65 1004.8 192.847L1003.41 192.704Z" fill="#82A34B"/>
<path d="M1011.28 176.174C1014.32 176.463 1024.86 176.82 1026.53 178.076L1025.31 178.334C1021.56 179.058 1012.66 181.228 1009.46 180.151C1009.43 177.855 1009.54 178.485 1011.28 176.174Z" fill="#7CA045"/>
<path d="M978.256 331.34L978.797 330.052C979.988 330.868 979.914 330.795 980.548 332.094C983.186 333.907 986.362 334.607 989.171 336.939C1003.32 348.688 1001.48 364.139 994.941 379.555C983.6 375.61 972.318 363.8 970.79 351.606C969.694 342.863 973.231 337.926 978.256 331.34Z" fill="#82A34B"/>
<path d="M985.017 134.339C998.053 115.123 1021.7 122.027 1033.88 138.188C1020.96 149.877 998.616 155.342 985.999 140.387C984.734 138.889 984.319 138.049 983.789 136.121L985.017 134.339Z" fill="#82A34B"/>
<path d="M964.66 136.289C963.17 135.097 961.014 131.607 960.053 129.866C952.241 115.704 965.056 100.845 976.91 94.2265C979.27 92.9091 980.557 92.8298 982.945 93.6277C988.051 100.612 985.039 120.036 978.898 127.041C974.482 131.672 971.289 133.455 965.13 135.432L964.962 135.968L964.66 136.289Z" fill="#82A34B"/>
<path d="M968.77 126.74C972.629 126.87 974.982 126.149 978.898 127.041C974.482 131.672 971.289 133.455 965.13 135.432C965.398 132.571 967.388 129.409 968.77 126.74Z" fill="#8BAD53"/>
<path d="M907.942 96.9451C908.099 102.664 909.317 102.697 913.384 106.896C914.624 108.176 919.792 112.587 921.034 113.349L921.452 113.762L921.603 114.217C927.479 131.538 933.351 145.48 931.75 165.041C938.574 155.213 944.532 148.413 954.898 142.14C956.976 140.883 963.207 137.621 964.658 136.288L964.96 135.968C967.125 136.965 979.921 134.431 985.017 134.339L983.789 136.121C978.706 136.633 970.686 137.347 966.251 139.506C953.364 144.943 943.291 154.985 935.468 166.375L934.497 164.465C932.191 164.164 930.848 165.251 928.402 166.308C928.341 175.442 928.086 185.283 928.275 194.36C926.806 191.324 925.203 188.143 923.864 185.065C922.36 185.731 922.447 185.782 920.821 185.779L920.46 183.978C920.513 182.737 917.037 172.605 916.461 169.533C914.878 161.092 918.348 156.578 922.685 149.79C922.325 148.352 922.028 147.889 921.124 146.714C922.412 144.84 924.635 144.338 926.876 143.453C925.6 133.008 923.398 125.439 919.06 115.971L918.19 114.804C916.498 111.227 910.251 105.139 906.926 103.041C907.327 102.12 907.769 98.1862 907.942 96.9451Z" fill="#93B759"/>
<path d="M917.225 166.044C919.577 159.339 924.162 149.755 927.107 143.215C928.682 152.3 928.678 157.342 928.402 166.308C928.341 175.442 928.086 185.283 928.275 194.36C926.806 191.324 925.203 188.143 923.864 185.065C923.159 181.906 918.719 171.371 917.225 166.044Z" fill="#FEFEFC"/>
<path d="M966.252 139.506C973.806 140.422 980.651 140.345 985.593 146.612C990.894 153.334 994.301 166.488 993.372 174.656C992.622 175.928 992.647 176.253 991.382 176.91C972.284 173.407 957.15 159.679 966.252 139.506Z" fill="#82A34B"/>
<path d="M871.361 74.3288C889.888 70.9799 903.831 78.1283 907.942 96.9451C907.769 98.1862 907.327 102.12 906.926 103.041C901.152 105.826 892.651 104.964 887.23 101.555C877.299 95.3134 874.002 85.0899 871.361 74.3288Z" fill="#82A34B"/>
<path d="M921.035 113.349C918.198 106.932 914.522 100.04 917.432 93.3193C920.261 86.7845 925.86 77.558 932.184 74.0847C939.544 73.8512 940.283 87.5675 939.966 92.8791C939.216 105.437 933.722 111.564 921.453 113.762L921.035 113.349Z" fill="#82A34B"/>
<path d="M876.881 125.512C887.533 108.377 901.247 104.631 918.191 114.804L919.061 115.971C908.697 136.068 895.525 135.228 876.881 125.512Z" fill="#82A34B"/>
<path d="M894.357 118.779C899.581 118.287 905.148 118.304 910.419 118.213C905.826 119.472 901.255 120.812 896.709 122.232C892.421 123.34 888.603 123.936 884.256 124.649C887.451 121.973 890.217 119.588 894.357 118.779Z" fill="#739342"/>
<path d="M928.372 405.272L936.147 405.742C936.293 411.061 936.308 417.88 936.708 423.059C957.724 434.58 961.765 420.202 974.156 438.916C976.873 439.327 979.523 439.371 981.541 441.043C969.641 443.323 970.02 430.441 959.622 430.679C956.588 430.748 953.158 431.083 950.108 431.351C950.99 435.657 951.679 443.819 956.149 445.401L956.097 446.647C955.907 448.135 956.537 451.097 956.799 452.69L956.05 452.379C950.957 445.078 949.728 439.968 947.104 431.586C944.4 430.328 939.081 427.307 936.527 428.008C936.838 444.557 928.148 437.607 923.619 445.371L923.2 444.39C922.353 445.497 922.144 445.714 921.433 446.922L921.582 445.108L919.613 442.781C924.07 439.531 931.639 439.095 933.395 433.111C932.697 428.554 928.823 427.381 925.125 429.394C914.414 435.225 906.525 436.378 894.351 435.357C887.897 434.815 884.967 439.422 880.788 443.789L880.199 443.552C881.091 431.307 903.753 434.08 911.454 432.234C918.277 430.598 923.535 426.902 929.068 422.711C928.958 416.894 928.726 411.08 928.372 405.272Z" fill="#B88F72"/>
<path d="M908.458 137.197C915.69 138.112 917.732 142.446 913.097 148.138C910.137 148.875 911.155 149.017 908.423 148.279C904.971 144.398 905.887 141.359 908.458 137.197Z" fill="#CBBCF5"/>
<path d="M974.633 187.608C976.266 189.96 978.401 193.525 976.628 196.089C972.568 197.059 968.038 194.374 966.195 190.815C966.038 188.318 965.652 189.312 966.975 187.602C969.465 186.661 970.011 186.744 972.699 186.821L974.633 187.608Z" fill="#C2ABEA"/>
<path d="M964.89 173.744C973.727 174.6 971.809 180.692 968.293 186.192C962.352 183.292 961.292 179.01 964.89 173.744Z" fill="#CBBCF5"/>
<path d="M899.77 142.458C902.631 143.734 904.132 144.762 905.613 147.482C905.65 150.518 906.013 149.318 903.969 151.979C901.018 152.125 899.379 152.655 897.295 150.485C896.886 147.921 898.631 145.02 899.77 142.458Z" fill="#C2ABEA"/>
<path d="M905.686 151.634C910.661 152.155 913.833 154.983 911.602 159.956C907.742 159.977 905.454 160.544 903.168 157.087C903.509 153.911 903.672 154.532 905.686 151.634Z" fill="#C2ABEA"/>
<path d="M1007.93 194.782C1015.62 194.266 1019.76 194.239 1027.19 196.184L1026.53 198.829C1022.62 196.522 1011.47 196.755 1006.89 197.63L1006.29 196.109L1007.93 194.782Z" fill="#93B759"/>
<path d="M1018.33 256.92C1022.35 259.401 1032.11 262.076 1038.85 265.778C1038.39 265.968 1037.05 266.467 1036.71 266.702C1031.2 265.795 1023.89 259.152 1018.02 261.751C1017.89 260.682 1018.22 258.131 1018.33 256.92Z" fill="#93B759"/>
<path d="M851.959 159.245C854.796 156.328 867.769 156.161 871.75 156.117L869.564 159.457C864.38 158.572 856.986 159.825 851.832 160.854L851.959 159.245Z" fill="#93B759"/>
<path d="M981.167 328.29C986.052 328.698 997.228 329.341 1001.1 332.08L1001.02 334.072C994.357 332.351 987.968 331.404 981.162 330.543L981.167 328.29Z" fill="#93B759"/>
<path d="M921.433 446.922C922.144 445.714 922.353 445.497 923.2 444.39L923.619 445.371L923.907 446.14C927.335 455.151 931.778 452.151 935.749 464.782L935.24 465.405C933.44 463.306 922.299 448.874 921.433 446.922Z" fill="#B38F78"/>
<path d="M972.697 186.821C972.776 183.021 972.203 183.493 974.041 180.732C976.597 179.529 975.48 179.729 978.278 179.948C980.218 181.628 979.672 180.601 980.009 183.111C978.277 186.213 978.173 185.563 974.631 187.608L972.697 186.821Z" fill="#CBBCF5"/>
<path d="M919.613 442.781L921.582 445.108C913.264 450.573 906.93 449.852 902.458 456.899L901.922 457.757L901.16 457.803C902.478 448.023 911.42 451.051 918.993 443.413L919.613 442.781Z" fill="#B38F78"/>
<path d="M856.927 325.895C862.01 321.1 869.369 319.118 875.903 316.944L875.943 319.239C869.516 320.958 863.583 323.838 857.667 326.841L856.927 325.895Z" fill="#93B759"/>
<path d="M863.743 232.501L864.761 234.386C859.392 236.54 852.189 240.136 847.366 243.39L845.978 242.505C852.606 237.244 856.13 235.537 863.743 232.501Z" fill="#93B759"/>
<path d="M960.174 185.119C963.116 185.548 963.712 185.387 965.665 187.447C966.121 190.213 966.243 189.083 964.73 191.817C962.399 191.721 962.442 191.725 960.234 190.959C959.009 188.501 959.613 188.258 960.174 185.119Z" fill="#C2ABEA"/>
<path d="M956.149 445.401C962.061 446.34 971.336 447.989 971.88 455.177L971.241 455.572C966.113 448.738 964.618 448.398 956.097 446.647L956.149 445.401Z" fill="#B88F72"/>
<path d="M371.909 293.443L372.832 293.712L375.555 294.688C386.382 303.779 392.312 307.963 397.089 321.554L400.17 323.509C398.108 330.548 396.286 341.101 397.766 348.353L399.338 350.387C394.382 359.343 397.658 390.954 397.339 404.198C393.767 402.981 394.216 403.733 392.699 400.568C392.563 391.876 393.674 358.001 391.565 352.408C392.666 351.311 392.735 351.224 393.572 349.913C393.765 324.582 397.113 314.308 373.947 297.498C371.989 318.188 359.053 324.706 339.445 320.754C346.254 300.807 351.543 293.748 372.766 296.404L370.243 294.576L371.909 293.443Z" fill="#82A34B"/>
<path d="M364.013 299.768C364.221 299.924 365.188 301.571 365.402 301.919C364.727 304.384 362.405 306.024 360.415 307.863L358.873 307.551C358.855 304.095 361.216 301.472 364.013 299.768Z" fill="#739342"/>
<path d="M343.573 347.206C339.727 342.189 341.781 337.875 346.658 334.677C360.762 325.43 375.507 325.034 385.611 338.706L385.507 342.073C383.905 343.936 382.859 345.802 382.661 348.326C380.941 351.105 373.785 353.299 370.617 353.585C361.03 354.452 351.808 351.973 343.573 347.206Z" fill="#82A34B"/>
<path d="M343.573 347.206C339.727 342.189 341.781 337.875 346.658 334.677C360.762 325.43 375.507 325.034 385.611 338.706L380.973 340.221C379.988 340.779 375.201 339.396 373.498 339.116C367.825 338.185 364.966 338.014 359.362 338.87C356.916 340.745 347.621 344.784 343.573 347.206Z" fill="url(#paint2_linear_325_32838)"/>
<path d="M359.362 338.87C356.567 339.522 348.186 342.583 347.196 342.402C356.162 334.638 370.836 335.108 380.973 340.221C379.988 340.779 375.201 339.396 373.498 339.116C367.825 338.185 364.966 338.014 359.362 338.87Z" fill="#739342"/>
<path d="M403.935 343.162C405.923 335.728 404.959 337.075 410.683 331.668C422.47 320.533 465.252 335.101 440.633 349.324C431.348 354.69 411.541 355.501 404.971 344.402L403.935 343.162Z" fill="#82A34B"/>
<path d="M424 336.039L426.156 336.005L426.787 336.804C424.677 337.845 417.329 338.523 414.284 339.047L412.667 339.379L413.26 338.544C418.064 336.553 418.802 336.418 424 336.039Z" fill="#739342"/>
<path d="M441.543 284.904C447.182 274.306 454.512 268.231 467.359 270.226C472.648 271.048 480.121 271.184 482.922 276.382C484.397 288.299 452.85 302.997 441.296 286.714L441.543 284.904Z" fill="#82A34B"/>
<path d="M462.593 279.957L464.017 280.126C462.553 281.55 448.669 286.067 445.715 287.092C444.79 286.989 444.648 286.814 443.757 286.43C446.411 283.823 458.511 281.011 462.593 279.957Z" fill="#739342"/>
<path d="M359.291 289.088C352.939 294.064 346.551 298.41 338.188 295.182C331.379 292.553 315.06 283.923 318.264 274.942C325.119 268.693 350.015 269.57 354.005 279.746C354.927 282.096 358.084 286.679 359.984 288.118L359.291 289.088Z" fill="#82A34B"/>
<path d="M424.766 290.169C419.538 285.158 416.859 282.698 415.937 275.105C414.955 267.011 423.313 250.365 431.866 249.694C437.645 252.306 438.494 265.49 437.956 271.063C437.134 279.613 433.29 283.486 426.902 288.727L424.766 290.169Z" fill="#82A34B"/>
<path d="M371.38 252.541C382.177 260.724 391.266 274.575 382.375 287.904C381.212 289.646 377.235 293.061 375.555 294.688L372.832 293.712C372.564 291.501 370.214 289.106 368.465 287.097C359.591 276.891 364.877 262.997 371.38 252.541Z" fill="#82A34B"/>
<path d="M373.238 276.196C371.777 270.966 369.819 266.73 371.94 261.763L373.298 261.294C376.786 264.042 377.28 272.647 375.184 275.876L373.238 276.196Z" fill="#739342"/>
<path d="M373.238 276.196L375.184 275.876C375.547 278.312 376.537 282.324 374.773 284.117C373.345 281.704 373.46 279.075 373.238 276.196Z" fill="#7CA045"/>
<path d="M433.153 292.262C435.191 292.137 437.761 292 439.724 292.537C448.64 294.986 459.394 309.831 457.214 318.961C455.322 320.884 455.198 320.326 451.985 320.631C440.895 318.886 429.003 312.912 425.418 300.909C423.895 295.814 428.478 292.883 433.153 292.262Z" fill="#82A34B"/>
<path d="M441.543 284.904L441.296 286.714C423.389 293.182 409.983 302.723 401.541 320.491C401.068 321.489 400.612 322.495 400.17 323.509L397.089 321.554C402.824 306.756 412.443 298.856 424.766 290.169L426.902 288.727C430.481 289.362 437.847 286.23 441.543 284.904Z" fill="#8BAD53"/>
<path d="M392.97 423.59L395.135 425.073C394.383 444.512 408.917 442.27 411.201 453.421L410.607 454.304C408.138 450.641 406.816 448.682 403.767 445.494L403.102 444.805C400.976 448.979 398.063 453.865 395.781 458.072L394.423 458.036L395.364 458.708L394.148 458.84L394.979 459.264L394.076 460.282L393.967 459.08L394.47 459.734L394.024 458.824L394.896 459.15L395.123 458.816L394.371 457.773C395.783 453.28 398.62 448.295 400.834 444.05C396.816 440.167 394.974 436.918 392.575 431.979C385.312 436.697 381.957 435.968 375.708 443.54L375.378 443.947L375.19 442.511C380.604 433.11 390.944 436.261 392.832 424.475L392.97 423.59Z" fill="#B38F78"/>
<path d="M392.699 400.568C394.216 403.733 393.767 402.981 397.339 404.198C397.421 409.155 397.342 417.226 397.776 421.901C401.573 422.443 405.57 423.151 409.383 423.014L409.082 427.108C406.311 425.668 397.81 423.605 395.135 425.073L392.97 423.59L393.003 423.003L393.59 421.355L392.036 419.415C393.828 416.079 392.866 404.805 392.699 400.568Z" fill="#B88F72"/>
<path d="M392.036 419.415L393.59 421.355L393.003 423.003L391.775 422.133C385.114 425.361 375.496 428.023 369.344 431.887C368.87 432.185 364.609 438.177 364.068 438.942L363.86 438.308L363.694 438.989L364.606 437.954L363.655 438.887C364.229 436.004 365.452 433.821 366.738 431.201C373.639 426.584 382.735 425.219 392.036 419.415Z" fill="#B38F78"/>
<path d="M409.384 423.014C417.672 424.113 423.605 426.605 427.045 434.93C420.591 431.682 419.119 425.587 411.191 425.041L410.327 425.577C411.995 428.023 415.124 431.185 415.687 433.483L415.191 434.436C413.05 433.317 411.264 429.547 409.083 427.108L409.384 423.014Z" fill="#B38F78"/>
<path d="M382.661 348.326C382.859 345.802 383.905 343.936 385.507 342.073C389.147 344.901 390.476 346.428 393.572 349.913C392.735 351.224 392.666 351.311 391.565 352.408C390.225 351.402 388.016 347.989 387.066 346.49L385.462 346.143L382.661 348.326Z" fill="#8BAD53"/>
<path d="M359.984 288.118C362.802 288.734 369.248 291.943 371.909 293.443L370.243 294.576C366.21 292.735 363.16 291.239 359.291 289.088L359.984 288.118Z" fill="#93B759"/>
<path d="M403.935 343.162L404.971 344.402C404.213 345.231 399.928 350.019 399.339 350.387L397.767 348.353C399.961 346.284 401.382 344.853 403.935 343.162Z" fill="#93B759"/>
<defs>
<linearGradient id="paint0_linear_325_32838" x1="1016.17" y1="411.473" x2="1223.5" y2="236.357" gradientUnits="userSpaceOnUse">
<stop stop-color="#845433"/>
<stop offset="1" stop-color="#A46E51"/>
</linearGradient>
<linearGradient id="paint1_linear_325_32838" x1="1391.11" y1="136.728" x2="1084.31" y2="793.771" gradientUnits="userSpaceOnUse">
<stop stop-color="#AD8163"/>
<stop offset="1" stop-color="#C29F7E"/>
</linearGradient>
<linearGradient id="paint2_linear_325_32838" x1="415.323" y1="573.789" x2="767.813" y2="-105.88" gradientUnits="userSpaceOnUse">
<stop stop-color="#7C9649"/>
<stop offset="1" stop-color="#8EB253"/>
</linearGradient>
</defs>
</svg>
